<svg width="400" height="400" fill="none" xmlns="http://www.w3.org/2000/svg"><path d="M86.175 191.6a40.022 40.022 0 00-5.708-12.1 15.601 15.601 0 00-10.4-6.22c-4.4-.55-8.386 1.864-11.6 4.634-19.2 16.476-36.46 45.878-41.364 67.268a24.896 24.896 0 00.108 13.684 21.355 21.355 0 007.57 9.982 34.439 34.439 0 0017.702 7.248c1.578-9.16 4.986-26.056 8.096-34.706a31.598 31.598 0 0127.412-20.856h.052c.024 0 .048-.016.072-.018a37.844 37.844 0 0115.858 2 273.303 273.303 0 00-7.798-30.916zm-21.4 5.188a4.246 4.246 0 01-3.12-2.506 6.026 6.026 0 01.114-3.876A11.58 11.58 0 0166 184.362c1.812-1.312 4.762-1.8 6.156.354 2.824 4.338-2.168 13.098-7.374 12.068l-.008.004zm285.391 59.096l-22.46-26.76a.753.753 0 00-1.06 0c-1.61 1.584-46.712 46.138-47.138 46.552a5.292 5.292 0 00-1.926 2.414 5.298 5.298 0 00-.246 3.08c.044.476.108.952.186 1.424-1.53 12.298-5.858 21.564-10.3 26.85.624-.4 1.6.258 1.082.948-.132.178-.272.356-.4.534a296.58 296.58 0 0038.296-22.568c.266-.18 43.772-31.268 43.81-31.296a.775.775 0 00.327-.888.769.769 0 00-.171-.29zm-88.747 58.368a6.06 6.06 0 01-5.542-3.854 23.064 23.064 0 01-.82-5.632c-.022-.286-.058-.57-.072-.856a.774.774 0 00-.286-.565.766.766 0 00-.612-.157.77.77 0 00-.384.194 179.538 179.538 0 00-16.162 18.418c-1.724 2.292-2.152 6.02.63 7.158a4.697 4.697 0 003.072-.564c1.4-.684 7.138-4.092 7.944-4.62 1.814-1.184 3.518-2.4 4.704-3.2 3.774-2.528 7.246-4.532 7.906-4.934a.762.762 0 00.057-1.221.76.76 0 00-.435-.167zm-97.443 57.502v-21.47a.747.747 0 00-.22-.53.747.747 0 00-1.06 0 .747.747 0 00-.22.53v21.47c0 .199.079.39.22.53a.747.747 0 001.06 0 .747.747 0 00.22-.53zM31.226 134.986l15-4.948c.912-.3.522-1.748-.4-1.444l-15 4.946c-.912.302-.52 1.75.4 1.446zm34.353-80.682c.66.706 1.718-.356 1.06-1.06l-8.548-9.14c-.66-.706-1.718.356-1.06 1.06l8.548 9.14zM175.854 10.72l1.07 13.636c.074.956 1.574.964 1.498 0l-1.068-13.636c-.074-.956-1.574-.964-1.5 0zm105.035 32.316l-6.938 13.486c-.44.856.852 1.616 1.294.756l6.938-13.484c.44-.856-.852-1.616-1.294-.758zm55.446 133.456l12.098-2.738c.94-.214.542-1.66-.4-1.446l-12.098 2.738c-.934.214-.534 1.658.4 1.446zM314.14 109l11.368-7.136c.816-.512.064-1.81-.756-1.296l-11.368 7.138c-.816.52-.064 1.816.756 1.294zm15.394 117.958L352.8 253.2c.642.722 1.698-.34 1.06-1.06l-23.26-26.242c-.646-.722-1.704.34-1.066 1.06zm3.322-3.096l23.746 26.468c.646.72 1.704-.342 1.06-1.06l-23.746-26.47c-.644-.718-1.702.346-1.06 1.062zm25.911-5.774a21.525 21.525 0 00-22.87 1.824c-.744.614.32 1.67 1.062 1.06a17.278 17.278 0 019.708-3.756c13.454-1.028 20.4 8.46 18.228 17.444a27.142 27.142 0 01-5.16 10.706c-.6.746.454 1.812 1.06 1.06a29.64 29.64 0 005.256-10.222 15.043 15.043 0 00-7.284-18.116zM252.04 362.772c-.18-.948-1.6-.55-1.446.4a26.33 26.33 0 003.35 9.636c4.52 6.894 13.29 5.734 14.886-.4.616-2.374.2-5.066 1.332-7.302a5.57 5.57 0 013.819-2.945 5.565 5.565 0 016.491 3.879c.736 2.53-.108 5.316 1.544 7.6a5.78 5.78 0 0010.44-2.584c.366-2.684-.816-5.318 1.69-7.33a4.355 4.355 0 016.086.652 12.19 12.19 0 011.686 6.232 7.847 7.847 0 002.916 5.888 3.876 3.876 0 004.736-.809 3.87 3.87 0 00.838-1.493c1.132-3.368.246-4.6 1.64-7.444 2.532-5.152 7.976-4.488 10.318.8 1.102 2.486 1 3.126 3.972 21.92.15.95 1.6.546 1.446-.4-.22-1.386-2.632-16.8-2.898-18.18a12.844 12.844 0 00-3.216-7.012 6.598 6.598 0 00-2.936-1.84 6.601 6.601 0 00-3.464-.102 7.874 7.874 0 00-4.63 4.302c-1.506 3.39-.502 4.048-1.64 7.472a2.748 2.748 0 01-2.412 1.856c-3.466-.75-3.104-5.846-3.704-8.722a6.58 6.58 0 00-3.92-5.164 5.8 5.8 0 00-5.08.412 5.819 5.819 0 00-2.804 4.256c-.2 1.426.074 2.86-.068 4.286a4.36 4.36 0 01-4.58 3.946 4.63 4.63 0 01-4.104-4.922 17.86 17.86 0 00-.4-4.02 7.06 7.06 0 00-10.321-4.14 7.06 7.06 0 00-2.847 3.092c-1.108 2.338-.74 4.964-1.366 7.418-1.326 5.2-8.446 5.294-11.526.812a21.52 21.52 0 01-3.828-10.05z" fill="#5DD89E"/><path d="M249.582 365.906c.886.378 1.278-1.08.4-1.446a3.116 3.116 0 01-1.414-3.832 3.391 3.391 0 013.4-2.188c.57.11 1.106.353 1.565.709a3.7 3.7 0 011.079 1.337 2.647 2.647 0 01.31 2.112 4.051 4.051 0 01-1.614 1.938c-.814.514-.058 1.82.756 1.294a4.809 4.809 0 002.466-4.254 5.034 5.034 0 00-.737-2.175 5.036 5.036 0 00-3.807-2.345 5.026 5.026 0 00-2.274.32 4.682 4.682 0 00-2.61 2.901 4.687 4.687 0 00.5 3.871 4.69 4.69 0 001.98 1.758zM64.784 196.782c5.2 1.032 10.2-7.736 7.38-12.066-1.4-2.148-4.344-1.666-6.156-.354a11.6 11.6 0 00-4.23 6.04 6.026 6.026 0 00-.114 3.876 4.223 4.223 0 003.12 2.504zm1.364-10.612c1.05-.984 3.312-2.13 4.478-.99 1.128 1.1.858 3.304.482 4.722a7.637 7.637 0 01-1.474 2.926c-1.026 1.24-2.66 2.914-4.452 2.51-4.67-1.058-1.12-7.214.966-9.168zM83.015 337.8l-10.018 1.83c-.948.172-.546 1.618.4 1.446l10.018-1.832c.946-.174.544-1.62-.4-1.444z" fill="#5DD89E"/><path d="M17.19 258.862a21.367 21.367 0 007.571 9.982 34.386 34.386 0 0017.684 7.246c-2.672 15.344-4.89 32.892-1.6 48.25 3.458 16.122 24.36 27.964 43.312 22.624 20-5.636 41.168-24.682 55.334-37.748 5.242 2.982 5.568 2.242 13.038 6.884 14.95 9.3 15.13 10.318 23.472 15.7a15.03 15.03 0 00-2.928 9.066 6.178 6.178 0 003.87 5.254c4.8 1.828 9.566-2.252 12.282-7.42a86.008 86.008 0 006.654 2.336 36.706 36.706 0 00.054 8.136h-84.262c-.688 0-1.094 1.094-.378 1.4 52.456 22.208 52.088 22.048 52.328 21.888 7.698.114 90.324.346 90.324.346 4.52 6.894 13.29 5.734 14.886-.4.616-2.374.2-5.066 1.332-7.302a5.57 5.57 0 013.819-2.945 5.565 5.565 0 016.491 3.879c.736 2.53-.108 5.316 1.546 7.6a5.779 5.779 0 009.017.507 5.774 5.774 0 001.423-3.091c.364-2.684-.816-5.318 1.688-7.33a4.356 4.356 0 016.086.652 12.19 12.19 0 011.686 6.232 7.862 7.862 0 002.916 5.888 3.876 3.876 0 004.736-.809c.388-.429.674-.939.838-1.493 1.132-3.368.246-4.6 1.64-7.444 2.532-5.152 7.976-4.488 10.318.8 1.102 2.488 1 3.126 3.972 21.92.15.95 1.6.546 1.446-.4-.22-1.384-2.632-16.8-2.896-18.178a12.864 12.864 0 00-3.218-7.012 6.598 6.598 0 00-2.936-1.84 6.6 6.6 0 00-3.464-.102 7.868 7.868 0 00-4.632 4.302c-1.506 3.39-.502 4.048-1.642 7.472a2.733 2.733 0 01-2.4 1.856c-3.466-.75-3.104-5.846-3.704-8.72a6.56 6.56 0 00-3.92-5.166 5.799 5.799 0 00-5.08.412 5.819 5.819 0 00-2.804 4.256c-.2 1.426.074 2.86-.068 4.286a4.36 4.36 0 01-4.58 3.946 4.632 4.632 0 01-4.104-4.922c.02-1.351-.115-2.7-.4-4.02a7.059 7.059 0 00-10.321-4.14 7.065 7.065 0 00-2.847 3.092c-1.108 2.338-.74 4.964-1.366 7.418-1.322 5.186-8.38 5.262-11.476.812 1.522 0 7.342.02 8.852 0a.764.764 0 00.748-.75c0-24.044.1-22.284-.222-22.67-.2-.156 1.508-.216-13.032-.234 1.546-1.664 3.726-3.682 3.158-6.084 10-1.432 18.872-3.04 27.768-7.766 12.312-6.544 18.31-18.496 21.872-31.92a82.117 82.117 0 002.728-16.162c7.832-5.59 42.2-30.146 42.236-30.172a.772.772 0 00.246-1.056c-.036-.058-22.512-26.83-22.556-26.882a.753.753 0 00-1.062 0c-3.646 3.6-20.528 20.3-33.172 32.8-7.336-1.316-19.024.638-26.356 2.102a93.425 93.425 0 007.678-19.2 155.995 155.995 0 0021.63-7.55 65.175 65.175 0 0013.28-7.652 31.077 31.077 0 0012.856-29.498c-1.054-10.388-5.338-18.498-14.366-23.832-8.472-5-18.71-6.6-28.562-6.752.152-.768.26-1.542.322-2.322a6.5 6.5 0 00-3.568-6.416c-4.164-1.962-9.2 1.618-11.352 5.084a46.55 46.55 0 00-2.338 4.472c-5.4.516-10.822 1.19-17.74 1.974a163.6 163.6 0 0021.306-35.742 14.134 14.134 0 0012-6.942 21.558 21.558 0 003.92-14.052 11.641 11.641 0 00-7.2-10.144c1-8.972.428-18.628-5.4-25.616-11.7-14.04-45.474-14.876-73.2 13.236-.442-19.672-1.968-41.088-16.722-53.926-10.322-8.978-25.908-10.906-41.082-2.488a37.319 37.319 0 00-11.344 9.4 39.943 39.943 0 00-6.784 16.704 128.377 128.377 0 00-2.222 15.614c-8.832-5.534-18.2-8.832-29.188-6.892-20.99 3.712-33.92 25.55-25.152 48.006 3.68 9.424 8.424 16.28 23.472 38.8 11.376 17.018 29.4 41.556 44 55.244a195.855 195.855 0 01-17.52 21.328c-1.83-1.39-10.88-8.184-12.916-9.322a42.853 42.853 0 00-7-3.032 276.674 276.674 0 00-7.768-30.912 40.042 40.042 0 00-5.708-12.098 15.6 15.6 0 00-10.4-6.22c-4.4-.55-8.386 1.864-11.6 4.632-18.378 15.756-36.266 44.96-41.384 67.264a24.914 24.914 0 00.106 13.684zm145.287 111.766l-47.13-19.95h47.13v19.95zm22.692-28.714a8.614 8.614 0 01-5.45 3.076 4.554 4.554 0 01-5-3.4 10.63 10.63 0 011.616-7.44 23.427 23.427 0 014.828-6.258c1.61-1.5 4.314-3.626 6.6-2.316a4.71 4.71 0 012.298 4.218 18.352 18.352 0 01-4.892 12.12zm78.842 8.764v20.642c-3.034 0-6.164 0-9.2-.014a30.056 30.056 0 01-2.278-6.122h-1.532a24.345 24.345 0 002.074 6.12c-94.58-.142-88.4-.364-89.102-.358v-20.268h100.038zm-65.05-22.336c3.22-6.132 13.2-4.66 11.526-17.044-.478-3.536-1.4-6.956-1.566-10.54-.31-6.814 1.544-13.848 7.018-18.318 3.648-2.974 9.224-4.4 13.358-1.968a9.194 9.194 0 013.05 3.504 26.921 26.921 0 01-3.828 28.29 35.251 35.251 0 00-5.906 8.6c-2.776 6.766-1.05 14.272-1.562 21.342a44.784 44.784 0 01-1.126 6.952h-22.528c-.698-5.172.452-11.476.624-15.528a13.366 13.366 0 01.94-5.29zm28.894 20.818h-6.424c.299-1.319.547-2.649.744-3.986 1.866.07 3.734.1 5.6.094-.024.77-.028 2.43.08 3.892zm9.686-27.36c-1.724 2.292-2.152 6.02.63 7.158 1.908.304 3.076-.462 6.916-2.726-5.822 13.736-10.118 12.78-13 22.928h-2.736c-.122-3.94.038-7.882.476-11.8a28.603 28.603 0 017.4-17.716 10.307 10.307 0 013.83-2.44 57.21 57.21 0 00-3.516 4.596zm16.094-16.16a21.44 21.44 0 00.8 5.156 7.924 7.924 0 004.84 4.652c-6.924 4.216-9.968 6.628-13.728 8.81-.836.486-1.696.93-2.514 1.444a18.17 18.17 0 01-2.928 1.558c-.874.346-1.728.532-2.21-.46a4.136 4.136 0 01.716-3.878c2.548-4.136 11.666-13.78 15.024-17.282zm-18.4 39.432c4.622-.228 7.522-.526 9.654-.732a14.17 14.17 0 00-1.852 4.82h-9.38c.412-1.404.938-2.77 1.572-4.088h.006zm15.934 3.066c-.31.34-.622.684-.942 1.026h-5.67a12.444 12.444 0 011.778-4.286c1.474-1.514 6.476-3.772 7.428-1.888.986 1.956-1.412 3.842-2.6 5.148h.006zm49.326-35.626a44.065 44.065 0 01-10.494 16.106c-9.4 8.966-22.86 11.35-35.352 13.06-1.672-1.88-6.136-.238-7.986.974-3.46.37-7.12.684-10.6.876 2.02-3.412 4.426-5.366 6.94-9.648a61.85 61.85 0 004.146-8.862c1.924-1.132 2.4-1.462 5.326-3.468a4.387 4.387 0 002.128 2.288c3.34.926 9.476-1.708 12.566-3.26a18.494 18.494 0 00-5.476 6.052 3.865 3.865 0 00.072 4.542 6.569 6.569 0 004.492 1.534 13.006 13.006 0 005.076-1.222c-.248.286-.498.572-.726.878a2.284 2.284 0 00-.268 2.888c.348.324.764.568 1.216.716.454.146.934.192 1.406.134a23.076 23.076 0 008.102-1.978c.872-.38.494-1.816-.4-1.446a24.578 24.578 0 01-6.328 1.842c-.888.22-1.82.182-2.688-.108-.75-.454.634-1.77.99-2.16a41.687 41.687 0 018.634-6.386 31.884 31.884 0 004.976-3.734c.73-.668-.322-1.636-1.06-1.06-3.95 3.088-12.042 8.478-16.836 9.856a6.998 6.998 0 01-4.312-.102c-.66-.238-1.49-.664-1.576-1.444.044-3.028 4-6.502 6.448-8.288a82.272 82.272 0 019.122-6.612.756.756 0 00.242-1.01.749.749 0 00-.998-.284 127.524 127.524 0 01-12.718 6.952 25.045 25.045 0 01-7.2 2.334 3.34 3.34 0 01-2.6-.288 4.163 4.163 0 01-1.024-1.498c3.542-2.384 5.6-3.548 7.86-4.92a11.292 11.292 0 006.3-4.842 296.317 296.317 0 0038.306-22.566 85.385 85.385 0 01-5.712 24.154h.006zm26.66-81.712l21.4 25.494c-2.102 1.544-34.284 24.738-40.296 28.87a416.828 416.828 0 01-22.836 14.63c-7.078 4.21-9.81 5.552-15.35 8.358a58.608 58.608 0 008.948-25.552c.048-.366-.78-2.77.166-4.276.788-1.086 46.578-46.114 47.968-47.524zm-35 32.428c-6.134 6.06-11.066 10.924-12.646 12.458a5.298 5.298 0 00-1.926 2.414 5.307 5.307 0 00-.246 3.08c.044.476.108.952.186 1.422a55.89 55.89 0 01-9.094 25.254c-2.488 3.46-5.074 7.088-8.45 6.2a5.975 5.975 0 01-4.102-3.646c-.48-1.7-.746-3.454-.79-5.22a94.545 94.545 0 012.6-18.844.748.748 0 00-.257-.796.753.753 0 00-1.189.396 90.55 90.55 0 00-2.542 17.446c-2.538 2.512-7.332 7.616-11.2 12.126-4.708.168-8.47 4.834-10.628 9.042a34.126 34.126 0 00-3.542 12.818c-.2 2.232-.4 4.346-.508 6.434-.102-.106-.89.044-5.456-.126.69-6.136-.236-9.79.318-16.778.712-8.986 6.782-11.778 10.4-18.828a28.648 28.648 0 002.218-20.512 13.94 13.94 0 00-5.1-8.278c-8.046-5.372-25.712 2.824-22.43 25.27.748 5.126 3.088 11.296-.576 15.074-4.114 4.244-10.8 4.046-10.682 14.016-.088 2.072-.306 3.972-.5 5.864a65.722 65.722 0 01-6.132-2.2c1.886-4.3 2.32-9.03.232-11.66a5.07 5.07 0 00-4-1.958 8.07 8.07 0 00-4.234 1.658 26.32 26.32 0 00-5 5.166c-6.042-3.85-22.244-15.614-30.06-19.372-2.018-.972-4.214-1.894-6.172-3 13.166-12.176 33.106-31.112 40.364-40.2 4.444 1 1.928.494 6.386 1.384-.116.104-.238.2-.35.314a4.118 4.118 0 00.044 5.762 5.756 5.756 0 002.956 1.216c1.185.052 2.352.308 3.45.756.67.368 1.458 1.4.926 2.174-.616.898-2.382.43-3.228.294a7.47 7.47 0 00-3.988.096c-2.838.89-4.058 5.6 1.988 8.162a.775.775 0 001.026-.268.762.762 0 00-.049-.832.734.734 0 00-.221-.194 7.06 7.06 0 01-2.896-1.872 2.536 2.536 0 01-.448-2.71c2.168-2.912 6.366 1.034 8.942-1.688a2.637 2.637 0 00.356-2.508c-.818-2.23-3.154-2.532-5.2-2.816a4.43 4.43 0 01-2.818-1.126 2.907 2.907 0 011.668-4.338 156.993 156.993 0 0060.288-.56c-2.546 5.696-7.166 11.968-8.102 19.442a7.297 7.297 0 00.158 2.834c.078.278.212.538.392.764a2.185 2.185 0 002.326.752 11.43 11.43 0 004.1-2.664 56.633 56.633 0 008.068-9.914 152.052 152.052 0 009.42-14.726c7.036-1.576 18.812-3.34 25.95-2.464v.01zm-94.77-.524c-1.138-.676-2.478-.9-3.628-1.548-.858-.484-1.916-1.6-1.3-2.644a3.19 3.19 0 012.414-1.102c1.354-.174 2.748-.166 4.11-.236.96-.05.966-1.548 0-1.5a16.56 16.56 0 00-6.654.962 3.102 3.102 0 00-1.508 2.494 3.1 3.1 0 001.238 2.64 9.61 9.61 0 003.344 1.67c1.04.272 1.94.934 2.506 1.85a1.776 1.776 0 01-.962 2.246c-2.438 1.254-3.464-.082-7.496.7-3.4-.64-5.246-1.074-7.42-1.57a57.915 57.915 0 009.772-19.266 195.342 195.342 0 0064.98 1.216 72.83 72.83 0 01-6.144 18.898 155.32 155.32 0 01-54.264 1.838 4.33 4.33 0 002.716-1.82 3.495 3.495 0 00-.538-4.012 3.487 3.487 0 00-1.166-.826v.01zm77.344-24.732c-3.2 17.732-10.964 30.264-21.6 44.944a34.013 34.013 0 01-6.676 7.374c-3.148 2.512-3.842 1.248-3.06-2.718 1.826-9.25 8.048-14.744 13.108-31.17 2.238-7.266 2.124-12 2.76-17.4.6-5.15 1.982-11.106 6.866-13.856a5.739 5.739 0 016.284.018 7.867 7.867 0 012.692 5.44c.186 2.458.06 4.93-.374 7.358v.01zm-9.878-68.584a13.39 13.39 0 013.77-5.288 8.801 8.801 0 015.304-2.31 4.535 4.535 0 014.388 3.53 16.092 16.092 0 01-1.178 7.85 80.42 80.42 0 01-3.108 8.324c-2.096 4.926-5.254 10.944-10.556 10.246a4.245 4.245 0 01-2.848-1.612 6.737 6.737 0 01-.838-4.15 41.86 41.86 0 015.066-16.6v.01zM261.943 172a36.452 36.452 0 00-3.656 13.978c-.106 2.698.532 5.566 3.232 6.734a7.402 7.402 0 007-.674 16.694 16.694 0 005.248-6.582 72.763 72.763 0 005.534-14.4c16.052-.112 34.104 5.016 39.722 20.06 4 10.712 3.13 23.03-4.672 32.098-7.222 8.4-18.042 12.92-28.23 16.532a160.677 160.677 0 01-10.9 3.412 53.678 53.678 0 001.516-10.162 13.165 13.165 0 00-1.456-6.8 6.727 6.727 0 00-2.34-2.486 6.732 6.732 0 00-3.26-1.014 9.651 9.651 0 00-6.766 3.026c-5.38 5.672-5.06 13.866-5.936 21.356a192.648 192.648 0 01-64.77-1.166 61.383 61.383 0 001.47-22.896 70.253 70.253 0 009.882-7.2 348.481 348.481 0 0040.122-41.826c5.418-.646 13.086-1.49 18.26-1.99zm17.78-60.024c3.338 7.476-1.858 19.4-9.028 22.33a11.912 11.912 0 01-9.304-.336c-10.02-5.486-2.772-28.386 10.334-27.66a9.397 9.397 0 017.998 5.656v.01zm-83.284-16.758a79.18 79.18 0 0126.482-18.724c19.646-8.482 46.146-6.452 50.244 14.334.9 4.674 1.016 9.466.344 14.178a11.707 11.707 0 00-6.252.4c-13.4 4.466-17.47 29.432-2.6 31.078-11.962 27.72-31.986 49.828-53.884 70.64a102.815 102.815 0 01-17.336 14.286 51.422 51.422 0 00-1.964-8.256c-.516-1.552-2.044-3.68-3.746-3.772a33.596 33.596 0 001.42-11.84 6.15 6.15 0 00-.822-3.674 1.703 1.703 0 00-2.176-.486c1.442-9.53.23-4.324 3.028-20.8 4.318-25.422 7.644-51.358 7.262-77.364zM127.947 47.63a39.788 39.788 0 0117.254-12.412 33.978 33.978 0 0127.298.874c11.242 5.75 17.552 17.85 19.98 29.8 3.538 17.4 2.7 47.04.912 65.106-2.676 27.002-5.868 40.35-7.342 51.488-.4 2.93-1.4 12.122-1.68 12.482a189.506 189.506 0 00-5.07-24.322 193.57 193.57 0 00-23.2-51.58 281.71 281.71 0 00-18.336-24.38 54.442 54.442 0 00-10.264-9.71 113.01 113.01 0 00-7.838-5.696c.94-9.8 2.524-23.518 8.286-31.65zm-32.97 119.094c-4.85-7.018-20.082-29.384-24.724-37.498a54.218 54.218 0 01-7.424-19.946 32.74 32.74 0 0137.512-36.48c10.44 1.622 19.084 7.62 27.272 14.2 4.572 3.67 6.824 5.504 14.188 15 3.776 4.876 9.432 12.2 13 17.816a187.155 187.155 0 0125.4 60.702 89.226 89.226 0 012.748 16.554l-2.506 3.954a52.594 52.594 0 001.068-9.706 10.615 10.615 0 00-.966-6.154 3.651 3.651 0 00-4.354-1.388c-9.74 3.8-12.542 14.768-18.096 23.648-.906 1.452-2.014 3.2-4.016 2.78-1.454-.3-2-1.954-2.2-3.242-.4-4.884.722-5.58.716-13.278a8.071 8.071 0 00-1.314-4.512 5.19 5.19 0 00-4.672-1.712c-3.97.558-5.924 4.42-6.892 7.87a46.11 46.11 0 01-7.5 16.942c-12.28-11.614-27.388-31.292-37.24-45.55zm20.558 68.514a186.721 186.721 0 0017.2-21.084 58.24 58.24 0 006.35-11.534c2.052-5.116 1.916-9.214 4.658-12.05 1.574-1.632 4.682-2.532 6.354-.488.512.736.82 1.594.896 2.488.494 5.248-.68 8.092-.706 12.952a7.404 7.404 0 001.554 5.06 4.1 4.1 0 005.148.468 14.135 14.135 0 003.692-5.07c4.1-7.314 7.214-16.144 14.328-20.03a5.075 5.075 0 012.892-.916c1.276.18 1.918 1.644 2.03 2.776a50.864 50.864 0 01-2 17.212.754.754 0 001.37.576c1.4-2.228 2.878-4.412 4.232-6.672a51.283 51.283 0 012.1-3.258c.27-.39.643-.695 1.078-.882.6-.15.704.516.764.966a30.932 30.932 0 01-1.634 14.6c-.27.762.734 1.178 1.254.73 1.174-1.012 2.644 1.648 2.918 2.476a56.428 56.428 0 01-8.236 50.956A103.883 103.883 0 01171.737 276c-7.268 7.32-16.56 16.946-34.104 32.966-15.622 14.262-27.62 24.82-45.734 33.472-10.534 5.032-18.958 5.486-28.6 2.422-11.906-3.782-19.498-12.94-21.062-21.2-.4-2.068-.8-4.132-1.03-6.224-1.308-11.524.104-24.6 1.886-36.12 26.538 0 23.45.09 24.414 0 .56-.054.852-.53 1.224-.908 6.47-6.59 26.42-23.46 46.804-45.17zm-15.346-8.4a53.407 53.407 0 015.494 3.8c2.14 1.626 6.924 5.15 7.148 5.32-12.018 12.988-45.388 43.686-45.588 43.866H43.34s2.966-16.318 4.856-24.4c1.786-7.624 3.454-15.866 8.468-22.12a29.278 29.278 0 019.492-7.718c3.43 2.576 7.916 5.174 11.028 1.656a7.824 7.824 0 001.676-5.264 38.083 38.083 0 0121.33 4.86zm-32.418-2.012a33.521 33.521 0 019.47-2.684c.144 2.788-1.424 5.67-4.29 5.264a11.29 11.29 0 01-5.18-2.58zM17.72 251.842a46.82 46.82 0 012.772-13.156 140.484 140.484 0 0133.13-54.124c6.528-6.642 13-13.088 21.24-8.096a20.4 20.4 0 017.724 9.656 167.372 167.372 0 016.216 20.154c1.122 4.508 1.566 7.2 3.506 15.71-16.978-5.066-35.534 2.098-41.752 19.4a252.017 252.017 0 00-7.858 33.248 30.1 30.1 0 01-11.35-3.4C23.245 267.04 17.25 261 17.72 251.842z" fill="#5DD89E"/><path d="M332.8 304c1.044-.846 2.562-1.922 2.072-3.472a2.968 2.968 0 00-2.186-1.7 16.89 16.89 0 00-16.254 5.46c-1.13 1.4-1.67 3.374.046 4.58a7.132 7.132 0 005.738.374A26.733 26.733 0 00332.8 304zm-15.626 3.52c-.682-.626-.158-1.6.318-2.172a15.21 15.21 0 017.822-4.952 13.455 13.455 0 017.454.042c.25.098.654.332.7.622a.964.964 0 000 .152s-.08.226-.108.274a7.36 7.36 0 01-1.612 1.454 24.303 24.303 0 01-12.046 5.2 3.647 3.647 0 01-2.52-.624l-.008.004zm20.119-152.754c1.814 1.28 3.882.098 5.34-1.146a21.413 21.413 0 005.728-10.092 9.22 9.22 0 00.254-5.934 5.405 5.405 0 00-2.724-3.182 5.423 5.423 0 00-4.178-.294 5.967 5.967 0 00-3.678 3.662 45.667 45.667 0 00-2.464 11.656 5.577 5.577 0 001.722 5.33zm-.224-5.33a54.257 54.257 0 011.58-8.8c.27-1.316.784-2.569 1.514-3.696a4.063 4.063 0 016.138-.358 5.407 5.407 0 011.094 4.528c-.856 4.226-4 11.838-8.184 12.714a2.038 2.038 0 01-1.924-1.386c-.322-.966-.396-2-.218-3.002zm-116.28 3.702c3.788 1.978 8.248-1.726 8.238-6.166a5.555 5.555 0 00-3.386-5.452 5.709 5.709 0 00-6.342 2.56c-1.776 2.95-1.338 7.32 1.49 9.058zm3.694-10.326c3.64.2 4.6 7.242-.348 9.166a3.036 3.036 0 01-3.858-1.55c-1.572-3.41.396-7.828 4.206-7.616zM99.532 277.426c.023.022.047.044.072.064.014.03.028.06.046.088a6.414 6.414 0 006.386 2.074c5.898-1.464 7.724-9.524 4.524-12.73-4.96-4.968-17.76 1.616-11.028 10.504zm4.04-10.238c2.34-.908 5.734-.456 6.688 1.92a7.362 7.362 0 01-3.302 8.626c-3.094 1.704-6.918-.174-7.784-4.466a5.691 5.691 0 014.398-6.08zM292.785 218c1.752.552 4.012.8 5.048 2.534 1 1.674-.448 3.018-2.016 3.43a7.386 7.386 0 01-8.138-4.096c-.4-.86-1.716-.118-1.294.756a8.955 8.955 0 007 4.948c2.676.322 6.776-1 6.248-4.414-.64-4.128-5.612-3.624-8.918-5.762-2.06-1.332-3.944-3.576-2.694-6.054a4.23 4.23 0 013.654-2.182 4.213 4.213 0 013.706 2.09c.116.13.23.26.344.4a6.67 6.67 0 003.6 2.55c1.719.242 3.469.106 5.128-.4a4.572 4.572 0 003.47-2.8 6.181 6.181 0 00-.444-4.466c-3.066-6.082-9.09-6.632-10.382-9.684a3.427 3.427 0 011.442-4 8.35 8.35 0 0110.044.854c.876.572 1.738-.476 1.062-1.06a10.478 10.478 0 00-9.248-2.316c-2.78.668-5.58 3.218-4.926 6.324.616 2.938 3.866 4.156 6.104 5.61 1.389.9 2.615 2.029 3.626 3.338a6.536 6.536 0 011.442 4.342c-.236 1.746-1.834 2.272-3.348 2.564-3.71.714-4.716.382-7-2.468a5.933 5.933 0 00-5.636-2.308 5.34 5.34 0 00-3.672 2.436 5.336 5.336 0 00-.602 4.364 9.436 9.436 0 006.4 5.47zm73.704-21.51a2.639 2.639 0 01-3.258-.136 13.145 13.145 0 01-1.958-3.072 4.459 4.459 0 00-2.18-1.862 2.575 2.575 0 00-3.246 1.118c-.424.862.87 1.624 1.296.756.388-.8 1.42-.654 2.02-.188a7.98 7.98 0 011.756 2.626c2.872 5.14 8.768 2.304 8.07-2.058-.382-2.4-2.51-4.2-2.498-6.704a2.584 2.584 0 011.304-2.238 1.759 1.759 0 011.986.528c1.6 1.556 1.358 4.136 4.3 5.844.879.525 1.918.712 2.924.525a4.195 4.195 0 002.54-1.541 5.54 5.54 0 00-.334-5.89c-1.266-2.29-3.176-4.21-1.982-6.6 1.106-1.922 3.896-.89 5.284.544.672.694 1.718-.354 1.058-1.06a6.064 6.064 0 00-5.39-1.912c-2.676.624-3.42 3.816-2.15 6.482 1.114 2.338 3.71 4.892 2.322 7.524a2.579 2.579 0 01-2.734.928c-2.526-.664-2.846-3.4-4.182-5.2-2.986-4.03-8.482-.638-5.57 5.376.898 1.854 2.912 4.52.622 6.21zm-48.287 124.358a5.383 5.383 0 00-2.694-.47c-2.073.046-4.118.48-6.03 1.28a4.599 4.599 0 00-2.938 4.826 4.195 4.195 0 005.834 2.856 15.948 15.948 0 005-3.688c.548-.466 1.05-.984 1.496-1.548a2.136 2.136 0 00-.668-3.256zm-.502 2.328a21.351 21.351 0 01-2.824 2.752 10.001 10.001 0 01-2.902 1.966c-1.458.508-3.458.302-3.92-1.456a3.028 3.028 0 011.928-3.368 13.509 13.509 0 014.5-1.132c.776-.062 4.162-.316 3.228 1.238h-.01zm47.902-62.02a4.141 4.141 0 00-1.94.134c-.626.2-1.194.546-1.66 1.01a6.708 6.708 0 00-2.372 3.626 3.583 3.583 0 002.15 4.17c3.114 1.272 5.74-1.714 5.686-5 .058-1.462-.226-3.444-1.864-3.94zm-3.068 7.646c-4.744-1.986 3.082-9.078 3.372-5 .584 3.436-1.676 5.708-3.37 4.998l-.002.002zM72.801 256.036a.747.747 0 00-.742-.345.74.74 0 00-.61.545.75.75 0 00.058.556c1.734 3.156 5.784 10.328 6.036 10.778a.739.739 0 00.32.283c.131.062.278.083.422.062a.74.74 0 00.61-.545.75.75 0 00-.058-.556s-5.764-10.334-6.036-10.778zm98.024-27.344l7.528-16.15c.4-.87-.886-1.632-1.294-.758l-7.528 16.152c-.406.864.886 1.63 1.294.756zm11.632 5.882a69.989 69.989 0 004-14.136c.162-.944-1.282-1.35-1.446-.4a69.989 69.989 0 01-4 14.136c-.36.898 1.09 1.286 1.446.4zm-151.23-99.588l15-4.948c.912-.3.522-1.748-.4-1.444l-15 4.946c-.912.302-.52 1.75.4 1.446zm35.415-81.742l-8.548-9.14c-.66-.706-1.718.356-1.06 1.06l8.548 9.14c.66.706 1.72-.356 1.06-1.06zm111.785-28.888l-1.07-13.636c-.076-.956-1.574-.964-1.5 0l1.07 13.636c.074.956 1.574.964 1.5 0zm96.818 32.924l6.938-13.486c.44-.856-.852-1.616-1.294-.758l-6.938 13.486c-.44.856.85 1.616 1.294.758zm61.09 119.212l12.098-2.738c.94-.214.542-1.66-.4-1.446l-12.098 2.738c-.934.214-.534 1.658.4 1.446zM314.14 109l11.368-7.136c.816-.512.064-1.81-.756-1.296l-11.368 7.138c-.816.518-.064 1.816.756 1.294zM57.036 285.698a65.434 65.434 0 00-10.302 17.754c-.348.9 1.102 1.29 1.446.4a63.22 63.22 0 019.918-17.092c.602-.744-.452-1.812-1.062-1.062zm272.501-58.74l23.266 26.242c.642.722 1.698-.34 1.06-1.06l-23.26-26.242c-.646-.722-1.704.34-1.066 1.06zm3.32-3.096l23.746 26.468c.646.72 1.704-.342 1.06-1.06l-23.746-26.47c-.644-.718-1.702.346-1.06 1.062zm3.041-3.95c-.738.6.304 1.65 1.038 1.072l.024-.012a20.075 20.075 0 0119.934-2.166 13.64 13.64 0 018 15.854 27.1 27.1 0 01-5.142 10.686c-.6.746.438 1.832 1.046 1.08a29.678 29.678 0 005.254-10.222 15.035 15.035 0 00-7.284-18.114 21.513 21.513 0 00-22.87 1.822zm-86.316 145.994c.886.376 1.274-1.092.4-1.446a3.113 3.113 0 01-1.414-3.832 3.395 3.395 0 013.4-2.188 3.707 3.707 0 012.642 2.046 2.651 2.651 0 01.31 2.112 3.98 3.98 0 01-1.614 1.938.706.706 0 00-.334.648.711.711 0 00.349.654.714.714 0 00.741-.008 4.765 4.765 0 002.466-4.254 5.451 5.451 0 00-2.432-3.846 4.687 4.687 0 00-7.2 3.484 4.485 4.485 0 002.686 4.692z" fill="#5DD89E"/></svg>