<svg width="400" height="400" fill="none" xmlns="http://www.w3.org/2000/svg"><path d="M304.856 304.154a36.624 36.624 0 00-6.38-15.416 8.339 8.339 0 00-5.07-3.8.754.754 0 00-.552.23.774.774 0 00-.226.554 112.564 112.564 0 015.25 19.906 188.72 188.72 0 012.47 33.722c0 .102.02.202.06.296.038.096.096.18.168.252a.758.758 0 00.55.228 8.301 8.301 0 002.312-.508 5.25 5.25 0 002.544-2.512 15.321 15.321 0 001.304-6.508c-.014-9.558.262-14.342-2.43-26.444zM181.35 364.222a120.445 120.445 0 01-22.39 3.78c-8.12.586-16.268.692-24.4.316-13.174-.628-13.4-1.516-13.748-.626a.71.71 0 00-.1.4 8.673 8.673 0 00.3 2.436 5.909 5.909 0 002.64 3.168 17.389 17.389 0 007.144 2.026c6.666.818 13.386 1.11 20.1.868a104.13 104.13 0 0018.58-2.722 32.209 32.209 0 008.044-3.576 9.64 9.64 0 004.78-5.106.783.783 0 00-.201-.752.79.79 0 00-.749-.212zm145.961-184.898a5.232 5.232 0 012.542-.676 92.59 92.59 0 0110.046-9.848c2.722-2.292 5.862-4.78 9.526-5.166a7.78 7.78 0 017.95 5.178c1.914 4.552.376 9.378-1.412 13.846-1.378 3.44-2.676 6.098-4.48 9.988a451.783 451.783 0 01-25.506 47.38c-.306.494-.18-.06-.8 3.89a.728.728 0 00.4-.308 478.656 478.656 0 0014.184-24.228c7.706-14.148 14.822-29.416 17.174-35.036 1.972-4.712 3.88-9.82 2.312-14.906a10.084 10.084 0 00-6.952-7.18c-4.2-.956-8.274 1.316-11.47 3.8a86.949 86.949 0 00-13.514 13.266zM62.921 83a.776.776 0 00.724.6 5.54 5.54 0 015.468 3.532 28.965 28.965 0 011.834 14.224c-.178 2.906-.46 5.32-2.296 7.108l-.036.04-.026.02a6.998 6.998 0 01-6.74 1.626c-4.732-1.35-5.656-6.936-7.152-14-.2-.936-1.424-.586-1.528.2a31.256 31.256 0 01-5.12 13.772 6.567 6.567 0 01-2.274 2 7.598 7.598 0 01-7.72-1.246 8.673 8.673 0 01-2.4-6.568 29.342 29.342 0 01.982-8.674c.222-.848-1.08-1.4-1.42-.6-2.64 6.18-4.648 12.674-8.984 14.684a9.05 9.05 0 01-6.724.32 5.666 5.666 0 01-3.634-6.49 53.017 53.017 0 013.146-9.54 46.19 46.19 0 012.72-6.448.78.78 0 00-1.324-.824c-.432.8-.814 1.6-1.176 2.43-.038.088-4.056 10.76-4.094 10.872-1.212 3.526-1.438 7.49 1.364 10a9.623 9.623 0 008.486 1.74c4.87-1.262 7.142-5.482 9.12-10.092-.062 3.264-.12 7.328 2.388 9.86a9.175 9.175 0 008.636 2.4 9.529 9.529 0 005.728-5.324 32.216 32.216 0 003.118-8.274 20.783 20.783 0 003.542 8.74 8.385 8.385 0 0011.326 1.254 9.01 9.01 0 003.51-7.308c.5-4.44.284-8.928-.648-13.296a13.265 13.265 0 00-2.814-5.676 7.678 7.678 0 00-5.256-2.026.8.8 0 00-.726.964z" fill="#5DD89E"/><path d="M37.754 90.156c.286-1.6.538-3.76.564-4.02.1-1-1.454-.988-1.554 0-.08.762-.474 3.4-.51 3.6-.176.984 1.32 1.404 1.5.42zm17.505-3.984c-.28 1.156-.762 3.164-1.042 4.782-.168.98 1.33 1.4 1.5.412.292-1.686.844-4.032 1.042-4.78a.778.778 0 10-1.5-.414zm44.158 137.694c.814.584 1.6-.764.784-1.342l-10.218-7.338c-.816-.584-1.6.764-.786 1.344l10.22 7.336zm72.385-4.826v24.626a.779.779 0 001.556 0V219.04a.78.78 0 00-1.556 0zm79.999 17.684c.179.102.39.13.588.078a.78.78 0 00.196-1.422 45.529 45.529 0 01-7.674-5.642c-.732-.682-1.834.416-1.1 1.1a40.88 40.88 0 007.99 5.886zm30.586 72.086l-31.918-7.522.744-6.588c.078-.684-.892-1-1.328-.55l-3.834 4.028a55.305 55.305 0 01-10.226-15.824 615.788 615.788 0 01-14.678-32.52c-.476-.942-1.48-.6-1.524.2-.028.54 12.97 30.588 18.968 40.944a37.385 37.385 0 006.986 8.914.802.802 0 001.036.026 34.168 34.168 0 012.8-3.02l-.53 4.672a1.057 1.057 0 00.597 1.077c.133.062.278.095.425.097l32.072 7.558c.97.236 1.386-1.262.41-1.492zm-69.587-7.928c-2.564-7.314-9.51-25.154-10.188-26.728-.4-.916-1.734-.126-1.342.784 0 0 2.354 5.956 2.936 7.456-18.22 5.646-18.47 7.2-41.308 21.4a.775.775 0 00-.376.67.787.787 0 00.376.672 74.861 74.861 0 016.434 4.234c-5.752 1.342-7.276 1.47-7.42 2.3 0 0-7.646 34.078-8.3 36.8-.236.976 1.29 1.362 1.5.414 1.968-8.988 7.58-33.65 8.234-36.526 1.084-.19 6.95-1.588 8.022-1.866a.806.806 0 00.344-.204.794.794 0 00.198-.748.788.788 0 00-.198-.348 70.175 70.175 0 00-6.94-4.748c21.528-13.678 22.11-15.07 39.982-20.6.664 1.76 6.07 16.114 6.546 17.444.338.954 1.814.498 1.5-.406zM76.889 129.14c-4.4-7.562-11.338-14.718-20.15-14.37-6.2.246-12.734 4.32-17.328 8.4a6.554 6.554 0 00-2.646 5.505 6.552 6.552 0 003.046 5.295c3.296 2.266 8.744 1.96 12.6.856a70.57 70.57 0 00-16.43 17.458c-.556.836.8 1.616 1.342.786a69.092 69.092 0 0120.66-20.214.783.783 0 00-.712-1.384 42.628 42.628 0 01-6.214 2.086 15.033 15.033 0 01-9.4-.336 5.32 5.32 0 01-3.35-4.75 5.446 5.446 0 012.12-4.132 38.747 38.747 0 014.716-3.6 22.467 22.467 0 0111.134-4.368c8.368-.55 15.2 6.228 19.258 13.564a.782.782 0 001.075.279.786.786 0 00.279-1.075zm129.313 8.274c-1.722-1.644-4.532-1.328-6.706-1.284-5.965.134-11.917.628-17.822 1.48a45.24 45.24 0 00-11.526 3.088 75.72 75.72 0 0126.91-12.296c.974-.228.562-1.728-.414-1.5a77.256 77.256 0 00-27.952 12.932 27.202 27.202 0 00-10.426 14.716 23.27 23.27 0 00-.5 9.056 7.5 7.5 0 00-1.482 1.084c-.73.69.37 1.784 1.1 1.102a5.884 5.884 0 015.286-1.468c.166.04.34.02.494-.056a.798.798 0 001.084.441.804.804 0 00.328-.281 5.117 5.117 0 013.567-2.364 5.12 5.12 0 014.117 1.164c.744.666 1.842-.426 1.1-1.1a6.71 6.71 0 00-5.13-1.63 6.718 6.718 0 00-4.68 2.66.63.63 0 00-.466-.332 7.804 7.804 0 00-4.762.504 8.857 8.857 0 019.68-7.686 9.537 9.537 0 017.958 7.906c15.58-3.728 17.822-4.374 22.132-5.766 3.668-1.184 6.144-4.772 3.8-7.736-1.46-1.624-4-1.44-7.516-1.588 7.782-2.83 9.104-3.112 10.786-4.42a4.946 4.946 0 001.504-1.8 3.962 3.962 0 00-.464-4.826zm90.399 227.094h-22.678a.77.77 0 00-.738.776.77.77 0 00.738.778h22.678a.778.778 0 00.689-.487.78.78 0 00-.689-1.067zm11.015-6.962l-22.03-.744c-1-.034-1 1.52 0 1.554l22.03.744c1.002.034 1-1.52 0-1.554zm-77.76-2.758a.78.78 0 000 1.556h20.58a.779.779 0 000-1.556c-12.612-.214-13.37-.122-20.58 0zM49.423 36.292c1.09 4.34 3.898 14.8 3.898 14.8a.78.78 0 101.5-.414c-1.09-4.34-3.898-14.8-3.898-14.8a.78.78 0 00-1.5.412v.002zm16.23-12.438L59.51 50.62c-.224.974 1.276 1.4 1.5.414l6.142-26.766c.225-.974-1.273-1.39-1.498-.414z" fill="#5DD89E"/><path d="M157.474 165.884c.17-.16.35-.31.538-.45.754 3.142 1.288 6.22 4.8 8.588a9.164 9.164 0 0012.942-5.558 62.548 62.548 0 005.018 1.928c34.118 11.176 58.22-26.2 89.492-20.71 11.548 2.03 19.424 10.466 29.04 16a41.123 41.123 0 0016.32 4.8.918.918 0 00.908-.906c.176-36.292-.564-79.236-.2-98.04 0-.544-.344-.684-.666-.876-18.6-7.432-39.098-13.73-59.29-10.012-18.522 3.4-34.334 17.276-52.64 13.012-15.528-3.616-25.974-17.53-41.032-22.334-14.018-4.474-28.774-.306-41.96 6.22a130.824 130.824 0 00-16.036 9.094c-.7.464-1.898.926-2.014 1.846 0 3.66.2 27.55.548 95.876a.917.917 0 00.913.902.91.91 0 00.453-.12 47.676 47.676 0 0117.042-7.06A62.743 62.743 0 01157.4 160c-.016 1.18.062 2.36.236 3.53a7.58 7.58 0 00-1.454 1.076c-.842.794.444 2.082 1.292 1.28v-.002zm6.89 6.914c-3.07-1.332-4.172-4.868-4.422-7.978v-.296c3.18-.858 3.978 1.28 4.746-.02a5.003 5.003 0 013.47-2.302 4.999 4.999 0 014.01 1.124c.848.8 2.15-.496 1.284-1.28a6.833 6.833 0 00-9.916.9c-.508-.54-2.566-.444-3.362-.31a7.164 7.164 0 016.692-5.4 7.945 7.945 0 017.55 7.5c.434 5.78-5.268 10.128-10.052 8.062zm11.274-10.898a9.51 9.51 0 00-7.612-6.376 8.765 8.765 0 00-8.826 4.636 19.262 19.262 0 013.331-11.068 19.261 19.261 0 019.069-7.166c8.4-3.324 18.988-3.716 27.508-4.106a30.782 30.782 0 013.96.032 2.806 2.806 0 012.386 1.376 2.997 2.997 0 01-.77 2.986 17.037 17.037 0 01-6.544 3.086l-7.964 2.9a.91.91 0 00.242 1.782l5.8.244c1.324.054 3.2-.13 4.272.816a2.526 2.526 0 01-.132 3.364 8.464 8.464 0 01-4.136 2.244c-3.71 1.206-16.858 4.364-20.584 5.244v.008-.002zm138.786 6.566a42.53 42.53 0 01-20.424-8.34c-5.94-4.218-11.776-8.78-18.8-11.076-15.364-5.03-31.492 2.04-44.96 9.128-19.494 10.262-34.33 17.3-54.11 8.48.144-1 .128-2.02-.044-3.016 4.311-1.033 8.618-2.085 12.92-3.156 3.08-.68 6.094-1.612 9.094-2.58a7.709 7.709 0 004.184-3.164 4.211 4.211 0 00-.322-4.79c-1.456-1.614-3.948-1.474-6.95-1.6 7.15-2.6 8.462-2.874 10.176-4.2 20.154-2.718 41.182-15.336 64.902-12.78 15.576 1.68 28.872 10.16 44.318 15.752l.016 21.342zm-209.908-99.5a132.545 132.545 0 0120.118-11.232c42.026-18.82 51.766 8.722 75.332 16.728 14.8 4.828 26.168-.878 40.2-6.72 18.04-7.516 34.8-10.466 69.226 2.446 1.686.632 3.36 1.29 5.032 1.954v20.33c-8.096-5.2-15.1-9.666-24.348-11.748-10.382-2.308-25.84-2.44-36.69 2.056-6.884 2.904-13.092 7.264-20.21 9.636a64.14 64.14 0 01-48.346-3.448c-11.854-5.82-22.316-15.42-35.896-16.578-15.848-1.352-31.064 7.83-44.304 16.6-.03-5.904-.11-19.26-.114-20.026v.002zm.128 22.27a154.328 154.328 0 0118.308-10.86 56.123 56.123 0 0121.554-6.256c15.632-.67 27.134 10.88 40.474 17.012a65.474 65.474 0 0053.756 1.074c6.846-3.106 11.668-6.624 18.658-8.948 7.738-2.574 20.882-3.418 33.342-.512 8.66 2.176 16.212 7.2 23.688 11.976v22.12c-5.708-2.938-11.504-5.954-17.5-8.34-27.342-11.26-41.4 1.07-61.586 6.5a103.22 103.22 0 01-44.498 1.65c-8.298-1.574-16.2-4.704-24.224-7.3a80.066 80.066 0 00-16.154-3.848c-14.688-1.66-32.426 3.304-45.68 9.844-.044-7.69-.122-21.696-.138-24.112zm.156 26.14c12.6-6.268 26.968-10.692 41.134-10.358 14.166.334 26.912 7.332 40.452 10.58a101.42 101.42 0 0021.332 2.494c31.4.71 43.894-11.352 62-13.912 16-2.26 30.522 5.42 44.706 12.786v26.22c-12.912-4.8-25.058-11.908-38.634-14.772-25.43-5.36-49.348 8.514-68.89 11.662a3.993 3.993 0 00-.616-4.758c-1.716-1.71-4.582-1.37-6.8-1.32-5.978.107-11.942.601-17.856 1.48a47.628 47.628 0 00-10.6 2.706 75.544 75.544 0 0126.054-11.654c1.136-.264.656-2.014-.482-1.75a76.565 76.565 0 00-27.946 12.91 223.34 223.34 0 00-21.896-4.946c-16.286-2.58-27.46-.858-41.848 4.514-.028-6.51-.11-21.884-.11-21.884v.002zm52.71 40.752c-17.31-6.506-39.85-3.458-52.456 4.554l-.124-21.46c25.238-10.136 42.228-4.964 61.974-.074a25.203 25.203 0 00-9.394 16.98zM285.132 282.34c-13.668-2.736-25.826-4.16-26.688-4.42a5.412 5.412 0 01-1.162-1.254 347.302 347.302 0 01-22.444-27.924c-.42-.584-.964-1.782-1.684-2a32.038 32.038 0 00-7.254.388c-19.06 2.988-47.622 15.054-64.8 24a120.86 120.86 0 00-15.934 10.092c-7.668 5.528-8.028 9.702-9.972 18.844-1 4.674-9.272 47.63-9.78 49.756a.921.921 0 00.66 1.12c.176.044 9.056.028 57.924.028a.93.93 0 00.874-.666c3.112-10 5.832-21.716 8.2-32.658.026-.12.118-.358.152-.548 5.848-4.544 13.6-10.536 18.61-13.854 2.62 5.2 5.286 10.426 8.228 15.458a23.106 23.106 0 007.017 7.72 23.105 23.105 0 009.699 3.844c2.294.5 36.34 6.724 42.872 8.224a.92.92 0 001.048-.476.952.952 0 00.1-.398c1.25-16.708 3.564-27.906 5-54.4a.848.848 0 00-.666-.876zm-92.73 33.118c-1.12.872-.8.512-1.6 4.048-1.956 8.87-4.812 20.94-7.484 29.654h-28.2a.828.828 0 00.11-.242c9.518-38.232 8.096-36.414 8.296-36.466 2.624-.61 5.262-1.158 7.87-1.834a.92.92 0 00.631-.645.917.917 0 00-.231-.873 69.62 69.62 0 00-6.784-4.658c21.426-13.616 22.076-15 39.676-20.434a6202.203 6202.203 0 016.558 17.452c-6.532 4.272-12.694 9.194-18.842 13.998zm86.674 21.076c-17.068-3.496-40.428-7.244-45.92-9.05-8.942-2.94-12.078-10.548-15.412-16.786-3.95-7.4-4.464-8.726-4.834-9.292.18-.434.2-.308-3.528-10.172-1.6-4.258-6.034-15.698-6.656-17.146a.908.908 0 00-1.242-.326.933.933 0 00-.324 1.24s2.378 6.014 2.878 7.308a109.934 109.934 0 00-16.072 5.932c-5.244 2.564-7.384 4.166-25.132 15.44a.898.898 0 00-.414.566.923.923 0 00.108.694c.352.578 1.672.8 6.5 4.366-6.45 1.506-6.19 1.372-6.434 1.686a.777.777 0 00-.8.642l-8.528 37.524c-3.114 0-25.454-.03-25.842-.042 3.642-16.628 6.768-36.318 10.266-51.976 2.142-9.6 3.498-11.056 12-16.96a166.045 166.045 0 0127.424-14.748 259.018 259.018 0 0142.4-15.234c.448 1.726 13.844 32.176 18.966 40.852a36.608 36.608 0 007 8.94.942.942 0 001.228.018.943.943 0 00.26-.358l2.264-2.378-.488 4.304c-.018.582.878 1.248 1.118 1.3 10.692 2.3 21.294 5.016 31.94 7.526-.6 5.666-2.488 23.08-2.728 26.13h.002zm2.926-27.948l-31.4-7.4.736-6.488c.09-.8-1.042-1.174-1.55-.642L246.05 298a55.086 55.086 0 01-10.112-15.704 619.231 619.231 0 01-14.664-32.486 46.166 46.166 0 0111.168-1.306 364.693 364.693 0 0023.56 29.444c.4.552.858 1.06 1.364 1.516a4.092 4.092 0 001.714.376c10.968 1.644 13.078 1.764 24.862 4.112-.472 8.224-1.1 16.448-1.94 24.634zm19.123 31.666a8.368 8.368 0 002.378-.526 5.472 5.472 0 002.59-2.558 15.985 15.985 0 001.322-6.572 98.195 98.195 0 00-2.436-26.478 36.206 36.206 0 00-6.4-15.446 8.51 8.51 0 00-5.178-3.872.936.936 0 00-.642.27.908.908 0 00-.264.644 115.51 115.51 0 015.254 19.94 187.502 187.502 0 012.464 33.688.909.909 0 00.912.91zm-6.106-52.774a13.09 13.09 0 012.104 2.246 32.597 32.597 0 015.726 13.324 90.845 90.845 0 012.762 25.458 26.264 26.264 0 01-.55 6.322 4.543 4.543 0 01-2.554 3.35 7.107 7.107 0 01-.472.122c.19-16.066-1.682-35.792-7.016-50.822z" fill="#5DD89E"/><path d="M10.908 135.27c3.036 0 6.07.02 9.106.04a91.34 91.34 0 007.352 23 153.515 153.515 0 0038.98 52.688c20.852 17.39 43.6 25.838 70 31.772 11.704 2.632 23.29 4.454 35.316 5.97-.015 2.827-.023 5.653-.024 8.48a.908.908 0 00.571.839.92.92 0 00.351.067c.584 0 15.324-5.722 21.62-8.056 34.432-13.262 50.186-7.116 90.718-4.898a.924.924 0 00.906-.908c1.98-15.452 3.6-35.362 5.166-47.516a.916.916 0 00-.666-.876c-47.154-8.788-77.48-1.928-113.326-2.612a153.535 153.535 0 01-41.14-5.568 87.513 87.513 0 01-38.316-22.932.907.907 0 00.365-.054.91.91 0 00.527-.493.922.922 0 00.078-.361c.34-76.428.094-92.078-.292-95.49-.152-1.336-.54-1.316-1.844-1.36-1.838-.064-6.48-.034-18.58.06a.92.92 0 00-.908.908c0 4.8.022 17.33.048 29.894h-4.188a28.573 28.573 0 00-1.348-9.548 9.9 9.9 0 00-3.2-5.048 9.69 9.69 0 00-12.226 2.188 9.4 9.4 0 00-5.34-6.014c-4.032-1.76-9.684-.2-12.926 5.1-1.08-3.928-5.6-5.516-9.2-4.672-7.838 1.6-10.18 11.556-12.7 18.012-2.552 0-3.834-.02-4.514 0-1.2.026-1.252.42-1.31 1.182-.152 2-.16 9.092.02 35.306a.92.92 0 00.922.9h.002zm122.88 53.682a125.995 125.995 0 0026.454 5.19c44.654 4.048 74.552-6.44 128.816 3.35-1.766 13.97-3.432 33.514-4.96 45.818-17.562-1-33.962-3.102-47.35-3.302-25.038-.414-39.956 7.47-63.3 15.916 0-2.656.054-5.312.022-7.968a.934.934 0 00-.906-.908 352.075 352.075 0 01-38.778-6.736v-51.36h.002zM96.212 68.876s.4 93.07.426 94.068H78.85c0-12.24-.166-87.268-.166-94.068h17.528zM77.946 164.76h17.1a87.805 87.805 0 0036.808 23.546s-.018 51.2-.028 51.538a199.163 199.163 0 01-31.72-10.4 132.52 132.52 0 01-29.4-17.2c-27.2-21.76-45.4-55.77-48.868-76.944 15.372.18 21.234.228 21.4.268 2.894.436 5.846.266 8.67-.5a70.61 70.61 0 00-16.038 17.164c-.648.974.922 1.884 1.566.914a69.658 69.658 0 0120.708-20.272.898.898 0 00-.17-1.506.894.894 0 00-.586-.068c-.62.072-7.4 3.6-13.64 2.48-.38-.19-5.136-.816-5.3-5.314a5.312 5.312 0 012.08-4.04 38.032 38.032 0 014.69-3.586 21.518 21.518 0 0110.6-4.318 15.788 15.788 0 0110.4 2.862A35.554 35.554 0 0177 133.028c0 3.174.042 23.722.044 30.824a.922.922 0 00.902.908zM16 103.62A40.69 40.69 0 0118.8 95c1.588-4.48 3.242-9.764 7.576-12.36a7.54 7.54 0 017.282-.42c2.51 1.466 3.02 4.372 2.46 7.484-.2 1.142 1.542 1.632 1.75.482.18-.988.32-1.98.44-2.976 1.64-4.124 6.09-7.7 10.906-6.372 4.8 1.63 5.726 5.116 4.87 10.08-.2 1.14 1.55 1.63 1.75.48.224-1.298.504-2.58.82-3.858a8.153 8.153 0 019.952-3.13 6.82 6.82 0 012.872 3.972 21.98 21.98 0 011.216 5.234 41.389 41.389 0 01-.516 12.134 6.704 6.704 0 01-10.54 3.16c-2.868-2.26-3.932-8.58-4.826-12.8a.91.91 0 00-1.78.24 30.896 30.896 0 01-5.084 13.682 6.454 6.454 0 01-2.246 1.974 7.566 7.566 0 01-7.564-1.226 8.62 8.62 0 01-2.364-6.476 26.27 26.27 0 01.98-8.638.909.909 0 00-1.75-.488c-2.68 6.216-4.552 13.8-10.784 15.044a8.136 8.136 0 01-5.678-.768A5.697 5.697 0 0116 103.62zm-4.186-3.924h3.31c-1.146 3.272-1.644 6.912.57 9.68 2.968 3.704 9.182 3.6 12.8.976a17.048 17.048 0 004.86-6.646c.4-.8.6-1.344.6-1.344s-.026.334 0 1.33a11.432 11.432 0 002.46 7.95 9.399 9.399 0 008.76 2.436 9.675 9.675 0 005.8-5.384A32.602 32.602 0 0054 100.87a18.492 18.492 0 003.94 8.928 8.576 8.576 0 0013.6-2.492 20.693 20.693 0 001.172-7.618h4.216c.026 12.914.054 25.482.064 29.352a42.257 42.257 0 00-5.46-7.4c-8.63-9.16-18.13-9.084-28.29-1.74a23.211 23.211 0 00-5.464 4.74 6.645 6.645 0 001.2 8.842c-3.378-.034-10.476-.02-27.164-.034V99.696zM288.906 234.4c-1.834 5.128 1.97 10.562 8.268 11.344 3.7.47 7.428.704 11.158.702.616 0 .822-.294 1.094-2 .6-3.78 1.542-14.534 8.056-44.652.046-.776-.4-1.124-.874-1.15-6.038-.646-13.142-2.05-18.412 1.876a6.433 6.433 0 00-3.014 6.918 9.55 9.55 0 005.036 5.17 10.98 10.98 0 001.548.68 13.446 13.446 0 00-1.654.074 12.061 12.061 0 00-7.152 2.656 7.414 7.414 0 00-1.658 3.178 7.409 7.409 0 00.034 3.582 8.39 8.39 0 001.842 3.102 8.394 8.394 0 002.978 2.034c.51.262 1.04.48 1.566.704-3.842.416-7.462 1.982-8.816 5.782zm6.776-3.522a20.763 20.763 0 019.898.134c1.13.28 1.626-1.49.482-1.75a51.242 51.242 0 01-7.724-2.316c-3.57-1.524-5.97-3.3-5.292-7.104.288-3.176 3.712-4.33 6.87-4.642 3.268-.32 6.55.072 9.824 0a.908.908 0 00.642-1.548.904.904 0 00-.642-.266 23.487 23.487 0 01-7.534-1.832c-6.4-2.734-6.746-6.758-3.016-9.518a12.83 12.83 0 017.294-2.31 61.357 61.357 0 019.034.62c-3.05 14.19-6.038 30-7.956 44.258-7.748-.314-10.82-.2-14.042-2.012-4.574-2.792-4.784-9.842 2.162-11.722v.008zM120.586 368.082a8.779 8.779 0 00.306 2.472 6.158 6.158 0 002.71 3.244 18.128 18.128 0 007.21 2.044 107.186 107.186 0 0029.298-.056 40.008 40.008 0 0017.492-5.4 9.778 9.778 0 004.838-5.184.914.914 0 00-.646-1.11.936.936 0 00-.47-.006 112.059 112.059 0 01-22.352 3.77c-12.484.9-25.026.67-37.468-.69a.876.876 0 00-.854.562.875.875 0 00-.064.354zm59.2-1.702a12.676 12.676 0 01-2.83 2.264 35.851 35.851 0 01-15.302 5.082 102.037 102.037 0 01-28.638.514 29.743 29.743 0 01-7-1.268 4.736 4.736 0 01-3.578-3.894c17.914 1.868 40.034 1.79 57.364-2.698h-.016zm145.035-183.296c-6.642 43.71-5.636 37-12.32 80.8a7.186 7.186 0 00.28 4.666 4.917 4.917 0 006.126 2.318l35.048 4.586a.913.913 0 00.874-.666c.124-.8 1.87-12 2.11-13.556 3.474 6.71 9.658 5.8 11.29 1.8 1.77-4.094-.87-7.892-3.71-10.676a381.81 381.81 0 00-5.4-5.17l9.638-61.908c.068-.434-.106-1.046-.634-1.116-3.466-.47-6.94-.936-10.418-1.4 1.706-4.268 3.052-8.846 1.66-13.364a10.23 10.23 0 00-7.044-7.268c-4.242-.97-8.352 1.328-11.6 3.836a85.396 85.396 0 00-13.508 13.254 4.95 4.95 0 00-2.392 3.864zm-9.76 85.492a3.853 3.853 0 01-.85-3.95c4.268-28.02 3.982-26.45 4.184-26.748.972-1.676.426-1.074 8.674-16.22-1.376 8.4-6.554 43.146-6.718 44.422a3.187 3.187 0 01-1.059 2.471 3.2 3.2 0 01-2.571.785 3.19 3.19 0 01-1.66-.76zm19.614-87.106l20.5 2.76a455.734 455.734 0 01-28.96 55.154c1.772-11.588 3.484-22.8 3.48-22.82.106-.2 5.112-30.3 5.39-32.28a5.152 5.152 0 00-.41-2.814zm26.242 69.96c2.568 2.44 6.43 5.38 6.05 9.364a3.814 3.814 0 01-.663 2.042 3.818 3.818 0 01-1.663 1.358 4.777 4.777 0 01-4.876-1.902 18.791 18.791 0 01-2.646-4.952 87.45 87.45 0 01-4.722-14l8.52 8.09zm5.942-65.622l-9.322 59.868-5.894-5.56a.912.912 0 00-1.498.372.94.94 0 00-.002.6 73 73 0 005.43 17.2c-1.034 6.62-2.304 14.386-2.4 15.24l-32.152-4.2a8.499 8.499 0 001.332-4.648c0-.028 1.528-9.978 3.186-20.822a.885.885 0 00.156-.184 456.38 456.38 0 0014.186-24.23c7.686-14.12 14.8-29.362 17.142-34.96l9.836 1.324zm-26.858-16.92c2.694-2.268 5.8-4.742 9.432-5.128a7.662 7.662 0 017.828 5.08c1.896 4.486.388 9.252-1.372 13.674l-22.84-3.08a4.969 4.969 0 00-2.904-.92 93.302 93.302 0 019.856-9.624v-.002zm-6.834 16c-.294 1.744-4.864 29.3-5.14 30.98a1059.47 1059.47 0 00-8.888 16.502l7.226-47.374c.158-7.29 8.354-5.214 6.792-.12l.01.012zm51.734 78.166c-2.492-2.428-10.16-10.6-11.762-11.472-.816-.642-1.872.35-1.428 1.07 2.6 9.362 4.064 20.044 9.014 24.684a4.954 4.954 0 002.87 1.55 4.952 4.952 0 003.214-.566 8.271 8.271 0 002.632-9.664 15.836 15.836 0 00-4.54-5.602zm2.178 12.434a3.47 3.47 0 01-2.244 1.686 3.902 3.902 0 01-2.668-.984c-4.234-3.826-5.706-12.278-8-21.32 2.542 2.322 4.896 4.822 7.296 7.304 3.688 3.8 6.224 5.104 6.676 8.97a6.253 6.253 0 01-1.06 4.344z" fill="#5DD89E"/><path d="M89.13 216.638l10.22 7.336c.95.682 1.86-.89.916-1.566l-10.22-7.338c-.95-.672-1.846.892-.916 1.568zm84.364 27.026v-24.626a.91.91 0 00-1.533-.614.908.908 0 00-.281.614v24.626a.909.909 0 00.571.795.909.909 0 00.963-.181.916.916 0 00.28-.614zm78.236-6.832a.915.915 0 001.314-1.032.895.895 0 00-.398-.536 45.337 45.337 0 01-7.648-5.624c-.854-.8-2.14.486-1.284 1.284a43.226 43.226 0 008.016 5.908zM296.6 366.2a.898.898 0 00.614-.28.9.9 0 000-1.254.913.913 0 00-.614-.28h-22.68a.912.912 0 00-.866.908.898.898 0 00.252.626c.16.17.38.27.614.28h22.68zm-11.017-7.718l22.03.744c1.168.04 1.168-1.774 0-1.814l-22.03-.744c-1.168-.04-1.166 1.774 0 1.814zm-55.728-3.826a.912.912 0 00-.85.908.912.912 0 00.85.908h20.58a.912.912 0 00.849-.908.91.91 0 00-.849-.908h-20.58zM49.906 35.248a.908.908 0 00-.612 1.08c3.678 14.672 3.2 12.4 3.9 14.8a.908.908 0 001.748-.486l-3.898-14.8a.908.908 0 00-1.138-.594zm15.618-11.43L59.38 50.58c-.26 1.138 1.49 1.622 1.75.482l6.144-26.764c.262-1.138-1.488-1.62-1.75-.484v.004z" fill="#5DD89E"/></svg>