<svg width="616" height="616" fill="none" xmlns="http://www.w3.org/2000/svg"><path fill-rule="evenodd" clip-rule="evenodd" d="M255.993 37.692c53.904-2.403 82.597 14.976 108.893 33.48-33.336 37.866-36.929 89.11-23.239 127.597 30.242 85.007 141.616 116.448 211.956 49.228 19.976-19.093 30.812-43.661 35.472-60.463a155.042 155.042 0 011.912 97.622c-4.668 15.567-11.34 28.408-17.984 41.191-7.132 13.731-14.228 27.394-18.776 44.298-5.488 20.405-1.204 38.423 3.296 57.359 6.368 26.78 13.172 55.396-6.612 95.188-17.092 34.388-59.42 50.112-97.556 51.132-36.228.964-72.718-18.18-100.516-32.768-9.683-5.08-18.308-9.604-25.505-12.536-33.383-13.6-55.479 4.548-79.174 24.004l-.001.004-.007.008h-.005l-.004.004c-3.438 2.824-6.91 5.676-10.455 8.46-19.538 15.352-126.711 74.4-196.084-38.868-16.082-26.228-43.503-95.036-11.345-162.814 15.338-32.324 34-48.234 50.596-62.384 19.386-16.527 35.955-30.653 41.124-65.731 1.979-13.438 1.439-27.051.889-40.909-1.091-27.508-2.22-55.979 16.241-85.952a143.155 143.155 0 01116.884-67.15zm-57.107 209.266c5.066-2.44 13.047-6.285 15.204-7.179a1.154 1.154 0 011.307.469 1.154 1.154 0 01-.086 1.386c-1.316 1.319-15.39 9.171-17.536 10.358.52.661 2.155 1.796 4.006 3.082 1.566 1.086 3.286 2.281 4.619 3.388 3.508 2.902 3.547 3.354 3.621 4.232.007.073.013.149.022.229a.774.774 0 01-.797.868 3.613 3.613 0 01-1.107-.23c-2.702-1.585-5.221-3.353-7.345-4.844-2.709-1.901-4.777-3.352-5.763-3.398a145.366 145.366 0 00-1.15 15.061c-.12 1.935-.23 3.146-.966 3.679a1.96 1.96 0 01-1.122.454c-1.383 0-1.469-1.931-1.503-3.308-.116-4.781.543-13.39.724-15.638-.463.203-1.208.573-2.435 1.227-4.534 2.399-7.068 3.876-8.568 4.75-2.116 1.233-2.175 1.267-2.893 1.002a1.287 1.287 0 01-.871-1.11c-.198-2.397 6.514-5.972 11.158-8.444.803-.427 1.544-.822 2.177-1.172l-2.241-1.57c-10.503-7.357-11.921-8.35-11.866-9.254.008-.142.053-.28.104-.441l.006-.018c1.022-3.209 6.694 1.039 11.326 4.507 1.914 1.434 3.651 2.734 4.808 3.321-.018-1.064.12-4.094.945-13.249.423-4.708.371-8.322.332-10.991-.061-4.246-.088-6.103 1.891-6.18a2.161 2.161 0 011.91 1.579c.105 9.691-.305 19.38-1.227 29.028.763-.364 1.909-.917 3.27-1.572l.022-.01.018-.01.006-.002zm327.057 97.676c.176-.19.28-.432.3-.69a1.128 1.128 0 00-.184-.73 1.13 1.13 0 00-.592-.466 1.155 1.155 0 00-.748-.006c-2.44 1.009-12.268 5.756-16.972 8.024l-.008.004-1.54.745c.92-9.65 1.328-19.339 1.224-29.031a2.162 2.162 0 00-1.908-1.576c-1.98.076-1.952 1.935-1.888 6.172.04 2.671.092 6.286-.332 10.998-.824 9.15-.96 12.182-.944 13.246-1.156-.582-2.9-1.888-4.82-3.326-4.624-3.468-10.292-7.715-11.316-4.498l-.008.024c-.048.16-.096.298-.1.439-.06.904 1.364 1.901 12.016 9.355l2.088 1.462c-.576.319-1.256.678-2 1.073-4.584 2.435-11.536 6.127-11.332 8.546a1.503 1.503 0 001.796 1.196c.264-.055.504-.181.704-.362.772-.613 11.04-6.175 12.572-6.908l-.044.524-.004.021c-.352 3.947-1.532 17.104 1.34 17.104.82 0 .856-.497 1.12-4.106v-.006c.144-2.005.36-4.964.816-9.328.14-1.309.272-4.393.272-4.393.548.273 1.116.65 1.964 1.211 1.124.742 2.728 1.809 5.428 3.388.54.199 1.316.402 1.708-.018.24-.261.216-.482.188-.73-.004-.046-.012-.092-.012-.138-.08-1.04-.408-1.555-3.624-4.219-1.048-.868-1.8-1.441-2.432-1.926-.24-.184-.468-.359-.684-.527 1.388-.702 16.608-9.199 17.956-10.548zM266.049 93.512c.055.11.088.23.096.353.046 1.898-15.638 17.683-22.334 23.536.836 1.016 5.998 5.695 10.502 9.776l.024.022 2.199 1.994c4.522 4.103 4.433 4.477 4.311 4.989a.911.911 0 01-.592.613c-1.708.482-15.236-10.302-19.317-14.411-.685 3.004-1.745 14.301-2.459 21.906-.38 4.046-.662 7.048-.736 7.196a.756.756 0 01-.543.412.754.754 0 01-.35-.016.752.752 0 01-.306-.17c-2.37-2.146-1.172-13.09-.317-20.902l.001-.008c.237-2.17.449-4.097.549-5.526-.63.474-1.544 1.226-3.205 2.59-.82.674-1.822 1.498-3.062 2.512-2.505 2.058-2.646 2.359-2.998 3.11-.076.161-.162.344-.283.569-1.343 2.573-4.535-.012-3.066-3.041.898-1.848 1.375-2.239 8.122-7.762 1.156-.946 2.496-2.042 4.054-3.323.383-.315.751-.619.968-.821-.322-.28-16.468-15.534-16.572-15.969-.365-1.362.107-1.92.555-2.147 2.689-1.373 14.886 11.018 16.913 13.244.028-.307.052-.681.074-1.031.074-1.218.337-3.613.695-6.885l.001-.008c.36-3.289.817-7.463 1.278-12.216l.001-.007c.671-6.876.711-7.29 2.167-7.52 2.436-.4 1.421 9.028.21 20.279-.307 2.856-.627 5.829-.906 8.788 10.786-8.987 16.308-14.466 19.38-17.514 3.112-3.088 3.71-3.68 4.72-2.9.094.08.171.178.226.288zM387.6 370.194c-3.363 1.818-3.541 1.895-4.148 2.149-.427.181-1.067.454-3.183 1.487-1.278.626-2.944 1.482-4.428 2.239-1.661.852-3.093 1.585-3.489 1.747.098-1.637.635-11.887.374-12.795a9.987 9.987 0 00.285-2.115 1.95 1.95 0 00-1.8-1.984c-2.22-.144-2.305 2.453-2.296 4.666.012 2.693-.098 4.241-.199 5.704-.101 1.432-.197 2.778-.166 5.028l-.531-.282-.315-.168-.006-.004c-3.125-1.68-9.917-5.326-12.13-3.927a1.574 1.574 0 00.444 2.759c7.301 3.379 9.313 4.351 10.327 4.842.589.285.84.408 1.601.745-.408.27-.871.555-1.432.901-1.239.764-2.965 1.825-5.651 3.698-3.299 2.318-1.226 6.32.549 4.682a36.453 36.453 0 016.985-4.688c.101 11.188 1.211 12.188 1.637 12.572.11.107.239.192.383.248.144.055.298.08.451.07a1.106 1.106 0 00.803-.395c.384-.485.31-1.083.086-2.885-.028-.218-.055-.451-.086-.703.114-.432.2-2.848.286-5.326.098-2.781.199-5.641.346-5.856.168.015.331.067.475.156a809.468 809.468 0 016.62 3.303c4.149 2.084 4.998 2.511 5.378 2.25.098-.064.163-.178.249-.322l.049-.082c1.266-2.218-4.271-5.143-7.653-6.933-.46-.243-.88-.466-1.239-.663a125.078 125.078 0 0011.983-7.358c2.259-1.926.438-3.306-.559-2.76zm81.627 88.09a.939.939 0 01.092.356c.068 1.9-15.604 17.664-22.328 23.544.8.96 5.796 5.488 10.632 9.868l.004.004.008.012c.7.632 1.396 1.264 2.076 1.88 4.52 4.104 4.432 4.476 4.308 4.988a.859.859 0 01-.216.38.952.952 0 01-.376.236c-1.692.448-15.232-10.3-19.316-14.412-.696 3.028-1.784 14.624-2.5 22.236-.364 3.888-.632 6.732-.7 6.868a.76.76 0 01-.54.408c-3.364.524-1.728-14.412-.84-22.508v-.024c.196-1.768.356-3.208.416-4.088-.692.524-1.888 1.504-3.552 2.872l-.004.008-1.12.92-1.592 1.3c-2.508 2.052-2.644 2.34-3 3.108-.076.16-.16.336-.276.556-1.348 2.572-4.544-.008-3.068-3.04.924-1.896 1.036-1.992 9.376-8.796l1.28-1.044 1.608-1.316.088-.072c.188-.156.372-.304.528-.436.104-.088.196-.168.272-.24-.308-.244-16.472-15.532-16.576-15.976-.364-1.356.108-1.916.556-2.144 2.696-1.372 14.828 10.984 16.912 13.244.412-4.708.684-7.196 1.016-10.272.268-2.444.576-5.264 1.028-9.872.676-6.88.72-7.292 2.172-7.524 2.436-.38 1.424 9.052.212 20.292a680.93 680.93 0 00-.908 8.78c.188-.184.768-.672 1.672-1.432 3.164-2.652 10.284-8.624 18.388-16.704 2.32-2.316 3.024-3.02 4.036-2.244a.93.93 0 01.232.284zM139.37 384.746c.703-.046 1.429-.408 2.403-.892 3.074-1.53 8.631-4.293 23.828-2.358 1.355.052 2.312.23 3.064.371 1.506.282 2.188.408 3.587-.944 1.95-1.84 15.401-19.624 15.591-19.897 1.132-1.564 2.923-3.548 4.736-5.559 4.05-4.492 8.21-9.101 5.358-9.379a49.658 49.658 0 00-16.667 0 59.29 59.29 0 00-13.084 3.823 66.82 66.82 0 00-24.686 21.736c-2.146 3.419-4.004 6.994-5.795 10.609a1.71 1.71 0 001.665 2.49zm55.855 48.114c.278.156.504.384.649.668.867 1.912-2.715 6.316-19.549 27.04a5877.52 5877.52 0 00-55.187 68.852c-1.727 2.184-3.095 3.948-4.192 5.36-3.965 5.108-4.378 5.64-5.356 5.036-.313-.204-.631-.612-.355-1.532 2.781-9.116 80.211-105.612 83.078-105.612.316-.028.633.036.912.188zm-57.082 96.052c-2.964 3.628.111 6.864 2.233 3.76 1.383-2.484 11.149-7.888 22.116-7.496 1.325.048 1.665.516 1.132 1.908-1.383 3.572-8.911 8.224-11.971 10.116-.678.42-1.136.704-1.26.812a4.063 4.063 0 00-1.306 1.484 4.038 4.038 0 00.096 3.84c.334.58.808 1.068 1.379 1.42.704.52 1.421 1.016 2.109 1.5 2.457 1.72 4.551 3.184 4.422 4.164-.252 1.896-7.197 4.784-19.931 9.448-2.106.772-1.79 3.372 3.205 3.372a33.648 33.648 0 0015.429-4.992c13.33-7.408 4.465-12.884-.216-15.776-.97-.6-1.76-1.088-2.136-1.46.091-.064.36-.208.767-.428 2.811-1.508 12.189-6.552 14.426-12.78 4.52-12.596-22.994-8.052-30.494 1.108zm-48.139-32.6c3.618-14.12 14.595-24.2 20.85-11.48 4.361 8.856.972 19.856-2.83 19.536a1.646 1.646 0 01-1.315-.716 3.731 3.731 0 01.19-3.1c2.766-8.168-1.248-18.72-4.967-15.42-4.93 4.38-8.819 14.64-7.077 18.604.742 1.696.711 4.208-1.064 4.76-2.361.748-3.155-1.1-3.848-2.728-2.042-4.732-5.985-5.312-8.279-3.372a16.385 16.385 0 00-4.571 10.372c0 1.416 1.019 2.284 1.888 3.02.85.724 1.555 1.328 1.024 2.192a1.42 1.42 0 01-.756.58 1.44 1.44 0 01-.952-.016 7.282 7.282 0 01-5.703-7.632 12.838 12.838 0 011.227-5.884c1.971-5.276 4.565-7.932 8.674-8.892a9.222 9.222 0 016.92 1.252l.282.128c.082-.404.184-.808.307-1.204zm128.446-41.964c-1.586-3.844-4.164-1.284-7.917 2.444-1.514 1.508-3.22 3.2-5.129 4.74-6.283 5.056-25.106 23.284-30.895 28.904-19.786 19.2-19.391 19.708-18.79 20.48a.781.781 0 00.653.332c3.462 0 60.018-53.108 62.014-56.192a.758.758 0 00.064-.708zm-50.4-23.16c-12.462 17.788-31.527 44.996-34.389 50.216-.779 1.44-2.766 1.048-2.26-1.064 1.598-6.58 38.882-61.968 44.558-66.488.262-.3.619-.5 1.011-.572.393-.068.797 0 1.146.192.349.196.621.5.771.868.15.372.168.784.052 1.164-.08.252-4.659 6.792-10.889 15.684zm160.645-101.897a88.323 88.323 0 01-16.726-9.015 98.93 98.93 0 01-23.321-23.916 277.02 277.02 0 01-2.408-4.036c-1.601-2.724-2.168-3.688-2.784-3.721-.338-.017-.69.244-1.235.65l-.107.079a319.782 319.782 0 00-80.896 68.858c-4.541 5.519-4.504 5.657-3.587 7.23 13.264 22.834 45.499 48.012 68.318 60.932 1.665.956 2.18.948 18.744-19.18a313.906 313.906 0 0046.324-76.213c-.003-1.417-.543-1.441-1.245-1.469-.334-.015-.705-.03-1.077-.199zm-52.652 40.839c-9.79-1.325-15.438-3.756-21.001-11.989-13.65-20.237 8.623-47.385 32.291-36.54 22.791 10.443 18.434 47.075-11.29 48.529zm-18.799 60.706c3.373 1.88 4.048 2.26 3.035 3.376l-.27.296c-2.684 2.916-13.334 14.492-17.354 15.624-16.324-2.684-47.511-29.632-58.132-44.64a46.715 46.715 0 01-7.752-13.862l-.15-.35-.132-.306c-.775-1.794-.934-2.159-.484-2.766 4.158-5.593 13.025-16.45 13.096-16.518 1.606-1.864 2.552-.466 5.359 3.683 4.368 6.451 13.241 19.565 36.12 37.403 14.249 11.12 22.506 15.736 26.664 18.06zm89.628-160.83a4.449 4.449 0 00-5.332-4.133c-15.923 1.84-27.559 5.237-49.979 16.781-1.227.635-1.162 1.098.975 4.293 9.122 13.614 18.047 25.093 36.886 33.286.883.383 1.653.724 2.325 1.018 4.304 1.892 4.617 2.03 5.034 1.282 8.098-14.911 11.17-43.175 10.091-52.527zm-83.605 91.201a21.129 21.129 0 01-6.207-8.089 21.175 21.175 0 01-1.33-12.301 21.177 21.177 0 015.769-10.947 21.18 21.18 0 0123.212-4.63 21.136 21.136 0 0112.455 15.378 21.13 21.13 0 01-33.899 20.589zm28.399-11.781a16.263 16.263 0 00.686-8.833 16.31 16.31 0 00-3.158-6.81 16.307 16.307 0 00-5.876-4.67 16.246 16.246 0 00-7.346-1.539c-2.536.064-5.021.72-7.257 1.916a16.277 16.277 0 00-6.36 6.166 16.254 16.254 0 0015.898 24.291 16.288 16.288 0 008.196-3.361 16.273 16.273 0 005.217-7.16zm-7.188 72.382c-1.451-.284-3.417 2.196-6.368 5.916-1.833 2.308-4.047 5.096-6.752 7.996l-.037.04c.137-.156.39-.432-9.122 9.772-1.084 1.16-1.933 1.984-2.741 2.772-1.351 1.312-2.59 2.512-4.618 4.976-1.482 1.768-.78 3.656.119 6.08.417 1.124.878 2.364 1.181 3.76.431 1.968.736 3.328.952 4.292.395 1.76.493 2.192.52 2.628.009.144.01.288.013.48.006.664.018 1.896.373 5.668.067 4.608-.923 7.012-1.549 8.536-.577 1.4-.846 2.052.308 2.988 1.464 1.196 1.6 1.088 9.798-5.312l.283-.224c25.039-19.604 22.96-59.34 17.64-60.368zm-10.566-83.441a43.362 43.362 0 019.152-3.443 4.872 4.872 0 001.239-.424c.612-.288.896-.42 1.742.516 1.735 1.992 4.32 5.988 1.812 6.779-8.984 2.839-8.982 2.842-8.205 4.047.218.338.498.773.656 1.392a2.491 2.491 0 01-.843 2.597 39.614 39.614 0 01-8.426 4.158c-2.361.598-4.872-.086-6.786-5.36-.39-1.07.145-1.192 1.717-1.554 1.284-.295 3.261-.745 5.992-2.005 3.29-1.512 2.561-2.646 1.819-3.796-.576-.896-1.159-1.803.131-2.907z" fill="#5dd89e"/><path d="M571.779 77.077c-41.764-58.065-118.34-68.432-177.507-35.228-88.23 49.51-88.42 193.324 18.535 236.781 39.888 16.208 94.82 12.998 131.404-16.057 19.912-15.816 33.396-37.341 41.288-52.859 19.368-45.423 9.696-100.083-13.72-132.637zm20.108 94.938c-.304 11.928-10.368 49.305-38.284 75.987-70.34 67.22-181.714 35.779-211.956-49.228C324.056 149.325 335 78.815 400.899 42.68c72.728-39.879 171.212-3.391 188.316 84.56a142.962 142.962 0 012.672 44.775z" fill="#5dd89e"/><path d="M475.757 195.819c-9.076-3.269-17.744 3.244-22.492 10.686-9.908 15.53-6.5 37.714 12.076 36.592 5.396 0 15.88-8.803 19.212-21.39 3.26-12.299-1.652-23.315-8.796-25.888zm7.572 19.443c-1.084 13.184-10.732 23.652-16.752 24.836-3.904.764 5.824-6.899 7.408-22.935 1.904-19.492-10.224-16.656-7.74-18.912a7.558 7.558 0 014.944-.92c5.184-1.123 13.08 6.509 12.14 17.931zm-83.969-54.534c-7.972-8.797-23.183-7.622-30.855 11.998-7.024 17.962 9.444 43.234 29.329 21.418 6.85-7.512 8.806-25.37 1.526-33.416zm-5.338-.772a14.36 14.36 0 00-6.282 4.332 27.534 27.534 0 00-6.498 12.52c-.159 1.149-.92 2.146-.999 3.332-.227 2.8-1.125 10.058.858 13.798.92 1.733 1.512 3.72 3.404 4.774.687.384.518 1.19 0 1.175-2.3.284-4.633-.071-6.746-1.027-9.925-5.881-9.527-22.917-3.409-31.414 9.023-14.687 21.69-8.748 19.672-7.49zm62.005-72.71c-6.176-3.913-20.236-2.42-27.864.239-18.192 6.335-27.716 20.292-16.836 28.153 9.26 6.694 31.384.534 40.932-5.982 11.08-7.564 11.228-17.683 3.768-22.41zm-43.168 21.935c-1.224 1.911-.776 3.002-1.948 1.683-2.224-2.499-1.16-6.298 2.248-10.29 11.672-13.678 35.228-15.407 41.868-10.842a8.189 8.189 0 012.144 11.127c-.484.724-2.7-1.131-3.836-2.057-8.056-6.57-34.056.371-40.476 10.379zm97.907 42.892c7.62-1.947 8.164-9.45 8.732-17.272-.8-8.067-1.468-15.729-8.18-20.418-13.168-9.195-19.376 34.29-.552 37.69zm-4.172-36.006c2.98-1.242 6.564 2.287 7.596 5.028 6.592 17.478.564 29.129-3.896 28.467-.824-.126-1.048-.433-.652-1.171 2.944-5.52 3.848-18.186-1.044-27.869-1.112-2.202-2.892-2.429-2.788-3.897-.004-.552.46-.423.784-.558zM383.738 84.731c.549-5.825-3.48-8.44-7.886-7.27-9.505 2.527-18.916 18.011-17.956 26.676 1.656 14.945 21.534 3.585 25.842-19.406zm-19.105 18.358a12.481 12.481 0 00-.54 4.872c-.187 1.092-2.49.306-3.247-1.579-4.051-10.011 14.141-31.852 19.415-25.977 3.725 4.145-4.464-1.423-14.276 18.584-.457.932-.978 3.146-1.352 4.1zm174.655 88.038c-4.34 6.289-6.028 15.601-.144 19.244 7.08 4.382 18.984-4.839 19.884-17.171.816-11.207-12.092-13.163-19.74-2.073zm13.64 11.836c-5.004 5.942-9.484 6.556-10.168 6.316-1.364-.481-1.132-1.349-.308-1.735a18.438 18.438 0 006.316-7.003c6.54-10.796.648-14.166 3.72-14.28 4.124-.15 6.172 9.92.44 16.702zm18.612-77.991c-6.084 1.226-13.024 14.199-9.264 25.198 5.008 14.653 19.572 3.649 18.728-12.385-.544-10.602-5.716-13.574-9.464-12.813zm-3.152 29.5c-3.192-1.129.66-2.895 1.684-6.746.12-.46 4.212-11.195.056-17.171-1.284-1.839-1.368-1.732 0-2.597a5.342 5.342 0 014.588.048 5.32 5.32 0 012.844 3.595c3.912 15.168-4.488 24.508-9.172 22.871zm-62.296-98.986c-8.228 5.213 15.312 24.968 24.256 18.474 4.184-3.038-1.164-9.784-6.1-13.672-4.3-3.391-13.16-7.966-18.156-4.802zm21.964 16.953c-1.228.705-1.788.88-3.956-2.121a38.176 38.176 0 00-15.112-10.245c-1.072-.257-2.512.135-2.144-1.3.476-1.904 1.432-1.705 3.424-1.753 8.884-.218 22.792 12.577 17.788 15.42zM500.224 249.57a5.575 5.575 0 00-.86 2.672c-.052.95.136 1.898.556 2.752 2.4 3.533 9.472 3.787 14.876 2.956 3.844-.589 4.6-1.499 5.424-3.545 4.144-10.072-14.552-11.188-19.996-4.835zm17.924 1.411c-.512 6.282-2.656-1.994-13.328 1.376-.652.206-1.748.966-2.456 1.113-2.296.469 0-7.665 12.292-5.191 1.012.206 3.68 1.68 3.492 2.702zm-119.821-14.675c-3.033 4.455 7.413 18.673 14.941 17.501 11.672-1.824-8.224-27.368-14.941-17.501zm12.177 13.948c-.48-.96-1.02-1.887-1.62-2.775a25.4 25.4 0 00-5.372-6.366c-1.608-1.551-3.104-1.091-3.008-2.931.048-.987.228-1.199 1.268-1.226 5.756-.187 10.164 6.335 12.628 12.173.952 2.241-3 3.676-3.896 1.125zm46.81-201.586c20.932 1.502 11.828-20.52-6.208-9.542-5.212 3.173-4.916 8.744 6.208 9.542zm9.024-8.28c1.132.994.516 2.113-.44 3.067-1.764 1.757-1.132-.08-4.508-.39-7.932-.729-6.464 3.183-8.496 2.453-9.116-3.268 8.056-9.882 13.444-5.138v.009zm-5.751 106.516c-6.116 2.824-6.264 5.004-7.224 8.257-.536 1.806.644 3.253 1.856 4.547.828.88 2.112.901 3.808 1.196a12.155 12.155 0 009.52-4.222c2.224-1.76 3.652-6.169 1.952-8.181a8.146 8.146 0 00-9.912-1.597zm7.82 4.105c0 3.839-3.152-.067-7.82 3.293-2.592 1.868-2.944 3.68-3.756 3.248-1.536-.791-1.536-5.333 3.756-8.086 4.748-2.475 8.34-.613 7.82 1.545z" fill="#5dd89e"/></svg>