<svg width="512" height="588" fill="none" xmlns="http://www.w3.org/2000/svg"><path fill-rule="evenodd" clip-rule="evenodd" d="M330.839 29.24c5 2.84 12.28 6.92 18.64 6.12a4.89 4.89 0 002.201-.92c.64-.48 1.16-1.08 1.52-1.8.4-.72.599-1.48.599-2.28.04-.8-.16-1.6-.48-2.32a24.66 24.66 0 00-7.8-9.4v-.8c6.16-1.92 14.52-5.16 11.76-10.96-.72-1.64-2.039-3-3.639-3.8-6.76-3.28-15.961-.88-22.721.92-5.8 1.56-11.28 2.36-13.12 7.08-3.6 8.56 4.24 13.12 13.04 18.16zm23.44-23.32c5.2 4.84-3.56 8-6.84 9.2-.52.2-1.04.32-1.6.4.12-2.04-.4-4.08-1.44-5.84-1.08-1.76-2.6-3.12-4.48-4-1.72-.32-3.479-.56-5.239-.72 5.32-1.04 15.599-2.76 19.599.96zM335.72 27.8a9.79 9.79 0 005.799-1.92c1.68-1.28 2.88-3.04 3.4-5.08 2.68 2 4.88 4.6 6.4 7.56.84 1.68.48 4.96-1.92 5.04-6.64-.28-13.04-2.48-18.4-6.36 1.56.4 3.121.64 4.721.76zm-62.961 116.32c2.12.64 4.16 1.48 6.12 2.6.04.04.121.08.201.12.08.04.119.04.199.04.08 0 .16 0 .24-.04.08-.04.121-.08.201-.16.04-.04.079-.12.119-.2 0-.04.04-.12 0-.2 0-.08 0-.16-.04-.24-.04-.04-.079-.12-.119-.16a11.23 11.23 0 00-5.04-4.2c-1.76-.76-3.64-1.16-5.52-1.16-1.92 0-3.8.4-5.56 1.16l-.801.48c-2.64 2.08 4.4.32 10 1.96zm-68.88 87.04c2-1.36 3.4-3.48 3.88-5.88.04-.44-.08-.88-.36-1.24-.24-.36-.599-.64-1.039-.8-1.88-.4-4.52 1.88-5.32 4.72-.48 1.96.519 4.8 2.839 3.2zm-20.039 31.32a9.508 9.508 0 004.599-5.36c.04-.44 0-.92-.2-1.28-.24-.4-.56-.72-.96-.92-1.8-.64-4.76 1.28-5.84 4.04-.76 1.84-.159 4.84 2.401 3.52zm144.919-20.28c-.32-.24-.719-.36-1.079-.28-.4.04-.76.24-1 .56-.24.28-.321.68-.281 1.08.04.4.24.72.56.96.84.72 1.8 1.32 2.8 1.76.2.08.4.12.56.12.2 0 .4-.04.56-.12.2-.08.36-.2.48-.32.16-.16.241-.32.321-.48.08-.2.119-.4.119-.56 0-.2-.039-.4-.119-.56a1.44 1.44 0 00-.321-.48c-.16-.16-.32-.24-.48-.32-.76-.36-1.48-.8-2.12-1.36zm-10.36-11.64c-.16.08-.32.2-.44.36-.16.12-.239.28-.279.48-.08.2-.12.36-.08.56 0 .2.079.4.159.56.44.96.961 1.8 1.401 2.64.2.28.519.48.879.56.36.08.721.04 1.041-.16.32-.16.559-.44.679-.8.12-.36.081-.72-.039-1.04-.48-.8-.921-1.64-1.361-2.52-.16-.36-.48-.6-.84-.72s-.76-.08-1.12.08zm-4.88-9.24c.12.32.401.6.721.76.32.16.679.2 1.039.12.36-.12.641-.32.841-.64.2-.28.279-.64.239-1-.28-.92-.519-1.84-.759-2.8-.04-.2-.121-.36-.201-.56-.12-.16-.28-.28-.44-.4-.16-.12-.36-.2-.56-.24-.2 0-.4 0-.6.04-.2.04-.36.12-.52.24-.16.12-.32.28-.4.48-.12.16-.159.36-.199.56 0 .2-.001.4.079.6.24.96.48 1.92.76 2.84zm-4.76-19.08c-.36.04-.72.24-.96.52-.28.32-.4.72-.36 1.08 0 .72.24 2.24.36 3.08 0 .2.08.36.16.56.08.16.2.32.36.44.16.12.32.2.52.24.2.04.4.08.56.04.4-.04.72-.24.96-.56.24-.28.361-.68.321-1.08 0-.72-.241-2.12-.321-2.84 0-.2-.039-.4-.119-.6-.08-.16-.201-.32-.361-.48-.16-.12-.32-.24-.52-.32-.2-.04-.4-.08-.6-.08zm1.361-9.48c.28-.88.559-1.68.839-2.56.08-.16.121-.36.121-.52 0-.2-.041-.4-.121-.56-.08-.16-.199-.32-.319-.44a.96.96 0 00-.48-.28c-.32-.12-.72-.12-1.04.04-.36.12-.601.4-.761.76-.36.92-.68 1.84-.92 2.8-.08.32-.039.68.161 1 .16.32.439.52.799.64.36.08.72.08 1.04-.08.32-.16.561-.44.681-.8zm-25.161-31.88c.32.16.72.16 1.04 0 .36-.12.64-.4.8-.72.36-.84.72-1.68 1.16-2.44.16-.36.201-.72.081-1.08-.08-.36-.361-.68-.681-.84-.32-.16-.72-.2-1.04-.08-.36.12-.68.36-.84.68-.48.88-.919 1.72-1.279 2.64-.12.36-.12.72 0 1.08.12.36.399.64.759.76zm-16.399-8.16c.32-.84.72-1.68 1.16-2.48.08-.16.159-.32.199-.52.04-.2 0-.4-.04-.6-.04-.16-.119-.36-.239-.52-.12-.12-.28-.28-.48-.36-.16-.08-.36-.12-.52-.16-.2 0-.4 0-.6.08-.16.08-.36.16-.48.32-.16.12-.24.28-.32.44-.48.92-.921 1.76-1.281 2.64-.08.2-.12.36-.16.56 0 .2.04.4.08.56.08.2.161.36.321.52.12.12.28.24.44.32.2.08.36.12.56.12.2 0 .399-.04.559-.12.2-.08.361-.2.481-.32.12-.16.24-.32.32-.48zm53.64 23c-.16-.12-.32-.2-.52-.28-.16-.04-.36-.04-.56-.04-.2.04-.36.08-.52.16-.2.12-.32.24-.44.4-.64.8-1.241 1.56-1.841 2.36-.16.32-.199.72-.119 1.04.08.36.279.68.559.88.32.24.68.32 1.04.28.36-.04.681-.24.921-.48.56-.76 1.119-1.52 1.719-2.28.12-.16.201-.32.241-.52.08-.16.079-.36.079-.56-.04-.16-.119-.36-.199-.52-.08-.16-.2-.32-.36-.44zm10.44-10.24c-.16-.12-.32-.24-.48-.32-.2-.08-.36-.12-.56-.12-.2 0-.401.04-.561.12-.16.08-.319.2-.479.32l-2.241 1.96c-.12.16-.24.32-.32.48-.08.16-.08.36-.08.56 0 .2 0 .36.08.56.08.16.2.32.32.48.16.12.32.24.48.32.16.04.36.08.56.08.2 0 .36-.04.56-.08.16-.08.32-.2.48-.32l2.161-1.92c.16-.12.279-.28.359-.48.08-.16.12-.36.12-.56.04-.2 0-.4-.08-.56-.08-.2-.199-.36-.319-.52zm9.719-9c-.8.52-1.6 1.08-2.4 1.64-.32.24-.56.56-.6.96-.08.36.001.76.241 1.08.2.32.559.52.919.6.36.08.761 0 1.081-.24l2.399-1.64c.2-.08.36-.2.48-.36.16-.16.24-.36.28-.56.08-.2.08-.4.04-.64a1.4 1.4 0 00-.239-.56c-.12-.16-.24-.32-.44-.44-.16-.12-.361-.16-.601-.2-.2-.04-.4 0-.6.04-.2.08-.4.16-.56.32zm12.68-7.56l-2.56 1.44c-.2.08-.4.2-.52.32-.16.16-.239.36-.319.56-.08.2-.08.4-.08.6.04.2.079.4.199.6.08.16.241.32.401.44.16.12.36.2.56.24.2.04.399.08.639 0 .2-.04.36-.12.56-.24.8-.48 1.68-.96 2.48-1.36.2-.12.36-.24.48-.36.12-.16.201-.32.241-.52.08-.2.08-.4.08-.56-.04-.2-.081-.4-.161-.56-.08-.16-.239-.32-.359-.44-.16-.12-.32-.24-.52-.28-.2-.04-.4-.08-.56-.04-.2 0-.401.08-.561.16zm11.76-2.52l2.68-1.16c.32-.2.601-.48.721-.84s.12-.72-.04-1.08c-.12-.36-.401-.6-.761-.76-.36-.16-.72-.16-1.08-.04l-2.719 1.2a1.7 1.7 0 00-.641.84c-.12.32-.08.68.08 1.04.12.32.4.56.72.72.32.16.72.16 1.04.08zm11.361-6.72c.16.32.479.6.839.68.36.12.761.12 1.121-.08l2.6-1.36c.36-.2.599-.52.719-.88.08-.4.04-.8-.12-1.12-.2-.36-.52-.6-.88-.68-.4-.12-.8-.08-1.12.08l-2.56 1.4c-.32.16-.599.48-.679.84-.12.36-.08.76.08 1.12zm13.04-9.44c-.32.2-.56.56-.6.96-.08.36-.001.76.199 1.08.24.32.56.52.96.6.36.08.76 0 1.08-.24.84-.56 1.64-1.12 2.44-1.72.24-.24.401-.56.441-.92a1.47 1.47 0 00-.281-1 1.47 1.47 0 00-.879-.56c-.32-.08-.68-.04-1 .12-.76.64-1.56 1.16-2.36 1.68zm13.44-10.84l-2.12 1.96c-.24.28-.36.64-.36 1s.12.72.36 1 .6.44.96.48c.36.04.72-.08 1-.28l2.16-2.04c.12-.12.24-.28.32-.48.08-.16.12-.36.12-.52.04-.2 0-.4-.08-.56-.08-.2-.16-.36-.28-.48a1.88 1.88 0 00-.48-.36c-.16-.08-.36-.12-.56-.12-.2 0-.36.04-.56.12-.16.04-.32.16-.48.28zm8.04-6.36c.16.16.32.24.52.28.16.08.36.08.56.08.2-.04.36-.08.52-.2.2-.08.32-.2.44-.36.64-.76 1.28-1.52 1.88-2.32.12-.16.2-.32.24-.52.08-.16.08-.36.04-.56 0-.2-.08-.36-.16-.52-.12-.16-.24-.32-.4-.44-.28-.2-.68-.32-1.08-.28-.36.04-.72.24-.96.52-.6.8-1.16 1.56-1.8 2.28-.24.32-.36.68-.32 1.08.04.36.24.72.52.96zm8.4-11.92c.36.2.76.24 1.12.12.36-.08.68-.36.88-.68.44-.88.92-1.76 1.36-2.64.08-.2.12-.36.12-.56.04-.2 0-.4-.04-.56-.08-.2-.16-.36-.32-.52-.12-.12-.28-.24-.44-.32-.2-.08-.36-.16-.56-.16-.2 0-.4 0-.56.08a.96.96 0 00-.48.28c-.16.12-.28.28-.36.48l-1.32 2.52c-.08.16-.12.36-.16.56 0 .16 0 .36.08.56.04.16.12.36.24.48.12.16.28.28.44.36zm5.72-13.4c.4.08.8.04 1.12-.16.32-.2.56-.52.68-.92.2-.96.44-1.96.6-3.04.08-.4 0-.76-.24-1.08-.2-.32-.56-.56-.92-.64-.4-.08-.76.04-1.08.24-.32.24-.56.56-.64.96-.16.92-.36 1.84-.56 2.76-.08.2-.12.4-.08.6 0 .2.08.4.16.6.12.16.24.32.44.44.16.12.32.2.52.24zm.12-15.76c0 .2.04.4.12.56.08.16.2.32.36.44.16.16.32.24.52.28.16.08.36.08.56.08.36-.04.72-.2 1-.52.24-.28.36-.64.36-1.04 0-1-.24-2.04-.36-3.08-.04-.16-.08-.36-.2-.52-.08-.16-.2-.32-.36-.44a1.318 1.318 0 00-1.08-.24c-.4.04-.72.24-.96.56-.24.32-.36.68-.32 1.08.16.92.24 1.84.36 2.84zm-3.52-13.64c.16.36.48.64.84.76.36.16.76.16 1.12 0 .36-.2.64-.48.76-.84s.12-.76-.04-1.12c-.44-.92-.88-1.84-1.4-2.72-.16-.32-.48-.6-.84-.68-.4-.12-.8-.08-1.12.12-.32.2-.6.48-.68.88-.12.36-.08.76.12 1.08.44.84.84 1.72 1.24 2.52zm-7.96-11.56c.12.16.28.24.48.32.16.08.36.12.56.12.16 0 .36-.04.52-.08.2-.08.36-.2.48-.32.16-.12.28-.28.32-.48.08-.16.12-.36.12-.56 0-.16 0-.36-.08-.52-.08-.2-.2-.36-.32-.48-.68-.72-1.36-1.44-2.16-2.08-.12-.16-.28-.24-.48-.32a2.36 2.36 0 00-.56-.08c-.16 0-.36.04-.52.12-.2.08-.36.2-.48.36a.96.96 0 00-.28.48c-.08.16-.12.36-.08.56 0 .2.04.36.12.56.08.16.2.32.32.44l2.04 1.96zm-13.56-10.4c.84.52 1.68 1 2.48 1.52.16.12.32.2.52.24.2.04.4.04.6.04.2-.04.4-.12.56-.24.16-.12.32-.28.44-.44.08-.16.16-.36.2-.56.04-.2 0-.4-.04-.6-.04-.2-.16-.4-.28-.56a1.25 1.25 0 00-.44-.36l-2.56-1.52c-.32-.2-.72-.28-1.12-.16-.36.08-.68.32-.88.68-.2.32-.24.72-.12 1.08.08.36.32.68.64.88zm-12.921-6.28l2.641 1.16c.36.12.76.12 1.12-.04.32-.16.599-.44.759-.76.16-.36.16-.76.04-1.12-.16-.32-.4-.64-.72-.8l-2.76-1.12c-.16-.12-.36-.16-.6-.2-.2-.04-.4 0-.6.08-.2.04-.4.16-.52.32-.16.12-.28.32-.36.52-.08.2-.12.4-.12.6 0 .2.08.4.16.6.08.2.24.36.4.48.16.16.36.24.56.28zm-13.68-4.68l2.801.84c.36.12.76.08 1.08-.12.36-.16.599-.48.719-.84.04-.2.08-.36.08-.56-.04-.2-.08-.4-.16-.56a4.25 4.25 0 00-.36-.44c-.16-.12-.32-.2-.52-.24l-2.799-.88c-.2-.04-.401-.08-.601-.04-.16 0-.36.08-.52.16-.16.08-.319.2-.439.36-.12.16-.201.32-.281.52-.04.16-.079.36-.039.56 0 .2.079.36.159.52.08.2.2.32.36.44.16.12.32.24.52.28zM361.2 21.88l2.839.64c.4.08.801 0 1.121-.2.32-.2.559-.52.639-.92.04-.16.04-.36.04-.56-.04-.2-.119-.36-.239-.52-.08-.16-.24-.32-.36-.44-.16-.08-.36-.16-.56-.2l-2.881-.64c-.36-.04-.68.04-.96.28-.32.2-.52.52-.56.84-.08.36-.04.72.12 1.04.2.32.481.56.801.68z" fill="#5dd89e"/><path fill-rule="evenodd" clip-rule="evenodd" d="M500.8 199.712c-2.16-4.32-5.4-7.96-9.4-10.64-4-2.64-8.64-4.2-13.44-4.52-10.36-.64-14-.52-41.76-.64v-8s17.12-1.8 19.88-2c-.16-5.08-.68-10.12-1.56-15.16 0-.16-.96-.36-1.6-.36 1.04 0-13.76-.84-30.68-.92-.2 0-.4 0-.6.04-.2.08-.4.16-.56.32-.56.56-.48-1.28-.36 26.08-18.16-.6-36.359-.08-54.439 1.6-5.88.36-11.36 2.96-15.32 7.32-5.76 6.72-9.319 15.08-10.239 23.88-1.44 8.96-6.52 55.96-5.6 61.56-16.4 12.88-29.6 29.36-38.52 48.2-3.36 7.16-4.681 13.64-3.081 19.28-2.88-1.4-6-2.28-9.2-2.68 0 0-.32-.88-.48-1.52-.72-3.08 4.88-2.88 7.44-.8.28.32.76 0 .48-.4-3.64-5.32-12.479-1.88-8.079 2.68-3.88-.16-5.001 2.04-3.401 4.76-2.28 1.04-1.76 3.64 0 5.6 3.08 3.04 6.56 3.04 6.12 1.84a.581.581 0 00-.239-.36.476.476 0 00-.401-.04c-2 .48-5.959-3.6-5.119-5 .88-1.44 12.28.2 11.48 8.32-.48 7.12-20.161 2.32-22.601-14.48 0-.36-.2-.48-.76-1.08-.6-.56-2.359-2.36-4.559-4.52 4.04-4.48 8.56-8.52 13.48-12 .88 2.48 2.479 4.64 4.639 6.16.32.12.64.24 1 .28 3.12.56 6.281.72 9.401.52.08.04.159.04.239 0 .08 0 .121-.04.201-.08l.159-.16c0-.08.04-.12.04-.2.04-.08.04-.16 0-.24 0-.04-.04-.12-.08-.2-.04-.04-.079-.08-.159-.12-.08-.04-.121-.08-.201-.08-3-1.2-6.16-1.96-9.4-2.28-1.6-1.4-3.12-2.92-4.48-4.56 1.56-1.12 4-3.08 2.76-4.56a186.196 186.196 0 01-33.719-57.8c1.28-18.4 0-46-8.44-62.88 2.8.48 7.839 1.2 10.279 0 .56-.24 1.041-.68 1.321-1.24.28-.56.359-1.2.239-1.8a20.95 20.95 0 0013.8-.64c16-8.28 31.28-39.88 34.76-62.4 1.48-.12 3.04-.8 2.36-2.64-.36-.8-1.959-.68-1.799-1.68.12-.96 3.999-1.52 2.399-3.4a7.29 7.29 0 00-2.68-1.16c-1.8-1-.24-2 0-2.08.2-.08.92-.2 1.2-.72.12-.48.12-1 0-1.44-.24-1.68-3.079-.52-3.799-1.48-1.72-1.96 4.319-2.6 1.759-4.6-1.4-1.08-4.56.96-5.44-.64-.92-1.56 3.76-3.4.84-5.44-2.04-1.4-4.92 2.64-6.12.2-.6-1.04 1.081-1.88 1.401-2.64.12-.4.12-.8 0-1.16-.08-.4-.28-.72-.52-1.04-.32-.4-1.401-.24-1.801 0-1 .56-2.6 2.48-3.92 1.44-2.04-1.56 1.641-2.64-.239-4.36-.2-.28-.481-.52-.801-.68-1.32-.68-2.36.2-3.44.84.8.24-.8.4 0 0-.76-.28.28-.92.44-1.36.08-.4.001-.8-.199-1.12a1.29 1.29 0 00-.881-.68c-1.6-.56-2.36 2.16-4.28 1.04-.72-.44 0-1.12.28-1.52.12-.2.2-.48.24-.72.04-.24 0-.52-.08-.76s-.2-.44-.4-.64c-.16-.2-.4-.32-.64-.44-3.04-.84-3.96 3.4-6.88 2.2-2.16-.92 2.001-4.08-.799-4.88-1.24-.36-1.881.2-2.681 1.12-.84.96-.919 2.04-2.359 2.24-2.8.4-1.16-2.36-1.52-3.32-.36-.96-1.16-1-2.04-.88-2.6.4-1.4 3.68-3.4 3.92-1.96.28-.8-2.76-2.6-2.4-2.24.44 1 3.08-1.4 3.6s-.48-3.44-3.08-2.88c-2.56.6-1.12 3.76-3.04 4.4-1.96.64-.521-1.96-2.081-1.76-3.04.4-2 3.08-2.76 3.6-1.6.8-1.319-2.32-3.039-2.08-3.52.48-2.04 3.56-3.08 5.52-.72 1.44-2.52-1.08-3.48.24-.92 1.32.68 2.44 0 3.76-.36.76-1.641-.96-3.321.68-1.68 1.64-1.12 3.28-.88 5.04.36 2.68-3.04.24-3.56 1.84-.4.96 1.96 2.8 1.04 3.48-.88.68-1.119-.56-2.759.48-1.6 1.04-1.641 2.24-.481 3.64.52.6 1.601 1 1.001 2.24-.64 1.2-2.001-.36-3.081.96-1.36 1.88 2.76 1.44 1.84 3.28-.92 1.8-3.24 1.64-3.24 1.64-1.84 2.6 1.8 3.72 3.04 5.08 1.28 1.36-1.839 2.12-1.919 3.24 0 2.4 1.839 2.32 2.359 2.92.52.64-1.44.76-1.08 2.36.24.56.6 1.04 1.12 1.36.52.32 1.08.48 1.68.44-.24.24-.4.52-.48.8l-51.119-14.64c-44.64-13.24-107.157 15.32-111.849 56.72-21.464 16.52-45.992 56.32-50.192 76.92-8.372 31.24-6.96 56.2 1.288 78.2 9.196 24.84 33.724 82.16 33.724 82.16S1.79 522.672 4.55 556.952c0 2.04-2.268 22.84-2.3 23.12 4.724.68 26.676 3.52 35.26 3.88 4.632.48 9.313-.16 13.645-1.84 3.528-1.92-.797-8.84-1.717-10.04-6.684-8.76-15.084-7.84-24.036-7.48v-.56c8.736.04 17.456-.72 26.06-2.24 2.884-1.12 57.033-49.76 75.141-102.32 6.16-18.12-3.453-89.28-1.321-89.76 3.04-.64 15.961 69.64 5.841 92.16-1.72 3.6-3.72 7.04-6 10.36 0 0-3.537 3.88-7.465 58.56 0 .32-4.844 29.6-4.904 29.92-.06.28 47.089 10.68 49.609 4.24.6-2.64.319-5.44-.841-7.92a12.144 12.144 0 00-5.48-5.84c-6.12-4.8-11.6-4.24-18.56-4.48.32-1.28.84-3.04 1.44-5.36 7.6.12 15.16-.92 22.48-3.08 8.44-14.44 26.88-59.36 27.56-110.68.56-38.72-25.2-95.24-29.16-103.64 13.4-13.16 24.6-28.4 33.24-45.08 12.24 36.36 38.56 58.96 64.36 65.04.2.04.4.04.6 0 .2-.04.36-.08.56-.2 1.12-1.24 3.04-3.6 4.48-5.04 1.08 1.24 3.36 3.92 4.36 5.16 1.72 19.4 25.68 25.6 27.16 14.76 1.6-1.36 2.76-3.12 3.32-5.12 4.4 4.08 9.8 6.92 15.64 8.28 5.84 1.4 11.921 1.2 17.681-.48 9.16-2.64 17.439-7.6 24.159-14.36 6.52-6.16 36.36-44.16 39.4-51.44l35.079-2.08v257.92c-4.36-10.52-10.28-20.36-17.6-29.12-.08-.12-.24-.2-.4-.24-.16 0-.32 0-.48.08-.16.08-.24.2-.32.36-.08.16-.08.32-.04.48 0 0 4.6 14.2 7.4 23.24-3.52-4.36-7.36-8.44-11.44-12.28-.12-.08-.28-.16-.44-.16-.16 0-.32.04-.44.12-.16.12-.24.24-.28.4-.08.12-.08.28 0 .44 0 0 4.6 11.92 6.36 17-1.96-1.64-12.598-10.32-14.438-8.6a.663.663 0 00-.201.48c0 .16.081.36.201.48a59.268 59.268 0 017.838 10c4.92 8.2 2.32 10.44 4.08 10.4.2 0 .4-.08.52-.24.16-.16.24-.32.24-.52-.32-3.72-1.56-7.28-3.56-10.4-4.36-7.32-8.159-9.4-4.48-7.12 3.76 2.52 7.4 5.24 10.88 8.2.08.04.2.08.28.08.12 0 .2 0 .32-.04.08-.04.2-.08.28-.16.04-.08.12-.16.16-.28.08-.32.08-.72 0-1.04-.68-2.36-4-11.04-5.76-15.72 14.12 13.72 10.8 16.16 12.76 16.76h.32c.08 0 .2-.08.28-.12l.24-.24c.04-.08.08-.2.08-.28 0-.92-6.84-22.24-8.36-26.96 6.12 8.16 13.72 20.12 15.92 30.08v11.84h12.8v-6.6a49.168 49.168 0 0126.84-24.36c-.32.36-16.72 17.12-15.04 23.32.08.2.2.36.36.48.16.12.36.16.56.12 2.12-.44 7.36-10.88 27.6-16.48-2.64 2.28-7.08 6.16-8.28 6.92-3.56 2.56-9.44 9.56-9.52 11.76 0 .16 0 .28.08.4s.16.2.28.24c.48.28.76 0 1.2-.28 2.72-1.96 13.08-9.2 16.44-8.76-1.48 2.2-5.48 6.72-5.44 10.76.04.16.12.28.28.4.12.12.28.16.44.16.2 0 .36-.04.48-.16s.2-.24.24-.4c0-4.28 5.6-9.64 5.68-10.92.08-1.24-1.2-1.24-2.08-1.24-3.8 0-11.88 5.56-15 7.68 4.84-7.36 9.84-9.56 17.92-16.96.84-.76.32-1.4-.2-1.44-1.36-.16-14.84 2.16-29.16 15.72 4.56-13.48 14.84-19.32 15.8-22.2.2-.6-.24-1.12-1.36-.96-11.44 1.44-21.04 12-26.96 21.92v-264.64c2.76 0 60.36-4.52 60.36-4.52.44-.04.84-.2 1.16-.52.32-.32.48-.72.52-1.16l3.08-46.44c0-13.68-1.4-28.64-8.04-40.36zM27.79 567.192l-2.237 10.92-20.756-2.24c.98-6.12 1.316-9.2 1.652-13.72 5.42 1.12 10.932 1.76 16.468 1.84-.368 1.36-.736 2.12 0 2.8.736.68.796.4 4.872.4zm219.131-374.64c-.84.04-1.68.04-2.52 0-.32 0-10.399-1.24-10.679-1.24-1.56 0-2.201 2.36.199 2.8 6.12 1.08 11.521 1.12 12.281 1.32 4.04 1.08 4.32 3.08-2.08 2.84-6.44-.2-15.76-2.6-16.92-2.08a46.325 46.325 0 00-7.641 4.32 40.472 40.472 0 00-6.68-15.12c1.8-.6 8.241-1.68 8.241-1.68.16-.04.319-.12.439-.2.12-.12.2-.28.24-.44.44-2.76 1.2-5.44 2.24-8.04.52-1.16 1.601-3.4 3.041-3.4.44 0 .359 1.4.319 1.84-.64 3.16-1.48 6.28-2.56 9.32-.04.2-.04.36 0 .56.08.16.161.32.241.44.12.16.279.24.439.32.16.08.36.12.52.12 5.08-.6 10.2-.88 15.32-.92 1.76 0 7.6.4 7.96 2.08.2.84-.2.96-1.04 1.16-4.76.4-9.52.32-14.24-.24-.32-.04-.639.04-.919.2s-.481.4-.601.68c0 0-.2 1.64 1.24 1.84 6.4.8 9.72 0 13.28 1.08.84.24 2.641.88 2.601 1.6-.08.76-2.001.8-2.721.84zm19.84-11.08c-.04 0-.039 0-.079.04h-.08c-.04 0-.081-.04-.081-.04-.04 0-.08-.04-.08-.08 0 0-.04-.04-.04-.08v-.08c0-.04 0-.04.04-.08 0-.04.04-.04.04-.08.4-.36.76-.76 1-1.24 1.64-3.08-6.399-2.76-9.799-2.76-.04 0-.081-.04-.121-.08 0-.04-.04-.12-.04-.16 0-.04.04-.08.04-.12l.121-.12c10.84-2.04 13.359 2.24 9.079 4.88zm-45.8-33.76c.12.2.24.32.44.44.16.08.36.12.56.12 1.68 0 1.44 1.04 1.48 1.2.28.92-.719 1.6.201 2.4.96.8 2.08-.44 3.08 0 .2 0 .519 1.84 1.199 2 .68.2 7.8 3.68 5.04-.64-7.24-11.32 5.12-17.6 11.6-4.4.56 1.04 5.161-27 5.161-27 33.92-4.52 47.159 7.12 48.839 10.52-1.24 6.12-3 12.2-5.2 18.08-.8-.68-1.76-1.2-2.8-1.44-1-.28-2.08-.32-3.12-.12-1.08.2-2.12.6-3.08 1.16-.12.04-.24.12-.32.28-.08.12-.12.28-.08.4.08.16.161.28.281.36.12.04.28.08.44.04.96 0 2.519.16 2.839.2 1.92 0 4.281.44 4.681 2.28a110.46 110.46 0 01-16.681 29.92c.24-.92.4-1.88.56-2.84.56-3.4-.56-8.32-7.28-11.56 4.08 1.44 6.52 2.32 8.68-.92 3.4-4.96 5.601-18.36 5.681-18.88.04-.04.04-.12.04-.2 0-.08-.04-.16-.04-.2-.04-.08-.081-.12-.161-.2a.303.303 0 00-.16-.08c-.08-.04-.159-.04-.239-.04-.04 0-.121 0-.201.04-.04.04-.119.08-.159.12-.04.08-.08.12-.12.2-3.24 6.8-4.76 14.28-6.92 17.72-.76 1.16-1.12 1.24-3.08.92-6.4-.92-6.881-1.16-7.041-.44 0 .24.08.48.28.64l-.56-.16c-16.84-4.76-29.039 8.84-28.719 13.28-3.56.2-6.881.6-8.761.84 1.2-4.12 3.8-12.28-.52-12.08-4.36.24-5.88 8.56-6.44 12.68-2.76.6-5.44 1.4-8.04 2.4-1.56-2.4-1.24-2.24-2.8-2.16a40.304 40.304 0 01-5.88-23.64c.52-4.92 2.44-9.56 5.56-13.4l11.76 2.16zm-12.92-2.8a23.27 23.27 0 00-5.64 8.72c-1.16 3.32-1.6 6.84-1.24 10.32.36 6.72 2.8 13.16 7.04 18.4h-2.52c-6.76-4.96-9.2-27.32-.28-38.44l2.64 1zm-38.72-10.96l34.96 10c-10.96 10.84-8.48 32.52-.28 38.88-17.2.76-29.92 1-44.32 4.2 11.28-7 14.001-20.4 12.921-33.72 0-.16-.041-.28-.161-.4-.12-.08-.24-.16-.4-.16-.12 0-.28.08-.36.16-.12.12-.2.24-.2.4-.88 13.48-3.48 25.24-14.08 33.04-3.52 2.6-1.799 1.4-12.039 4.56a.51.51 0 00-.361.28c-.04.12-.08.28-.04.4.08.16.16.28.28.36.16.04.32.08.44.04 23.44-6.84 33.72-6.44 64.24-7.48 5.52 8.6 7.44 11.76 8.8 24-5.48 5.92-24.76 18.4-34.76 23.92-34.8 19.16-75.652 29.12-103.68 1.32-59.848-59.2 30.14-116.6 89.04-99.8zm44.32 81.92c-1.6 4.32-11.24 26.8-15 32.2-17.44 24.8-22.52 26.24-22.84 26.64-3 .2-6.039-.4-8.719-1.8 8.2-10.84 20.96-20.04 32.04-46.64 5.52-3.6 10.719-7.4 14.519-10.4zm-74.4 333.6l-3.08 10.84-20.036-3.52c1.344-5.88 2.368-11.8 3.068-17.76 5.688 1.2 11.448 1.96 17.248 2.28-2.2 6.68-2.4 6.68-1.88 7.44.52.72 1.36.44 4.68.72zm118.32-208.32c-8.2-2.2-15.96-5.68-23.04-10.36a101.647 101.647 0 01-40.56-53.2 225.91 225.91 0 0014.36-35.16c.08-.16.04-.36-.04-.52a.55.55 0 00-.4-.32c-.16-.08-.359-.04-.519.04-.16.08-.281.2-.321.4-11.52 30.76-28.68 59.12-50.64 83.56-29.16 22.36-111.132 3.32-147.62-58.24 3.984-16.16 29.404-58.28 49.056-76.68-1.008 14.12 4.816 29.56 20.484 45.08 32.224 31.88 80.84 16.28 118.92-8.32-11.72 24.52-24.8 33.48-33.24 45.04-.12.12-.2.28-.24.44-.04.16-.04.32-.04.48.04.16.08.32.16.48.12.12.2.28.36.36 2.96 2.12 6.6 3.08 10.24 2.72 1.28-.24 2.521-.8 3.601-1.6 7.04-5.76 13.119-12.6 18.079-20.2 8.24-12.52 14.601-26.2 18.921-40.56 2-1.52 3.88-3.24 5.6-5.12.16-.24.239-.52.199-.8-.32-2.68-.679-4.96-1.039-6.96a54.393 54.393 0 018.079-4.04c1.48 0 6.121 1.24 10.321 1.96-.28-.68 10.999 20.44 7.319 63.12 0 1.56 11.2 33.28 33.4 58.8-8 5.52-15.2 12.12-21.4 19.6zm165.999-180.68c5.36-.72 28.68-.68 29.24-.68.32 3.4 1.32 12.44 1.32 12.44l-20.68 1.68v42.36c-1.68-.8-3.56-1.16-5.44-1.08-1.84.08-3.68.64-5.28 1.56.6-25.2.88-55.36.84-56.28zm-2 65.92c.2-2.32 1.24-4.52 2.88-6.16.12-.08.24-.12.36-.12s.28.04.36.12c-.84 1.88-1.52 3.84-2.04 5.8 0 1.68 1.12 8.04-.4 5.6a7.412 7.412 0 01-1.16-5.24zm-55.958 33.72l2.56.2c.32.08.559.24.759.48.2.28.281.56.241.88 0 .32-.161.6-.401.84-.2.2-.52.32-.8.36l-2.6-.24c-.28-.08-.519-.24-.679-.52-.16-.24-.241-.52-.201-.84 0-.28.16-.56.36-.76.2-.2.481-.36.761-.36v-.04zm-20.761-46.2c3.28-17.08 19.84-21.84 17.96-20.48-10.76 8.12-12.68 12.12-15.72 21.48-1.32 3.92-3.32 28.2-4.6 28.2-.8.04.28-18.44 2.36-29.2zm10.361 47.32l-2.56-.48c-.16-.04-.32-.12-.44-.2a.787.787 0 01-.361-.36c-.08-.12-.159-.28-.199-.44 0-.16 0-.36.04-.52 0-.16.079-.32.159-.44.12-.16.241-.24.361-.36.16-.08.32-.16.48-.16.16-.04.32-.04.48 0l2.48.48c.32.08.639.24.839.52.16.28.241.64.201.96-.08.32-.28.6-.56.8-.28.2-.6.28-.92.2zm-14.04-6.52l2.359.88c.32.12.561.36.721.64.12.32.159.68.039 1-.12.32-.359.56-.639.72-.32.12-.68.16-1 .04l-2.4-.88c-.32-.16-.561-.4-.681-.72-.12-.28-.12-.64 0-.96.12-.28.361-.56.641-.68.32-.16.68-.16.96-.04zm-46.201 102.92c0-1.8-.48-3.56-1.4-5.12a9.631 9.631 0 00-3.879-3.6 13.085 13.085 0 00-8.841-1.48c-.24-.52-.4-1.12-.44-1.68 0-1.16.84-1.48 2.04-1.52 4.16.32 8.161 1.56 11.801 3.64.68 1.64 1.639 3.16 2.799 4.52-.08 1.92-.84 3.76-2.08 5.24zm58.681-12.8c-13.96 13.08-32 19.92-48.4 10.24-11.2-6.56-11.48-15.96-6.12-27.56 8.84-19.56 24.079-38.84 36.319-48.4.2 0 58.64 15.32 58.64 15.32-4.16 8.72-35.439 45.88-40.439 50.4zm24.52-84.12h2.52c.28.04.559.2.759.44.2.24.32.52.32.84 0 .32-.12.6-.32.84s-.479.4-.759.44h-2.52c-.28-.08-.481-.24-.641-.48-.16-.2-.24-.48-.24-.76s.08-.52.24-.76c.16-.2.361-.4.641-.48v-.08zm15.319 2l-2.52.2c-.32 0-.639-.16-.839-.36-.24-.2-.361-.52-.361-.84-.04-.28.04-.6.24-.84.2-.24.44-.44.76-.48l2.52-.24c.36 0 .681.08.961.32.28.24.44.56.44.92.04.32-.081.68-.281.96-.24.24-.56.4-.92.44v-.08zm111.599-23l-2.88 44.84c-4.92.36-107.319 9.48-107.319 9.48.36-2.08 5.679-99.84-20.159-107.56 7.04 0 26.998-.36 45.758-1.48 0 10.52.72 32.28.72 32.6a11.49 11.49 0 00-3.92 5.76c-.68 2.32-.6 4.76.16 7 .76 2.28 2.2 4.24 4.12 5.64 1.92 1.4 4.24 2.2 6.6 2.24 2.4.04 4.72-.64 6.72-1.96 1.96-1.32 3.48-3.24 4.36-5.48.84-2.2 1-4.64.4-6.96a11.45 11.45 0 00-3.64-5.96v-32.48c5 .2 31.76 1.2 41.52 2.12 4.28.36 8.4 1.8 11.96 4.24 3.52 2.44 6.4 5.76 8.24 9.64 8.64 15.64 7.48 38.4 7.48 38.4l-.12-.08z" fill="#5dd89e"/></svg>