<svg width="1000" height="993" fill="none" xmlns="http://www.w3.org/2000/svg"><path d="M884.892 833.557c-20.392 20.872-39.686 34.331-54.93 44.966-179.19 124.997-391.22 88.564-436.282 79.666-66.543-13.14-195.17-38.539-288.164-144.863-140.692-160.859-118.785-414.287-9.654-581.579 19.962-30.6 125.405-200.44 339.719-227.677 129.7-16.484 280.889 16.762 390.376 105.944 229.823 187.2 213.463 565.379 58.935 723.543z" fill="url(#paint0_linear_2465_21273)"/><path d="M379.027 884.342c-58.277 11.51-132.515-52.17-156.317-121.605-24.494-71.456 20.792-101.259 20.675-200.334-.133-112.546-58.638-129.645-97.007-281.436-8.657-34.247-58.754-232.433 3.997-269.412 58.021-34.192 220.539 64.703 248.769 190.86 20.13 89.957-42.835 127.559-19.066 232.332 20.856 91.931 76.23 93.39 97.24 182.087 25.578 107.981-21.772 252.395-98.291 267.508z" fill="#6FDCA9"/><path d="M374.733 911.599c15.986-121.222-14.209-308.366-42.355-444.014-30.472-146.863-65.168-266.679-65.514-267.873l-4.851 1.411c.346 1.192 34.994 120.849 65.427 267.524 28.062 135.254 58.177 321.78 42.284 442.292l5.009.66z" fill="#BAEFD6"/><path d="M269.807 854.264c82.438-30.941 125.875-166.397 87.306-216.843-26.059-34.085-72.659-7.254-109.999-43.845-47.676-46.719.262-117.92-29.083-221.417-24.973-88.077-99.708-177.648-151.01-167.391-53.703 10.736-87.7 134.598-52.878 216.012 22.645 52.944 57.645 59.895 61.561 107.047 4.543 54.713-51.8 72.543-58.398 124.246-11.85 92.873 143.443 243.122 252.501 202.191z" fill="#BAEFD6"/><path d="M223.649 884.683a3.181 3.181 0 003.391-4.191c-76.954-224.28-77.145-473.607-77.139-476.099a3.18 3.18 0 10-6.36-.018c-.008 2.503.185 252.901 77.482 478.181a3.181 3.181 0 002.626 2.127z" fill="url(#paint1_linear_2465_21273)"/><path d="M61.666 458.201a1.518 1.518 0 001.486-2.29C35.791 410.321 7.464 343.388 27.91 283.408c12.175-35.721 36.2-52.197 36.44-52.359a1.52 1.52 0 10-1.696-2.522c-1.02.685-25.118 17.218-37.622 53.901-11.491 33.714-14.658 91.451 35.514 175.046a1.52 1.52 0 001.12.727z" fill="url(#paint2_linear_2465_21273)"/><path d="M279.05 836.623c.481.059.982-.114 1.325-.504 58.717-66.676 82.568-120.818 70.889-160.921-10.383-35.655-46.259-46.428-46.621-46.533a1.52 1.52 0 00-.847 2.92c.346.101 34.667 10.452 44.56 44.501 11.341 39.036-12.298 92.202-70.262 158.023a1.52 1.52 0 00.956 2.514z" fill="#F0F0F0"/><path d="M753.133 235.702a4.539 4.539 0 01-4.348-4.721 173.27 173.27 0 00-.026-14.701 4.537 4.537 0 014.244-4.729l.088-.005a4.537 4.537 0 014.734 4.333c.228 5.147.238 10.354.027 15.476a4.537 4.537 0 01-4.719 4.347zm-7.063-43.151a173.928 173.928 0 00-3.257-14.331 4.539 4.539 0 013.184-5.571 4.539 4.539 0 015.572 3.186 182.86 182.86 0 013.428 15.08 4.538 4.538 0 01-8.927 1.636zm-11.121-36.866a171.605 171.605 0 00-6.372-13.24 4.538 4.538 0 018.001-4.284 180.49 180.49 0 016.71 13.943 4.54 4.54 0 01-3.882 6.321 4.541 4.541 0 01-4.457-2.74zm-19.086-33.453a172.263 172.263 0 00-9.173-11.488 4.54 4.54 0 01.44-6.403 4.544 4.544 0 016.403.441 182.746 182.746 0 019.658 12.094 4.538 4.538 0 01-7.328 5.356zM689.8 93.864a174.523 174.523 0 00-11.492-9.17 4.54 4.54 0 01-.985-6.343 4.536 4.536 0 016.342-.983 183.765 183.765 0 0112.09 9.65 4.537 4.537 0 11-5.955 6.846zm-31.691-21.893a173.968 173.968 0 00-13.232-6.4 4.537 4.537 0 113.601-8.331 182.918 182.918 0 0113.927 6.735 4.54 4.54 0 01-1.865 8.527 4.511 4.511 0 01-2.431-.531zm-168.495-2.113a4.537 4.537 0 011.869-6.139 180.449 180.449 0 0113.961-6.687 4.536 4.536 0 015.955 2.39 4.536 4.536 0 01-2.39 5.955 171.013 171.013 0 00-13.256 6.351 4.539 4.539 0 01-6.139-1.87zm132.763-12.203a171.406 171.406 0 00-14.316-3.286 4.538 4.538 0 01-3.638-5.288c.455-2.465 2.821-4.08 5.287-3.637a180.615 180.615 0 0115.075 3.462 4.539 4.539 0 01-.917 8.905 4.547 4.547 0 01-1.491-.155zM526 54.36a4.538 4.538 0 013.196-5.565 184.019 184.019 0 0115.095-3.4c2.467-.459 4.827 1.191 5.275 3.656a4.54 4.54 0 01-3.657 5.275 174.068 174.068 0 00-14.345 3.232A4.54 4.54 0 01526 54.359zm58.347-2.673c-4.871-.21-9.815-.212-14.696-.005a4.537 4.537 0 11-.385-9.066c5.138-.22 10.344-.217 15.47.002a4.538 4.538 0 01-.389 9.069zM467.264 89.729a4.516 4.516 0 002.53-.974 176.315 176.315 0 015.626-4.284 4.536 4.536 0 00.991-6.34 4.533 4.533 0 00-6.34-.99 181.762 181.762 0 00-5.92 4.505 4.537 4.537 0 003.113 8.083z" opacity=".3" fill="#BAEFD6"/><path d="M401.109 211.234a4.537 4.537 0 004.224-4.096c.223-2.328.498-4.692.819-7.023a4.538 4.538 0 00-3.876-5.114 4.532 4.532 0 00-5.115 3.877 183.062 183.062 0 00-.862 7.396 4.54 4.54 0 004.81 4.96zm178.006 193.723a4.539 4.539 0 01-.13-9.075c4.771-.068 9.613-.342 14.447-.812 2.481-.25 4.713 1.584 4.956 4.078a4.54 4.54 0 01-4.077 4.957 183.454 183.454 0 01-15.196.852zm34.129-8.282a4.536 4.536 0 013.368-5.46 173.642 173.642 0 0013.926-3.923c2.376-.787 4.945.518 5.726 2.899a4.539 4.539 0 01-2.9 5.724 181.876 181.876 0 01-14.658 4.13 4.54 4.54 0 01-5.462-3.37zm-58.82 6.943a180.936 180.936 0 01-15.019-2.501 4.54 4.54 0 01-3.507-5.376 4.54 4.54 0 015.375-3.506c4.706.991 9.503 1.789 14.261 2.375a4.539 4.539 0 01-1.11 9.008zm95.795-19.087a4.538 4.538 0 012.087-6.068 171.582 171.582 0 0012.716-6.887 4.535 4.535 0 016.223 1.568 4.535 4.535 0 01-1.567 6.221 180.941 180.941 0 01-13.391 7.253 4.516 4.516 0 01-1.701.453 4.54 4.54 0 01-4.367-2.54zm-134.587 9.85a181.102 181.102 0 01-14.097-5.741 4.537 4.537 0 113.773-8.253 172.442 172.442 0 0013.389 5.452 4.537 4.537 0 01-1.247 8.801 4.499 4.499 0 01-1.818-.259zm-35.827-17.52a183.675 183.675 0 01-12.506-8.677 4.54 4.54 0 01-.877-6.358 4.534 4.534 0 016.357-.876 174.856 174.856 0 0011.884 8.246 4.538 4.538 0 11-4.858 7.665zm-31.158-24.913a183.332 183.332 0 01-10.319-11.194 4.537 4.537 0 01.529-6.395 4.535 4.535 0 016.395.528c3.101 3.661 6.4 7.239 9.805 10.637a4.537 4.537 0 01-2.916 7.74 4.525 4.525 0 01-3.494-1.316zm-24.981-31.117a180.587 180.587 0 01-7.618-13.189 4.538 4.538 0 018.044-4.201 171.535 171.535 0 007.234 12.524 4.536 4.536 0 01-3.538 6.962 4.538 4.538 0 01-4.122-2.096zm-17.542-35.863a180.864 180.864 0 01-4.521-14.533 4.537 4.537 0 118.771-2.33 172.265 172.265 0 004.294 13.805 4.538 4.538 0 01-8.544 3.058zm-9.23-38.8A184.78 184.78 0 01395.632 231c-.104-2.503 1.808-4.665 4.345-4.721a4.537 4.537 0 014.724 4.344 175.451 175.451 0 001.197 14.419 4.536 4.536 0 01-4.219 5.092 4.536 4.536 0 01-4.785-3.966zm290.638 119.997a4.522 4.522 0 002.549-.988 182.812 182.812 0 005.707-4.775 4.538 4.538 0 00-5.965-6.84 173.54 173.54 0 01-5.421 4.536 4.537 4.537 0 003.13 8.067z" opacity=".3" fill="#6FDCA9"/><path d="M696.104 288.845a2.12 2.12 0 00.004-2.462l-14.949-21.044a112.443 112.443 0 008.259-35.482l22.683-12.286a2.12 2.12 0 001.082-2.212l-5.066-30.545a2.12 2.12 0 00-1.738-1.744l-25.435-4.306a112.426 112.426 0 00-19.27-30.917l7.357-24.742a2.123 2.123 0 00-.799-2.329l-25.181-18.017a2.12 2.12 0 00-2.462-.004l-21.044 14.95a112.41 112.41 0 00-35.482-8.26l-12.286-22.683a2.12 2.12 0 00-2.211-1.082l-30.546 5.066a2.12 2.12 0 00-1.744 1.738l-4.307 25.435a112.42 112.42 0 00-30.916 19.27l-24.743-7.357a2.122 2.122 0 00-2.329.799l-18.017 25.181a2.123 2.123 0 00-.004 2.462l14.95 21.044a112.41 112.41 0 00-8.259 35.481l-22.683 12.286a2.12 2.12 0 00-1.082 2.212l5.065 30.545a2.121 2.121 0 001.739 1.744l25.435 4.307a112.42 112.42 0 0019.27 30.916l-7.357 24.743a2.12 2.12 0 00.799 2.329l25.181 18.017a2.121 2.121 0 002.462.004l21.044-14.949a112.437 112.437 0 0035.481 8.259l12.286 22.683a2.122 2.122 0 002.212 1.082l30.545-5.066a2.119 2.119 0 001.744-1.738l4.307-25.434a112.447 112.447 0 0030.916-19.271l24.743 7.357a2.12 2.12 0 002.329-.799l18.017-25.181z" fill="#6FDCA9"/><path d="M573.957 253.344c-17.102-1.423-29.859-16.491-28.438-33.595.688-8.285 4.563-15.806 10.908-21.176 6.343-5.371 14.4-7.952 22.686-7.261 17.103 1.423 29.859 16.491 28.438 33.595-1.294 15.559-13.882 27.521-29.023 28.482a31.332 31.332 0 01-4.571-.045zm-12.839-49.23a23.714 23.714 0 00-8.364 16.237c-1.089 13.112 8.692 24.668 21.804 25.757 13.116 1.095 24.668-8.691 25.758-21.804 1.089-13.112-8.691-24.668-21.804-25.757a24.056 24.056 0 00-3.539-.035c-5.078.323-9.901 2.256-13.855 5.602z" fill="#BAEFD6"/><path d="M580.74 298.292a77.959 77.959 0 0010.267-1.341 77.11 77.11 0 0011.792-3.34l.156-.058c.147-.056.295-.111.442-.169.287-.108.573-.221.858-.333a1.814 1.814 0 10-1.335-3.375 73.277 73.277 0 01-14.96 4.14c-25.483 4.23-50.119-5.375-66.22-23.301a72.454 72.454 0 01-17.621-36.688 74.255 74.255 0 01-.853-7.453c-1.057-16.693 3.619-33.104 13.483-46.89 11.33-15.835 28.15-26.311 47.358-29.496 39.671-6.575 77.265 20.336 83.841 59.988.405 2.444.685 4.901.84 7.358a72.656 72.656 0 01-4.908 31.259 1.813 1.813 0 001.023 2.354 1.815 1.815 0 002.355-1.023 76.317 76.317 0 005.154-32.818 76.986 76.986 0 00-.882-7.723c-6.904-41.631-46.4-69.878-88.016-62.977-20.166 3.344-37.822 14.342-49.716 30.966-10.357 14.472-15.265 31.701-14.156 49.225.166 2.604.464 5.215.895 7.824 3.345 20.167 14.342 37.823 30.966 49.718 14.475 10.358 31.71 15.265 49.237 14.153z" fill="#BAEFD6"/><path d="M915.73 345.231a2.8 2.8 0 002.554-2.181c.525-2.32.986-4.689 1.37-7.039a2.802 2.802 0 00-2.313-3.218 2.797 2.797 0 00-3.218 2.313 115.358 115.358 0 01-1.306 6.712 2.803 2.803 0 002.913 3.413zm2.511-21.374a2.803 2.803 0 01-2.692-2.908 116.472 116.472 0 00-.334-14.232 2.805 2.805 0 012.558-3.028c1.463-.065 2.897 1.015 3.029 2.558a121.876 121.876 0 01.346 14.917 2.804 2.804 0 01-2.907 2.693zm-5.086-31.224a116.21 116.21 0 00-3.763-13.723 2.801 2.801 0 115.304-1.813 121.34 121.34 0 013.945 14.387 2.805 2.805 0 01-2.57 3.372 2.804 2.804 0 01-2.916-2.223zm-9.198-26.88a115.02 115.02 0 00-7.022-12.381 2.804 2.804 0 014.696-3.062 120.787 120.787 0 017.364 12.984 2.803 2.803 0 11-5.038 2.459zm-15.52-23.799a115.563 115.563 0 00-9.836-10.282 2.803 2.803 0 013.803-4.12 121.386 121.386 0 0110.315 10.785 2.805 2.805 0 01-.332 3.951 2.796 2.796 0 01-1.628.654 2.795 2.795 0 01-2.322-.988zm-20.861-19.288a116.686 116.686 0 00-12.038-7.587 2.802 2.802 0 01-1.111-3.804 2.799 2.799 0 013.804-1.112 122.504 122.504 0 0112.619 7.951 2.803 2.803 0 01-3.274 4.552zm-24.911-13.64a114.882 114.882 0 00-13.513-4.416 2.804 2.804 0 011.408-5.427 120.733 120.733 0 0114.174 4.632 2.804 2.804 0 01-2.069 5.211zm-27.478-7.131a115.206 115.206 0 00-14.196-.964 2.804 2.804 0 01-2.785-2.82c.009-1.548 1.27-2.771 2.821-2.788 4.974.033 9.982.373 14.885 1.014a2.805 2.805 0 012.417 3.143 2.806 2.806 0 01-3.142 2.415zm-45.804.286a2.8 2.8 0 012.058-3.386 121.829 121.829 0 0112.74-2.391c.651-.091 1.3-.171 1.95-.247 1.525-.223 2.93.922 3.106 2.463a2.803 2.803 0 01-2.461 3.107c-.61.069-1.221.146-1.842.232a116.343 116.343 0 00-12.166 2.281 2.8 2.8 0 01-3.385-2.059zm36.78 235.112a122.1 122.1 0 01-14.671-.146 2.805 2.805 0 01-2.598-2.995c.108-1.545 1.459-2.692 2.994-2.598 4.631.329 9.339.375 13.993.141a2.8 2.8 0 012.94 2.657 2.804 2.804 0 01-2.658 2.941zm11.354-3.908a2.8 2.8 0 012.286-3.235 117.146 117.146 0 0013.634-3.2 2.802 2.802 0 011.606 5.372 122.436 122.436 0 01-14.289 3.351 2.8 2.8 0 01-3.237-2.288zm-40.58 1.83a121.443 121.443 0 01-14.205-3.689 2.804 2.804 0 011.735-5.332 116.382 116.382 0 0013.55 3.523 2.8 2.8 0 11-1.08 5.498zm68.199-9.396a2.804 2.804 0 011.442-3.693c4.263-1.87 8.453-4.02 12.455-6.393a2.809 2.809 0 013.84.979 2.803 2.803 0 01-.981 3.841 120.309 120.309 0 01-13.063 6.707 2.806 2.806 0 01-3.693-1.441zm-96.047.32a122.015 122.015 0 01-12.898-6.997 2.805 2.805 0 01-.895-3.863 2.802 2.802 0 013.862-.895 115.019 115.019 0 0012.302 6.673 2.805 2.805 0 011.354 3.727 2.8 2.8 0 01-2.365 1.611 2.794 2.794 0 01-1.36-.256zm-24.861-15.494a122.47 122.47 0 01-10.853-9.881 2.802 2.802 0 014.016-3.908 117.295 117.295 0 0010.355 9.425 2.803 2.803 0 01-3.518 4.364zm-20.438-21.002a121.092 121.092 0 01-8.168-12.202 2.804 2.804 0 014.839-2.83 114.58 114.58 0 007.79 11.633 2.803 2.803 0 01-4.461 3.399zm168.823 23.165a2.785 2.785 0 001.535-.58 122.015 122.015 0 005.538-4.547 2.805 2.805 0 00.27-3.956 2.81 2.81 0 00-3.955-.269 116.491 116.491 0 01-5.283 4.339 2.803 2.803 0 001.895 5.013z" opacity=".3" fill="#BAEFD6"/><path d="M880.051 359.973a1.421 1.421 0 00.003-1.648l-10.004-14.081a75.26 75.26 0 005.527-23.743l15.178-8.221a1.42 1.42 0 00.724-1.48l-3.39-20.44a1.418 1.418 0 00-1.162-1.167l-17.02-2.881a75.24 75.24 0 00-12.895-20.689l4.923-16.556a1.422 1.422 0 00-.535-1.559l-16.85-12.056a1.418 1.418 0 00-1.647-.002l-14.081 10.003a75.239 75.239 0 00-23.743-5.526l-8.221-15.179a1.42 1.42 0 00-1.48-.724l-20.44 3.39a1.42 1.42 0 00-1.167 1.163l-2.881 17.02a75.211 75.211 0 00-20.688 12.895l-16.557-4.923a1.418 1.418 0 00-1.558.534l-12.057 16.85a1.421 1.421 0 00-.003 1.648l10.004 14.081a75.267 75.267 0 00-5.527 23.743l-15.178 8.221a1.418 1.418 0 00-.724 1.48l3.389 20.44a1.42 1.42 0 001.163 1.167l17.02 2.881a75.235 75.235 0 0012.895 20.688l-4.923 16.557c-.173.58.042 1.206.535 1.558l16.849 12.057a1.42 1.42 0 001.648.002l14.081-10.003A75.26 75.26 0 00795.002 391l8.221 15.178a1.42 1.42 0 001.48.724l20.44-3.39a1.42 1.42 0 001.167-1.163l2.881-17.019a75.235 75.235 0 0020.688-12.895l16.557 4.923a1.42 1.42 0 001.558-.535l12.057-16.85z" fill="#BAEFD6"/><path d="M798.286 336.59a21.05 21.05 0 01-14.427-7.429 21.051 21.051 0 01-4.945-15.453c.967-11.649 11.217-20.321 22.884-19.372 11.65.971 20.339 11.237 19.369 22.882a21.065 21.065 0 01-7.428 14.426c-3.514 2.974-7.799 4.691-12.311 4.977a21.563 21.563 0 01-3.142-.031zm-13.787-22.42a15.495 15.495 0 003.639 11.37 15.499 15.499 0 0010.61 5.465c4.152.34 8.188-.948 11.369-3.64a15.488 15.488 0 005.464-10.609c.713-8.569-5.678-16.12-14.247-16.834a15.8 15.8 0 00-2.29-.022c-7.587.481-13.897 6.476-14.545 14.27z" fill="#6FDCA9"/><path d="M803.008 367.873a53.41 53.41 0 005.334-.61 53.04 53.04 0 0010.381-2.822l.45-.177a2.804 2.804 0 001.575-3.637 2.806 2.806 0 00-3.636-1.574 47.391 47.391 0 01-9.684 2.68h-.002c-.182.03-.365.058-.545.086a46.72 46.72 0 01-23.01-2.162 47.436 47.436 0 01-11.279-5.853l-.086-.06c-.088-.063-.175-.123-.261-.186-10.251-7.336-17.034-18.224-19.095-30.659a47.769 47.769 0 01-.553-4.825c-.685-10.806 2.344-21.43 8.729-30.357 7.336-10.251 18.224-17.03 30.658-19.092 12.427-2.056 24.929.842 35.181 8.175 10.251 7.335 17.034 18.223 19.095 30.659.264 1.582.444 3.172.545 4.762a47.048 47.048 0 01-3.177 20.236 2.803 2.803 0 105.215 2.055 52.664 52.664 0 003.557-22.64 52.96 52.96 0 00-.609-5.329c-2.308-13.915-9.894-26.095-21.365-34.302-11.469-8.204-25.44-11.465-39.358-9.147-13.913 2.307-26.094 9.892-34.299 21.364-7.146 9.984-10.532 21.871-9.766 33.961.114 1.794.319 3.597.617 5.396 4.467 26.936 28.704 45.752 55.388 44.058z" fill="#6FDCA9"/><path d="M113.88 861.954c0 8.272 6.775 15.041 15.055 15.041h814.129c8.28 0 15.055-6.769 15.055-15.041l6.775-467.857c0-8.272-9.747-24.422-27.609-23.209l-795.656-20.587a37.978 37.978 0 00-27.792 11.063 37.9 37.9 0 00-11.137 27.74l11.18 472.85z" fill="url(#paint3_linear_2465_21273)"/><path d="M128.744 847.523c0 7.834 6.409 14.244 14.243 14.244h780.444c7.834 0 14.243-6.41 14.243-14.244l6.393-424.724c-.753-25.559-23.161-34.746-36.744-34.203l-762.564-20.459a26.645 26.645 0 00-19.526 7.773 26.639 26.639 0 00-7.83 19.513l11.341 452.1z" fill="url(#paint4_linear_2465_21273)"/><path opacity=".32" d="M150.03 838.28c0 7.435 6.084 13.519 13.519 13.519h740.725c7.435 0 13.519-6.084 13.519-13.519l6.067-403.11c-.714-24.258-21.982-32.977-34.874-32.462L165.23 383.291a25.287 25.287 0 00-18.532 7.378 25.277 25.277 0 00-7.431 18.519L150.03 838.28z" fill="#BAEFD6"/><path d="M929.241 587.382h-.031c-1.154-.013-2.075-.744-2.057-1.635l.505-26.578c.017-.881.948-1.587 2.086-1.587h.031c1.153.013 2.075.744 2.057 1.635l-.505 26.578c-.017.881-.948 1.587-2.086 1.587zm1.24-65.131h-.021c-1.164-.013-2.085-.746-2.067-1.635l1.937-101.797c-.037-6.047-2.415-10.874-7.071-14.317-8.69-6.424-22.487-6.096-23.069-6.075l-243.732-5.043c-1.152-.023-2.061-.764-2.03-1.653.03-.889.915-1.646 2.143-1.566l243.587 5.043c1.516-.069 16.206-.265 25.989 6.968 5.503 4.069 8.315 9.675 8.357 16.659l-1.938 101.829c-.017.881-.948 1.587-2.085 1.587z" fill="#BAEFD6"/><path d="M74.226 915.832h914.522a2.02 2.02 0 002.015-2.015v-37.078a2.02 2.02 0 00-2.015-2.014H74.226a2.02 2.02 0 00-2.015 2.014v37.078a2.02 2.02 0 002.015 2.015z" fill="url(#paint5_linear_2465_21273)"/><path d="M387.641 432.772l-210.796-1.476a.882.882 0 01-.874-.887l.119-16.982a.88.88 0 01.886-.874l210.796 1.476a.882.882 0 01.874.887l-.119 16.981a.88.88 0 01-.886.875zm133.085 1.339l-72.893-.511a.845.845 0 01-.839-.851l.12-17.053a.845.845 0 01.85-.839l72.893.511a.845.845 0 01.839.851l-.119 17.053a.846.846 0 01-.851.839zm161.809 1.133l-143.891-1.008a1.704 1.704 0 01-1.692-1.716l.107-15.335a1.705 1.705 0 011.717-1.692l143.889 1.008a1.706 1.706 0 011.693 1.716l-.108 15.335a1.703 1.703 0 01-1.715 1.692zm-451.826 29.37l-53.612-.376a1.683 1.683 0 01-1.672-1.696l.107-15.375a1.684 1.684 0 011.697-1.672l53.612.376c.93.006 1.679.766 1.672 1.696l-.108 15.374a1.685 1.685 0 01-1.696 1.673zm157.121 1.135l-152.821-1.071a.88.88 0 01-.874-.886l.119-16.982a.88.88 0 01.886-.874l152.821 1.07a.881.881 0 01.875.887l-.119 16.981a.882.882 0 01-.887.875zm133.264 1.34l-72.892-.51a.844.844 0 01-.839-.851l.119-17.053a.844.844 0 01.851-.839l72.893.511a.845.845 0 01.839.851l-.12 17.053a.844.844 0 01-.851.838zm281.804 1.974l-212.376-1.488a1.704 1.704 0 01-1.692-1.716l.108-15.335a1.704 1.704 0 011.716-1.692l212.375 1.487a1.704 1.704 0 011.692 1.717l-.107 15.334a1.706 1.706 0 01-1.716 1.693zm-572.461 28.475l-53.612-.375a1.684 1.684 0 01-1.672-1.696l.107-15.375a1.684 1.684 0 011.697-1.672l53.612.376c.93.006 1.679.765 1.672 1.696l-.108 15.374a1.683 1.683 0 01-1.696 1.672zm157.089 1.135l-152.821-1.071a.88.88 0 01-.875-.886l.119-16.982a.882.882 0 01.887-.875l152.821 1.071a.88.88 0 01.874.886l-.119 16.982a.88.88 0 01-.886.875zm133.283 1.34l-72.893-.51a.845.845 0 01-.838-.851l.119-17.053a.845.845 0 01.851-.839l72.893.51a.845.845 0 01.838.851l-.119 17.053a.845.845 0 01-.851.839zm373.66 2.618l-277.772-1.945a1.705 1.705 0 01-1.692-1.717l.107-15.334a1.706 1.706 0 011.716-1.693l277.772 1.946a1.705 1.705 0 011.693 1.716l-.108 15.335a1.704 1.704 0 01-1.716 1.692zm-663.805 27.886l-53.612-.376a1.685 1.685 0 01-1.673-1.696l.108-15.374a1.685 1.685 0 011.696-1.673l53.612.376c.93.006 1.679.766 1.672 1.696l-.107 15.375a1.685 1.685 0 01-1.696 1.672zm157.443 1.136l-152.821-1.07a.88.88 0 01-.874-.887l.119-16.982a.88.88 0 01.886-.874l152.821 1.07a.882.882 0 01.875.887l-.119 16.982a.88.88 0 01-.887.874zm133.071 1.339l-72.893-.511a.845.845 0 01-.839-.851l.12-17.053a.845.845 0 01.851-.839l72.892.511a.844.844 0 01.839.851l-.119 17.053a.846.846 0 01-.851.839zm374.539 2.622l-277.772-1.945a1.705 1.705 0 01-1.693-1.716l.108-15.335a1.704 1.704 0 011.716-1.692l277.772 1.945a1.704 1.704 0 011.692 1.716l-.107 15.335a1.704 1.704 0 01-1.716 1.692zm-665.465 29.115l-53.612-.376a1.685 1.685 0 01-1.673-1.696l.108-15.374a1.685 1.685 0 011.696-1.673l53.612.376c.93.006 1.679.766 1.672 1.696l-.107 15.374a1.684 1.684 0 01-1.696 1.673zm157.309 1.136l-152.821-1.07a.882.882 0 01-.875-.887l.119-16.982a.882.882 0 01.887-.874l152.821 1.07a.88.88 0 01.874.886l-.119 16.982a.88.88 0 01-.886.875zm133.151 1.339l-72.893-.51a.845.845 0 01-.839-.851l.12-17.053a.845.845 0 01.851-.839l72.892.511a.844.844 0 01.839.851l-.119 17.053a.845.845 0 01-.851.838zm374.207 2.621l-277.772-1.945a1.705 1.705 0 01-1.692-1.716l.107-15.335a1.704 1.704 0 011.716-1.692l277.772 1.945a1.704 1.704 0 011.692 1.716l-.107 15.335a1.703 1.703 0 01-1.716 1.692zm-664.44 27.881l-53.612-.375a1.686 1.686 0 01-1.673-1.696l.108-15.375a1.683 1.683 0 011.696-1.672l53.612.376c.93.006 1.679.765 1.672 1.696l-.108 15.374a1.683 1.683 0 01-1.695 1.672zm157.663 1.138l-152.821-1.07a.88.88 0 01-.874-.887l.119-16.981a.88.88 0 01.886-.875l152.822 1.07a.882.882 0 01.874.887l-.119 16.982a.88.88 0 01-.887.874zm132.938 1.337l-72.893-.51a.845.845 0 01-.838-.851l.119-17.053a.844.844 0 01.851-.839l72.893.51a.844.844 0 01.838.851l-.119 17.053a.845.845 0 01-.851.839zm185.264 1.298l-168.863-1.183a1.705 1.705 0 01-1.692-1.716l.107-15.335a1.704 1.704 0 011.716-1.692l168.863 1.183a1.704 1.704 0 011.692 1.716l-.107 15.334a1.705 1.705 0 01-1.716 1.693zM387.952 631.77l-211.954-1.484a.882.882 0 01-.874-.887l.119-16.982a.882.882 0 01.887-.874l211.953 1.485a.88.88 0 01.875.886l-.119 16.982a.88.88 0 01-.887.874zm132.843 1.337l-72.893-.511a.844.844 0 01-.838-.851l.119-17.053a.844.844 0 01.851-.838l72.892.51a.844.844 0 01.839.851l-.119 17.053a.847.847 0 01-.851.839zm266.647 1.867l-211.366-1.48a1.704 1.704 0 01-1.692-1.716l.107-15.335a1.705 1.705 0 011.716-1.692l211.366 1.48a1.705 1.705 0 011.693 1.716l-.108 15.335a1.703 1.703 0 01-1.716 1.692zm-559.153 28.619l-51.334-.36a1.683 1.683 0 01-1.672-1.696l.107-15.374a1.686 1.686 0 011.697-1.673l51.333.36c.93.006 1.68.766 1.673 1.696l-.108 15.374a1.686 1.686 0 01-1.696 1.673zm160.131 1.156l-152.821-1.071a.88.88 0 01-.875-.886l.119-16.982a.88.88 0 01.887-.874l152.821 1.07a.88.88 0 01.874.887l-.119 16.981a.88.88 0 01-.886.875zm132.744 1.335l-72.893-.511a.845.845 0 01-.839-.851l.12-17.053a.844.844 0 01.85-.839l72.893.511a.845.845 0 01.839.851l-.119 17.053a.846.846 0 01-.851.839zm374.917 2.627l-287.322-2.013a1.705 1.705 0 01-1.693-1.716l.108-15.335a1.705 1.705 0 011.716-1.692l287.323 2.012a1.705 1.705 0 011.692 1.716l-.107 15.335a1.707 1.707 0 01-1.717 1.693zm-667.518 93.286l-53.612-.375a1.686 1.686 0 01-1.673-1.696l.108-15.375a1.684 1.684 0 011.696-1.672l53.612.376c.93.006 1.679.765 1.672 1.695l-.108 15.375a1.683 1.683 0 01-1.695 1.672zm157.739 1.14l-152.822-1.07a.88.88 0 01-.874-.886l.119-16.982a.882.882 0 01.887-.875l152.821 1.071a.88.88 0 01.874.886l-.119 16.982a.88.88 0 01-.886.874zm132.862 1.337l-72.893-.511a.844.844 0 01-.838-.85l.119-17.053a.844.844 0 01.851-.839l72.893.51a.845.845 0 01.838.851l-.119 17.053a.845.845 0 01-.851.839zm185.264 1.298l-168.863-1.183a1.705 1.705 0 01-1.692-1.716l.107-15.335a1.704 1.704 0 011.717-1.692l168.862 1.182a1.704 1.704 0 011.692 1.717l-.107 15.334a1.706 1.706 0 01-1.716 1.693zm-318.317 30.292l-211.954-1.485a.88.88 0 01-.874-.887l.119-16.982a.88.88 0 01.886-.874l211.954 1.484a.88.88 0 01.874.887l-.119 16.982a.88.88 0 01-.886.875zm132.768 1.334l-72.893-.511a.845.845 0 01-.839-.851l.12-17.053a.844.844 0 01.851-.838l72.892.51a.844.844 0 01.839.851l-.119 17.053a.846.846 0 01-.851.839zm266.532 1.868l-211.366-1.48a1.704 1.704 0 01-1.692-1.716l.107-15.335a1.705 1.705 0 011.716-1.692l211.366 1.48a1.706 1.706 0 011.693 1.716l-.108 15.335a1.704 1.704 0 01-1.716 1.692zm-559.039 28.619l-51.333-.36a1.684 1.684 0 01-1.673-1.696l.108-15.374a1.685 1.685 0 011.696-1.673l51.334.36c.93.006 1.679.766 1.672 1.696l-.107 15.374a1.686 1.686 0 01-1.697 1.673zm160.206 1.157l-152.821-1.071a.88.88 0 01-.874-.886l.119-16.982a.88.88 0 01.886-.874l152.822 1.07a.88.88 0 01.874.887l-.119 16.981a.881.881 0 01-.887.875zm132.67 1.334l-72.893-.51a.845.845 0 01-.839-.851l.119-17.053a.846.846 0 01.851-.839l72.893.511a.845.845 0 01.839.851l-.12 17.053a.844.844 0 01-.85.838zm374.801 2.626l-287.322-2.013a1.704 1.704 0 01-1.692-1.716l.107-15.335a1.705 1.705 0 011.716-1.692l287.323 2.012a1.705 1.705 0 011.692 1.716l-.107 15.335a1.706 1.706 0 01-1.717 1.693zM227.414 697.124l-51.333-.36a1.684 1.684 0 01-1.673-1.696l.108-15.374a1.683 1.683 0 011.696-1.672l51.334.359c.93.006 1.679.766 1.672 1.696l-.108 15.375a1.683 1.683 0 01-1.696 1.672zm159.589 1.152l-152.821-1.07a.88.88 0 01-.875-.887l.119-16.982a.882.882 0 01.887-.874l152.821 1.07a.88.88 0 01.874.887l-.119 16.982a.88.88 0 01-.886.874zm133.054 1.338l-72.893-.511a.845.845 0 01-.839-.851l.12-17.053a.845.845 0 01.851-.839l72.892.511a.844.844 0 01.839.851l-.119 17.053a.847.847 0 01-.851.839zm373.566 2.616l-287.322-2.012a1.706 1.706 0 01-1.693-1.716l.108-15.335a1.704 1.704 0 011.716-1.692l287.323 2.012a1.705 1.705 0 011.692 1.716l-.108 15.335a1.704 1.704 0 01-1.716 1.692zm-666 27.869l-51.334-.359a1.683 1.683 0 01-1.672-1.696l.107-15.375a1.684 1.684 0 011.697-1.672l51.333.36c.93.006 1.679.765 1.673 1.696l-.108 15.374a1.684 1.684 0 01-1.696 1.672zm159.962 1.156l-152.821-1.071a.88.88 0 01-.875-.886l.119-16.982a.882.882 0 01.887-.875l152.821 1.071a.88.88 0 01.874.886l-.119 16.982a.88.88 0 01-.886.875zm132.84 1.336l-72.892-.511a.844.844 0 01-.839-.85l.119-17.053a.844.844 0 01.851-.839l72.893.511a.844.844 0 01.839.85l-.12 17.053a.845.845 0 01-.851.839zm374.495 2.624l-287.322-2.013a1.704 1.704 0 01-1.693-1.716l.108-15.335a1.704 1.704 0 011.716-1.692l287.322 2.012a1.705 1.705 0 011.693 1.716l-.108 15.335a1.705 1.705 0 01-1.716 1.693zm-476.292 116.25l-4.879-.034a1 1 0 01-.993-1.007l3.221-459.894a1 1 0 011.007-.994l4.879.034a1 1 0 01.994 1.008l-3.221 459.894a1 1 0 01-1.008.993z" fill="#BAEFD6"/><path d="M849.299 908.344s57.444-132.707 13.952-272.515c-.284-.913-1.899-.738-2.018.221-10.485 84.557-13.612 176.134-11.934 272.294z" fill="#6FDCA9"/><path d="M849.527 905.55a.738.738 0 01-.711-.939c10.151-36.061 14.015-97.457 15.469-142.609 1.576-48.949.738-89.876.729-90.284a.738.738 0 01.722-.754h.016c.401 0 .729.32.738.722.008.407.848 41.376-.73 90.363-1.457 45.235-5.332 106.757-15.523 142.963a.738.738 0 01-.71.538z" fill="#fff"/><path d="M836.144 886.716s35.487-162.827-31.58-327.599c-.438-1.076-2.031-.76-1.99.397 3.617 102.049 15.798 212.035 33.57 327.202z" fill="#6FDCA9"/><path d="M835.782 883.206l-.07-.003a.738.738 0 01-.665-.805c7.97-84.07-22.391-278.372-22.699-280.324a.74.74 0 011.459-.231c.307 1.955 30.696 196.439 22.709 280.694a.739.739 0 01-.734.669z" fill="#fff"/><path d="M830.512 930.867s17.002-142.044-67.456-269.872c-.552-.835-2.09-.324-1.921.64 14.872 85.028 39.078 175.389 69.377 269.232z" fill="#6FDCA9"/><path d="M829.684 928.097c-.4 0-.729-.32-.737-.723-.753-37.453-15.239-98.401-27.261-142.934-13.031-48.28-26.052-88.203-26.182-88.601a.738.738 0 111.402-.458c.13.397 13.162 40.351 26.203 88.667 12.043 44.615 26.557 105.693 27.313 143.297a.739.739 0 01-.723.752h-.015z" fill="#fff"/><path d="M795.559 852.599h78.077c5.117 0 8.904 4.76 7.753 9.747-4.996 21.642-10.983 43.601-23.233 65.89-2.262 4.117-6.57 6.699-11.268 6.699H821.41a12.563 12.563 0 01-11.064-6.617c-9.814-18.237-19.256-39.977-23.918-64.65-1.085-5.743 3.287-11.069 9.131-11.069z" fill="#BAEFD6"/><path d="M319.441 509.561c-58.262 1.716-72.002 15.362-72.002 15.362l32.677 40.664s56.59-7.515 93.699-43.42c-8.53-7.334-14.833-15.791-19.015-22.457-9.989 5.536-21.769 9.45-35.359 9.851z" fill="url(#paint6_linear_2465_21273)"/><path d="M400.279 414.642c-.287-1.841-2.85-2.061-3.447-.296l-5.593 16.547a16.489 16.489 0 00-.209 9.889l3.616 8.857a15.894 15.894 0 01-1.804 12.931c-5.814 9.223-18.485 26.3-38.042 37.14 4.182 6.666 10.485 15.123 19.014 22.457 13.616-13.174 24.613-30.166 29.223-52.018a7.773 7.773 0 004.585-8.293l-7.343-47.214z" fill="url(#paint7_linear_2465_21273)"/><path d="M502.723 554.932c91.119 0 164.985-73.866 164.985-164.985 0-91.118-73.866-164.984-164.985-164.984-91.118 0-164.984 73.866-164.984 164.984 0 91.119 73.866 164.985 164.984 164.985z" fill="url(#paint8_linear_2465_21273)"/><path d="M503.596 539.225c82.019 0 148.508-66.489 148.508-148.508s-66.489-148.508-148.508-148.508c-82.018 0-148.508 66.489-148.508 148.508s66.49 148.508 148.508 148.508z" fill="#fff"/><path d="M441.763 298.467l-18.491-9.055a4.593 4.593 0 00-5.092.712l-2.01 1.81-3.248 2.926-2.08 1.873a4.594 4.594 0 00-1.24 4.99l7.077 19.334c1.073 2.933 3.516 5.166 6.571 5.816l12.495 2.733 81.15 90.107 4.676-4.211 3.248-2.925 4.415-3.976-81.15-90.107-1.318-12.799c-.327-3.106-2.198-5.854-5.003-7.228z" fill="#91B3FA"/><path d="M440.504 299.561l-16.758-8.27c-1.516-.743-3.434-.603-4.689.527l-1.81 1.631-2.926 2.635-1.873 1.687c-1.255 1.13-1.594 3.023-1.014 4.609l6.425 17.472c.967 2.642 3.221 4.656 5.973 5.242l11.31 2.464 73.179 81.257 4.155-3.741 2.926-2.635 4.572-4.119-73.179-81.257-1.486-11.26c-.295-2.798-2.278-5.005-4.805-6.242z" fill="#7D97F4"/><path d="M583.223 439.058l-57.693-51.491-29.135 26.33 44.397 61.333a38.878 38.878 0 0016.487 13.067l17.698 7.543c2.996 1.253 6.65.893 9.062-1.28l12.114-10.91c2.191-1.973 2.982-5.178 2.418-8.073l-2.979-14.852c-1.625-8.332-6.036-16.015-12.369-21.667z" fill="url(#paint9_linear_2465_21273)"/><path d="M528.409 384.252a4.808 4.808 0 01-.355 6.791l-29.183 26.282a4.81 4.81 0 01-6.792-.355l-.354-.394a4.809 4.809 0 01.355-6.791l29.183-26.282a4.809 4.809 0 016.791.355l.355.394z" fill="url(#paint10_linear_2465_21273)"/><path d="M571.761 476.5a4.108 4.108 0 01-.303 5.804l-.061.055a4.11 4.11 0 01-5.805-.303l-54.997-61.068a4.11 4.11 0 01.304-5.805l.061-.055a4.11 4.11 0 015.804.304l54.997 61.068z" fill="url(#paint11_linear_2465_21273)"/><path d="M586.156 463.536a4.11 4.11 0 01-.304 5.804l-.061.055a4.11 4.11 0 01-5.804-.303l-54.997-61.068a4.11 4.11 0 01.303-5.805l.061-.055a4.11 4.11 0 015.805.304l54.997 61.068z" fill="url(#paint12_linear_2465_21273)"/><path d="M402.475 436.082l-3.893 3.628c-6.679 6.225-8.691 14.923-4.493 19.426l4.99 5.354c4.198 4.504 13.015 3.108 19.695-3.118l3.892-3.627c.258-.241.511-.486.758-.737l110.752-112.539-10.872-11.665-120.041 102.574a25.04 25.04 0 00-.788.704zm5.358 5.136c5.029-4.687 11.363-6.065 14.149-3.077 2.785 2.988.966 9.21-4.063 13.897-5.029 4.687-11.363 6.065-14.148 3.077-2.785-2.988-.966-9.21 4.062-13.897z" fill="url(#paint13_linear_2465_21273)"/><path d="M557.258 290.167l-22.586 21.051a7.086 7.086 0 00-2.223 5.848l1.057 11.219a7.087 7.087 0 005.896 6.326l11.116 1.842a7.087 7.087 0 005.99-1.807l22.585-21.051c3.407-3.176 9.039-.894 9.166 3.761.303 11.137-4.122 22.51-13.108 30.886-16.243 15.139-39.22 12.888-53.782-2.735-14.562-15.623-15.193-38.702 1.049-53.841 8.987-8.375 20.643-11.991 31.731-10.906 4.635.454 6.516 6.232 3.109 9.407z" fill="url(#paint14_linear_2465_21273)"/><path d="M559.242 292.295l-22.586 21.051a7.086 7.086 0 00-2.223 5.848l1.057 11.219a7.087 7.087 0 005.895 6.326l11.117 1.842a7.087 7.087 0 005.99-1.807l22.585-21.051c3.407-3.176 9.039-.894 9.165 3.761.304 11.137-4.121 22.51-13.108 30.886-16.242 15.139-39.22 12.888-53.782-2.735-14.561-15.623-15.192-38.702 1.05-53.841 8.986-8.375 20.642-11.991 31.73-10.906 4.636.453 6.516 6.232 3.11 9.407z" fill="url(#paint15_linear_2465_21273)"/><path d="M404.057 437.781l-3.892 3.628c-6.679 6.225-8.691 14.923-4.494 19.426l4.991 5.354c4.198 4.504 13.015 3.108 19.694-3.118l3.893-3.628c.257-.24.51-.486.757-.736l110.752-112.54-10.872-11.664-120.04 102.574c-.268.229-.531.464-.789.704zm5.359 5.136c5.029-4.687 11.363-6.065 14.148-3.077 2.785 2.988.966 9.21-4.063 13.897-5.028 4.687-11.363 6.065-14.148 3.077-2.785-2.988-.966-9.21 4.063-13.897z" fill="url(#paint16_linear_2465_21273)"/><path d="M341.303 532.808c-22.789-19.605-62.609-25.133-85.476-26.671-10.019-.673-19.08 5.881-21.505 15.625-7.028 28.246-24.083 101.445-28.032 114.166-3.241 10.436-4.232 21.082-6.441 27.481-1.32 3.823 1.16 9.75 4.977 11.087 19.878 6.962 37.585 11.74 51.791 14.201 3.125.541 13.307-1.848 12.952-5-.301-2.672-1.117-6.786 0-9.232l48.132-91.567c36.526 32.338 65.329 32.423 86.282 22.082-4.952-10.936-8.637-22.036-11.074-33.299-32.891-1.89-51.606-38.873-51.606-38.873z" fill="url(#paint17_linear_2465_21273)"/><path d="M445.56 559.627l-6.698-7.107c-17.393 15.072-32.804 19.918-45.953 19.162 2.437 11.262 6.122 22.363 11.074 33.299 27.604-13.625 41.577-45.354 41.577-45.354z" fill="url(#paint18_linear_2465_21273)"/><path d="M441.47 560.229l32.951-2.419 28.302-20.276c-4.642-2.229-28.534 6.09-28.534 6.09s-26.067-.986-33.005-.213c-5.763.642-4.005 8.834-3.245 11.592.156.562.269.899.269.899l3.262 4.327z" fill="url(#paint19_linear_2465_21273)"/><path d="M282.116 462.449l-12.547 44.19s21.44 11.524 37.293 8.409l4.356-38.953-29.102-13.646z" fill="url(#paint20_linear_2465_21273)"/><path d="M310.806 422.78s15.108 24.162 17.888 37.612c2.781 13.451 7.018 21.815-8.257 26.888-15.275 5.073-29.653-.767-38.827-13.209 0 0-14.323-19.144-13.08-28.045 1.242-8.902 42.276-23.246 42.276-23.246z" fill="url(#paint21_linear_2465_21273)"/><path d="M285.518 463.557l.834-.527a2.177 2.177 0 00.611-3.114c-2.85-3.943-8.623-13.091-3.395-16.206 6.739-4.015 34.304-14.058 38.932-25.063 4.448-10.576-2.645-22.311-11.027-24.699-.561-.16-1.152.122-1.345.672l-.47 1.335c-.321.915-1.592.973-1.995.092-.388-.845-1.59-.841-1.961.012-1.435 3.299-5.795 8.953-19.033 13.498-18.814 6.459-30.436 16.199-28.759 29.615.107.853-.726 1.46-1.517 1.126-1.559-.657-3.906-.725-6.578 2.3-4.646 5.261-.741 16.526 12.33 24.321.621.37.746 1.234.205 1.714-1.907 1.69-4.566 5.43 4.241 8.573 9.11 3.25 15.355 1.939 17.721 1.177.589-.19.89-.832.67-1.41l-4.344-11.364a1.077 1.077 0 01.847-1.45l4.033-.602z" fill="url(#paint22_linear_2465_21273)"/><path d="M286.375 465.964s-6.756-15.867-13.466-10.133c-6.71 5.733 6.602 17.922 12.644 17.651l.822-7.518z" fill="url(#paint23_linear_2465_21273)"/><path d="M271.544 956.463s-2.14 12.111-3.189 24.099c-.41 4.685 3.203 8.753 7.902 8.949 15.965.665 50.115 1.958 62.369 1.411 1.842-.082 3.046-1.968 2.364-3.681a6.013 6.013 0 00-3.077-3.242l-56.409-25.925-9.96-1.611z" fill="url(#paint24_linear_2465_21273)"/><path d="M269.791 949.347l1.719 14.487s9.881 4.6 16.629-.58l-4.092-16.144-14.256 2.237z" fill="url(#paint25_linear_2465_21273)"/><path d="M271.083 677.004c-.743 3.783-3.985 188.778 15.789 271.681.323 1.353-.363 2.747-1.65 3.273-3.033 1.24-8.979 3.034-16.105 3.273a4.846 4.846 0 01-4.808-3.478c-5.653-19.235-32.739-115.606-36.272-207.667-3.948-102.869 0-3.503 0-3.503l2.316-63.587 40.73.008z" fill="url(#paint26_linear_2465_21273)"/><path d="M206.654 962.781s-3.405 6.114-6.702 22.361c-.595 2.934 1.455 5.742 4.434 6.035 5.272.518 13.387 1.185 19.888 1.14 2.997-.021 5.336-2.63 4.975-5.605-.721-5.93-2.964-15.659-9.894-23.242l-12.701-.689z" fill="url(#paint27_linear_2465_21273)"/><path d="M203.664 944.149l4.016 21.907s3.971 2.953 11.826.812l-1.917-23.57-13.925.851z" fill="url(#paint28_linear_2465_21273)"/><path d="M199.849 663.41c-21.607 65.506-3.527 260.511 3.111 288.623a4.381 4.381 0 003.54 3.329c2.962.491 7.841.892 12.649-.505a4.017 4.017 0 002.889-3.699c.89-22.729-.712-162.258 14.357-217.401a12.53 12.53 0 014.832-6.91l29.248-20.794 2.243-33.611-72.869-9.032z" fill="url(#paint29_linear_2465_21273)"/><path d="M199.648 663.224l6.541-27.388c15.775 4.659 33.628 7.659 53.44 9.093 21.369-13.548 38.196-31.552 52.58-51.952l.267 2.464a2.86 2.86 0 01-.299 1.613l-41.095 79.95-71.434-13.78z" fill="url(#paint30_linear_2465_21273)"/><path d="M327.093 523.296l-115.577 92.965c2.049-8.683 1.447-9.436 4.55-18.829l95.152-81.849c7.758 1.219 14.94 2.792 15.875 7.713z" fill="url(#paint31_linear_2465_21273)"/><path d="M244.365 508.659l3.074 138.455h12.19l-3.803-141.017c-7.715-.853-10.176.604-11.461 2.562z" fill="url(#paint32_linear_2465_21273)"/><defs><linearGradient id="paint0_linear_2465_21273" x1="1118.82" y1="1265.43" x2="245.9" y2="181.32" gradientUnits="userSpaceOnUse"><stop stop-color="#DAE3FE"/><stop offset="1" stop-color="#F1FCF7"/></linearGradient><linearGradient id="paint1_linear_2465_21273" x1="163.608" y1="399.805" x2="203.593" y2="886.396" gradientUnits="userSpaceOnUse"><stop stop-color="#09005D"/><stop offset="1" stop-color="#1A0F91"/></linearGradient><linearGradient id="paint2_linear_2465_21273" x1="17.954" y1="343.24" x2="65.021" y2="343.24" gradientUnits="userSpaceOnUse"><stop stop-color="#6FDCA9"/><stop offset="1" stop-color="#E9EFFD"/></linearGradient><linearGradient id="paint3_linear_2465_21273" x1="339.776" y1="745.11" x2="1140.86" y2="214.857" gradientUnits="userSpaceOnUse"><stop stop-color="#6FDCA9"/><stop offset="1" stop-color="#BAEFD6"/></linearGradient><linearGradient id="paint4_linear_2465_21273" x1="117.395" y1="614.947" x2="944.067" y2="614.947" gradientUnits="userSpaceOnUse"><stop stop-color="#6FDCA9"/><stop offset="1" stop-color="#4042E2"/></linearGradient><linearGradient id="paint5_linear_2465_21273" x1="523.043" y1="859.627" x2="372.332" y2="223.286" gradientUnits="userSpaceOnUse"><stop stop-color="#6FDCA9"/><stop offset="1" stop-color="#BAEFD6"/></linearGradient><linearGradient id="paint6_linear_2465_21273" x1="321.351" y1="-184.182" x2="317.759" y2="52.869" gradientUnits="userSpaceOnUse"><stop stop-color="#FF928E"/><stop offset="1" stop-color="#FE7062"/></linearGradient><linearGradient id="paint7_linear_2465_21273" x1="351.625" y1="471.538" x2="408.003" y2="465.183" gradientUnits="userSpaceOnUse"><stop stop-color="#FEBBBA"/><stop offset="1" stop-color="#FF928E"/></linearGradient><linearGradient id="paint8_linear_2465_21273" x1="511.379" y1="-181.306" x2="507.787" y2="55.745" gradientUnits="userSpaceOnUse"><stop stop-color="#FF928E"/><stop offset="1" stop-color="#FE7062"/></linearGradient><linearGradient id="paint9_linear_2465_21273" x1="547.571" y1="374.578" x2="547.571" y2="599.308" gradientUnits="userSpaceOnUse"><stop stop-color="#4F52FF"/><stop offset="1" stop-color="#4042E2"/></linearGradient><linearGradient id="paint10_linear_2465_21273" x1="571.159" y1="474.967" x2="483.962" y2="368.557" gradientUnits="userSpaceOnUse"><stop stop-color="#4F52FF"/><stop offset="1" stop-color="#4042E2"/></linearGradient><linearGradient id="paint11_linear_2465_21273" x1="642.645" y1="153.167" x2="587.57" y2="313.603" gradientUnits="userSpaceOnUse"><stop stop-color="#4F52FF"/><stop offset="1" stop-color="#4042E2"/></linearGradient><linearGradient id="paint12_linear_2465_21273" x1="651.541" y1="156.221" x2="596.466" y2="316.657" gradientUnits="userSpaceOnUse"><stop stop-color="#4F52FF"/><stop offset="1" stop-color="#4042E2"/></linearGradient><linearGradient id="paint13_linear_2465_21273" x1="569.369" y1="444.108" x2="408.462" y2="377.046" gradientUnits="userSpaceOnUse"><stop stop-color="#6FDCA9"/><stop offset="1" stop-color="#1A0F91"/></linearGradient><linearGradient id="paint14_linear_2465_21273" x1="588.727" y1="304.964" x2="461.218" y2="352.549" gradientUnits="userSpaceOnUse"><stop stop-color="#6FDCA9"/><stop offset="1" stop-color="#1A0F91"/></linearGradient><linearGradient id="paint15_linear_2465_21273" x1="1194.94" y1="-1505.54" x2="1150.71" y2="-1380.03" gradientUnits="userSpaceOnUse"><stop stop-color="#6FDCA9"/><stop offset="1" stop-color="#BAEFD6"/></linearGradient><linearGradient id="paint16_linear_2465_21273" x1="1339.49" y1="-1552.85" x2="1301.52" y2="-1401.34" gradientUnits="userSpaceOnUse"><stop stop-color="#6FDCA9"/><stop offset="1" stop-color="#BAEFD6"/></linearGradient><linearGradient id="paint17_linear_2465_21273" x1="172.725" y1="-689.118" x2="195.705" y2="-453.159" gradientUnits="userSpaceOnUse"><stop stop-color="#FF928E"/><stop offset="1" stop-color="#FE7062"/></linearGradient><linearGradient id="paint18_linear_2465_21273" x1="480.677" y1="469.44" x2="375.937" y2="634.729" gradientUnits="userSpaceOnUse"><stop stop-color="#FEBBBA"/><stop offset="1" stop-color="#FF928E"/></linearGradient><linearGradient id="paint19_linear_2465_21273" x1="505.865" y1="485.397" x2="401.123" y2="650.69" gradientUnits="userSpaceOnUse"><stop stop-color="#FEBBBA"/><stop offset="1" stop-color="#FF928E"/></linearGradient><linearGradient id="paint20_linear_2465_21273" x1="330.343" y1="362.643" x2="277.96" y2="546.887" gradientUnits="userSpaceOnUse"><stop stop-color="#FEBBBA"/><stop offset="1" stop-color="#FF928E"/></linearGradient><linearGradient id="paint21_linear_2465_21273" x1="316.561" y1="445.176" x2="259.597" y2="503.978" gradientUnits="userSpaceOnUse"><stop stop-color="#FEBBBA"/><stop offset="1" stop-color="#FF928E"/></linearGradient><linearGradient id="paint22_linear_2465_21273" x1="265.476" y1="412.972" x2="336.879" y2="481.148" gradientUnits="userSpaceOnUse"><stop stop-color="#09005D"/><stop offset="1" stop-color="#1A0F91"/></linearGradient><linearGradient id="paint23_linear_2465_21273" x1="307.028" y1="435.943" x2="250.065" y2="494.745" gradientUnits="userSpaceOnUse"><stop stop-color="#FEBBBA"/><stop offset="1" stop-color="#FF928E"/></linearGradient><linearGradient id="paint24_linear_2465_21273" x1="336.84" y1="939.725" x2="130.272" y2="1164.41" gradientUnits="userSpaceOnUse"><stop stop-color="#09005D"/><stop offset="1" stop-color="#1A0F91"/></linearGradient><linearGradient id="paint25_linear_2465_21273" x1="269.791" y1="956.413" x2="288.14" y2="956.413" gradientUnits="userSpaceOnUse"><stop stop-color="#FEBBBA"/><stop offset="1" stop-color="#FF928E"/></linearGradient><linearGradient id="paint26_linear_2465_21273" x1="353.105" y1="685.626" x2="177.336" y2="923.86" gradientUnits="userSpaceOnUse"><stop stop-color="#09005D"/><stop offset="1" stop-color="#1A0F91"/></linearGradient><linearGradient id="paint27_linear_2465_21273" x1="290.5" y1="897.122" x2="83.931" y2="1121.81" gradientUnits="userSpaceOnUse"><stop stop-color="#09005D"/><stop offset="1" stop-color="#1A0F91"/></linearGradient><linearGradient id="paint28_linear_2465_21273" x1="203.664" y1="955.472" x2="219.506" y2="955.472" gradientUnits="userSpaceOnUse"><stop stop-color="#FEBBBA"/><stop offset="1" stop-color="#FF928E"/></linearGradient><linearGradient id="paint29_linear_2465_21273" x1="319.453" y1="660.798" x2="143.683" y2="899.031" gradientUnits="userSpaceOnUse"><stop stop-color="#09005D"/><stop offset="1" stop-color="#1A0F91"/></linearGradient><linearGradient id="paint30_linear_2465_21273" x1="259.06" y1="601.25" x2="244.121" y2="742.733" gradientUnits="userSpaceOnUse"><stop stop-color="#09005D"/><stop offset="1" stop-color="#1A0F91"/></linearGradient><linearGradient id="paint31_linear_2465_21273" x1="273.602" y1="529.084" x2="254.802" y2="707.126" gradientUnits="userSpaceOnUse"><stop stop-color="#09005D"/><stop offset="1" stop-color="#1A0F91"/></linearGradient><linearGradient id="paint32_linear_2465_21273" x1="257.207" y1="528.539" x2="233.218" y2="755.729" gradientUnits="userSpaceOnUse"><stop stop-color="#09005D"/><stop offset="1" stop-color="#1A0F91"/></linearGradient></defs></svg>