<svg width="150" height="150" fill="none" xmlns="http://www.w3.org/2000/svg"><g clip-path="url(#clip0_2166_16288)"><path d="M113.526 49.56V31.785a13.735 13.735 0 007.913-12.38v-.417a13.733 13.733 0 00-13.697-13.697h-.417a13.734 13.734 0 00-13.72 13.697v.418a13.735 13.735 0 007.837 12.328l.075.046v17.822a38.766 38.766 0 00-18.553 8.18l.075-.047-48.928-38.11C38.53 3.122 16.997-7.448 6.647 6.15c-10.378 13.575 5.47 31.542 20.24 22.95l-.075.047 48.094 37.425a38.72 38.72 0 00-6.492 21.558 38.888 38.888 0 007.176 22.533l-.075-.122-14.648 14.625a12.948 12.948 0 00-3.614-.586h-.024c-11.301 0-16.992 13.697-8.986 21.703 8.007 7.983 21.704 2.32 21.704-8.986a13.124 13.124 0 00-.633-3.736l.023.099 14.48-14.48a39.1 39.1 0 0033.619 6.741 39.07 39.07 0 0024.29-56.593 38.988 38.988 0 00-28.003-19.725l-.244-.046.047.004zm-6.032 58.617c-17.846-.047-26.733-21.632-14.086-34.228 12.623-12.6 34.181-3.66 34.181 14.185v.023a20 20 0 01-5.871 14.166 20.003 20.003 0 01-14.173 5.854h-.051z" fill="#FF5C35"/></g><defs><clipPath id="clip0_2166_16288"><path fill="#fff" d="M0 0h150v150H0z"/></clipPath></defs></svg>