<svg width="33" height="33" fill="none" xmlns="http://www.w3.org/2000/svg"><mask id="a" style="mask-type:luminance" maskUnits="userSpaceOnUse" x="0" y="0" width="33" height="33"><path d="M32.5.578H.5v32h32v-32z" fill="#fff"/></mask><g mask="url(#a)"><mask id="b" style="mask-type:luminance" maskUnits="userSpaceOnUse" x="0" y="0" width="33" height="33"><path d="M32.5.578H.5v32h32v-32z" fill="#fff"/></mask><g mask="url(#b)"><path d="M23.903 4.906a3.333 3.333 0 00-3.177-2.328h-1.1a3.333 3.333 0 00-3.276 2.723l-1.633 8.762.49-1.618a3.333 3.333 0 013.19-2.367H23.5l2.926 1.024 1.556-1.019a3.338 3.338 0 01-3.178-2.332l-.9-2.845z" fill="url(#paint0_radial_2480_16839)"/><path d="M9.44 28.236a3.333 3.333 0 003.183 2.342h2.162a3.333 3.333 0 003.333-3.286l.115-8.05-.439 1.461a3.333 3.333 0 01-3.192 2.375H9.5l-2.638-1.203-1.482 1.203c1.46 0 2.749.949 3.183 2.342l.877 2.816z" fill="url(#paint1_radial_2480_16839)"/><path d="M20.5 2.578H8.833c-3.333 0-5.333 4.299-6.666 8.597C.587 16.268-1.48 23.08 4.5 23.08h5.08a3.334 3.334 0 003.202-2.397A1452.83 1452.83 0 0116.395 8.52c.612-2.018 1.123-3.751 1.906-4.83A2.65 2.65 0 0120.5 2.578z" fill="url(#paint2_linear_2480_16839)"/><path d="M20.5 2.578H8.833c-3.333 0-5.333 4.299-6.666 8.597C.587 16.268-1.48 23.08 4.5 23.08h5.08a3.334 3.334 0 003.202-2.397A1452.83 1452.83 0 0116.395 8.52c.612-2.018 1.123-3.751 1.906-4.83A2.65 2.65 0 0120.5 2.578z" fill="url(#paint3_linear_2480_16839)"/><path d="M12.498 30.578h11.666c3.334 0 5.334-4.298 6.667-8.596 1.58-5.092 3.647-11.902-2.333-11.902h-5.081a3.334 3.334 0 00-3.202 2.397c-.876 2.991-2.408 8.197-3.612 12.16-.613 2.018-1.123 3.75-1.907 4.83a2.65 2.65 0 01-2.198 1.11z" fill="url(#paint4_radial_2480_16839)"/><path d="M12.498 30.578h11.666c3.334 0 5.334-4.298 6.667-8.596 1.58-5.092 3.647-11.902-2.333-11.902h-5.081a3.334 3.334 0 00-3.202 2.397c-.876 2.991-2.408 8.197-3.612 12.16-.613 2.018-1.123 3.75-1.907 4.83a2.65 2.65 0 01-2.198 1.11z" fill="url(#paint5_linear_2480_16839)"/><path d="M30.883 23.078H12.617c-.893 0-1.617.724-1.617 1.617v6.267c0 .892.724 1.616 1.617 1.616h18.266c.893 0 1.617-.724 1.617-1.616v-6.267c0-.893-.724-1.617-1.617-1.617z" fill="#000"/><path fill-rule="evenodd" clip-rule="evenodd" d="M12.308 24.894v5.791h1.072v-4.172l1.174 2.313h.715l1.148-2.315v4.174h1.106v-5.791h-1.235l-1.341 2.687-1.335-2.687h-1.304zm8.006 5.865c-.637 0-1.133-.152-1.489-.457-.353-.304-.53-.761-.53-1.372h1.06c0 .29.082.516.249.68.17.163.404.245.706.245.27 0 .476-.069.62-.207.146-.137.219-.355.219-.654 0-.287-.09-.494-.267-.624-.175-.132-.403-.198-.684-.198h-.349v-.869h.379c.252 0 .453-.069.602-.206a.708.708 0 00.224-.547c0-.23-.067-.399-.202-.508-.132-.109-.314-.163-.547-.163-.255 0-.453.072-.594.215-.14.14-.21.334-.21.581h-1.055c0-.387.08-.706.241-.955.164-.25.386-.436.667-.56.281-.126.597-.189.947-.189.324 0 .624.053.9.16.275.105.495.267.662.485.17.218.254.498.254.84 0 .347-.083.622-.25.826a1.302 1.302 0 01-.662.43c.307.063.56.207.761.43.204.221.306.532.306.934 0 .545-.177.962-.53 1.252-.35.287-.826.43-1.428.43zm3.464-.285c.318.193.68.289 1.084.289.407 0 .752-.08 1.033-.241a1.59 1.59 0 00.645-.663c.146-.284.22-.61.22-.977 0-.381-.072-.7-.216-.96a1.43 1.43 0 00-.585-.589 1.677 1.677 0 00-.826-.202c-.258 0-.485.042-.68.125a1.807 1.807 0 00-.567.385c.019-.556.102-.977.249-1.263.172-.333.416-.5.731-.5.195 0 .353.055.474.165.123.106.206.268.25.486h1.058c-.075-.5-.264-.882-.568-1.15-.304-.269-.709-.404-1.214-.404-.41 0-.774.105-1.093.314-.318.207-.568.527-.748.96-.181.43-.271.983-.271 1.657 0 .677.091 1.226.275 1.648.184.419.433.726.749.92zm.11-2.006c.077-.075.162-.143.255-.205a1.37 1.37 0 01.788-.237c.22 0 .393.078.516.233.124.151.185.364.185.636 0 .279-.064.51-.193.693-.127.184-.319.275-.577.275a.822.822 0 01-.477-.159c-.15-.109-.272-.285-.366-.529a2.47 2.47 0 01-.13-.707zm4.348 2.106c.3.126.636.189 1.006.189.368 0 .698-.073.99-.22.296-.146.53-.364.702-.654.172-.292.258-.658.258-1.097 0-.439-.082-.793-.245-1.063a1.452 1.452 0 00-.633-.59 1.903 1.903 0 00-.84-.189c-.229 0-.428.038-.597.112a1.052 1.052 0 00-.379.254l.103-1.325h2.156v-.942h-3.046l-.246 3.12h.986a.964.964 0 01.305-.25.947.947 0 01.452-.1c.253 0 .458.078.616.233.16.152.24.399.24.74 0 .37-.076.641-.228.813a.747.747 0 01-.593.259.94.94 0 01-.642-.22c-.166-.15-.25-.353-.25-.61h-1.096c0 .386.087.71.262.967.178.255.418.446.719.573z" fill="#fff"/></g></g><defs><radialGradient id="paint0_radial_2480_16839" cx="0" cy="0" r="1" gradientUnits="userSpaceOnUse" gradientTransform="rotate(-130.285 16.622 .885) scale(12.2858 11.6256)"><stop offset=".096" stop-color="#00AEFF"/><stop offset=".773" stop-color="#2253CE"/><stop offset="1" stop-color="#0736C4"/></radialGradient><radialGradient id="paint1_radial_2480_16839" cx="0" cy="0" r="1" gradientUnits="userSpaceOnUse" gradientTransform="matrix(7.10806 8.54822 -8.3909 6.97725 7.105 22.975)"><stop stop-color="#FFB657"/><stop offset=".634" stop-color="#FF5F3D"/><stop offset=".923" stop-color="#C02B3C"/></radialGradient><radialGradient id="paint4_radial_2480_16839" cx="0" cy="0" r="1" gradientUnits="userSpaceOnUse" gradientTransform="rotate(109.722 11.707 14.276) scale(27.3122 33.3573)"><stop offset=".066" stop-color="#8C48FF"/><stop offset=".5" stop-color="#F2598A"/><stop offset=".896" stop-color="#FFB152"/></radialGradient><linearGradient id="paint2_linear_2480_16839" x1="8.135" y1="5.062" x2="9.72" y2="23.86" gradientUnits="userSpaceOnUse"><stop offset=".156" stop-color="#0D91E1"/><stop offset=".487" stop-color="#52B471"/><stop offset=".652" stop-color="#98BD42"/><stop offset=".937" stop-color="#FFC800"/></linearGradient><linearGradient id="paint3_linear_2480_16839" x1="9.59" y1="2.578" x2="10.455" y2="23.081" gradientUnits="userSpaceOnUse"><stop stop-color="#3DCBFF"/><stop offset=".247" stop-color="#0588F7" stop-opacity="0"/></linearGradient><linearGradient id="paint5_linear_2480_16839" x1="30.018" y1="8.828" x2="30.007" y2="14.411" gradientUnits="userSpaceOnUse"><stop offset=".058" stop-color="#F8ADFA"/><stop offset=".708" stop-color="#A86EDD" stop-opacity="0"/></linearGradient></defs></svg>