<svg width="188" height="150" fill="none" xmlns="http://www.w3.org/2000/svg"><g clip-path="url(#clip0_2171_16315)"><path d="M72.917 71.965h-7.72c.202-1.512.973-4.137 3.996-4.137 1.978 0 3.507 1.12 3.724 4.137zm40.037-4.067c-.138 0-4.134-.518-4.134 5.86s3.993 5.86 4.134 5.86c3.809 0 4.134-3.968 4.134-5.86 0-6.375-4.002-5.86-4.134-5.86zM41.698 74.86a2.528 2.528 0 00-.964 2.136c0 1.4.61 1.773.964 2.066 1.377 1.083 4.415.62 6.132.278v-4.963c-1.558-.314-4.901-.574-6.132.483zM187.5 67.97c0 25.658-23.437 45.231-48.445 39.969-5.382 9.668-20.722 20.728-38.731 12.197-12.058 28.139-52.116 27.006-62.64-1.515C2.61 125.62-14.704 78.083 15.633 60.238c-10.18-23.27 6.633-50.862 33.49-50.862a36.398 36.398 0 0128.874 14.268c6.064-6.27 14.473-10.199 23.774-10.199 12.405 0 23.145 6.891 28.946 17.16C157.91 18.687 187.5 38.875 187.5 67.97zM35.288 77.285c0-3.445-3.425-4.444-5.235-5.03-1.544-.618-3.929-1.028-3.929-2.62 0-2.77 4.98-1.95 7.374-.62 0 0 .343.208.48-.138.07-.205.692-1.928.76-2.136a.331.331 0 00-.206-.413c-3.612-2.235-11.924-2.493-11.924 3.72 0 3.651 3.367 4.524 5.239 5.031 1.383.463 3.858.879 3.858 2.549 0 1.172-1.034 2.068-2.686 2.068a9.305 9.305 0 01-5.567-1.86c-.138-.067-.416-.208-.483.208l-.703 2.188c-.138.276.067.346.067.413.513.41 3.018 1.931 6.686 1.931 3.858 0 6.27-2.068 6.27-5.305v.014zm9.375-12.474c-2.968 0-5.467.928-6.27 1.517a.294.294 0 00-.07.413l.759 2.069a.293.293 0 00.346.205c.19 0 1.992-1.172 4.96-1.172 1.172 0 2.068.208 2.69.691 1.054.82.896 2.429.896 3.1-1.404-.088-5.599-1.008-8.617 1.101a4.957 4.957 0 00-2.15 4.26c0 1.729.442 3.047 1.93 4.204 3.587 2.39 10.63.586 11.163.413.463-.093 1.034-.193 1.034-.55v-9.926c.012-1.35.094-6.34-6.674-6.34l.003.015zm13.638-6.147a.326.326 0 00-.346-.346h-2.877a.325.325 0 00-.343.346V81.81a.327.327 0 00.343.345h2.895a.325.325 0 00.345-.345l-.017-23.145zm16.333 8.476c-.615-.677-1.99-2.206-5.171-2.206-1.028 0-4.149.067-6.065 2.619-1.86 2.235-1.927 5.305-1.927 6.272 0 .914.044 4.178 2.068 6.202.773.853 2.654 2.412 6.683 2.412 3.17 0 4.825-.689 5.443-1.102.138-.07.208-.208.07-.55l-.688-2.002a.37.37 0 00-.413-.205c-.759.276-1.86.826-4.48.826-5.103 0-4.936-4.318-4.963-4.892h10.89a.36.36 0 00.343-.276c-.085 0 .606-4.306-1.784-7.098h-.006zm10.749 15.436c3.858 0 6.272-2.068 6.272-5.305 0-3.446-3.427-4.445-5.238-5.03-1.213-.487-3.929-.991-3.929-2.62 0-1.102.964-1.86 2.482-1.86 1.704.034 3.377.458 4.892 1.239 0 0 .346.208.484-.138.067-.205.688-1.927.756-2.135a.331.331 0 00-.206-.413c-2.317-1.436-4.904-1.448-5.926-1.448-3.516 0-5.994 2.136-5.994 5.168 0 3.65 3.363 4.524 5.235 5.03 1.79.586 3.858.956 3.858 2.55 0 1.171-1.03 2.068-2.686 2.068a9.317 9.317 0 01-5.567-1.86.293.293 0 00-.483.207l-.689 2.203c-.137.276.068.346.068.413.504.41 3.026 1.931 6.677 1.931h-.006zm19.233-16.951c0-.208-.07-.346-.345-.346h-3.446c0-.04.276-2.619 1.31-3.653 1.219-1.216 3.445-.48 3.515-.48.343.137.413 0 .481-.138l.829-2.277c.205-.275 0-.342-.07-.413-1.492-.586-5.083-.84-7.166 1.243-1.606 1.605-2.051 4.078-2.344 5.718h-2.482a.375.375 0 00-.342.346l-.416 2.273c0 .206.07.343.345.343h2.412c-2.494 14.033-2.564 14.71-3.033 16.266-.316 1.06-.964 2.021-1.722 2.273-.027 0-1.137.492-2.825-.07 0 0-.275-.138-.413.208-.07.208-.758 1.998-.829 2.206-.07.208 0 .413.138.413 1.497.586 3.809.519 5.238 0 1.84-.668 2.848-2.311 3.378-3.79.806-2.26.823-2.87 3.445-17.503h3.583a.38.38 0 00.346-.346l.413-2.273zm15.642 4.688c-.164-.493-1.494-5.306-7.374-5.306-4.468 0-6.738 2.93-7.371 5.305-.293.88-.932 4.102 0 6.891.026.088 1.292 5.309 7.371 5.309 4.38 0 6.709-2.816 7.374-5.309.94-2.815.296-6.012 0-6.89zm13.301-4.893c-1.465-.484-4.87-.557-6.478 1.585v-1.31a.326.326 0 00-.346-.342h-2.754a.331.331 0 00-.25.093.326.326 0 00-.095.25V81.89a.329.329 0 00.345.346h2.825a.326.326 0 00.324-.211.313.313 0 00.021-.135v-8.136c0-.853.015-3.331 1.307-4.41 1.436-1.435 3.516-.984 3.929-.896a.462.462 0 00.413-.275c.344-.764.643-1.546.896-2.344a.341.341 0 00-.137-.413v.003zm13.713 15.85l-.621-2.136c-.137-.346-.413-.208-.413-.208-1.239.533-2.973.553-3.307.553-1.36 0-5.031-.33-5.031-5.789 0-1.825.542-5.789 4.826-5.789a10.225 10.225 0 013.375.484s.275.137.345-.208c.276-.759.481-1.31.759-2.206.067-.276-.138-.343-.208-.343-3.395-1.134-6.545-.741-8.133 0-.466.217-4.755 1.901-4.755 8.062 0 .85-.17 8.822 8.479 8.822a13.034 13.034 0 004.547-.83.375.375 0 00.134-.186.376.376 0 00.003-.23v.003zm15.783-11.579c-.235-.879-1.574-4.755-6.548-4.755-4.688 0-6.891 2.962-7.512 5.447a11.29 11.29 0 00-.483 3.445c0 7.58 5.519 8.613 8.754 8.613 3.17 0 4.822-.688 5.443-1.101.138-.07.208-.208.07-.55l-.691-2.002a.369.369 0 00-.413-.205c-.759.275-1.861.826-4.48.826-5.103 0-4.936-4.318-4.96-4.892h10.887a.364.364 0 00.346-.276c-.071-.003.275-2.071-.413-4.552v.002zm-6.824-1.86c-3.026 0-3.808 2.637-3.996 4.137h7.726c-.258-3.492-2.232-4.14-3.73-4.14v.003z" fill="#00A1E0"/></g><defs><clipPath id="clip0_2171_16315"><path fill="#fff" d="M0 0h187.5v150H0z"/></clipPath></defs></svg>